{
classes = (
{
automatic = 1;
code = "A AE AEacute Aacute Abreve Acircumflex Adieresis Agrave Amacron Aogonek Aring Aringacute Atilde B C Cacute Ccaron Ccedilla Ccircumflex Cdotaccent D Dcaron Dcroat E Eacute Ebreve Ecaron Ecircumflex Edieresis Edotaccent Egrave Emacron Eng Eogonek Eth Etilde F G G.alt Gbreve Gcircumflex Gcommaaccent Gdotaccent H Hbar Hcircumflex I IJ J Iacute Ibreve Icircumflex Idieresis Idotaccent Igrave Imacron Iogonek Itilde Jcircumflex K Kcommaaccent L Lacute Lcaron Lcommaaccent Ldot Lslash M N Nacute Ncaron Ncommaaccent Ndotaccent Ntilde O OE Oacute Obreve Ocircumflex Odieresis Ograve Ohungarumlaut Omacron Oogonek Oslash Oslashacute Otilde P Q R Racute Rcaron Rcommaaccent S Sacute Scaron Scircumflex T Tbar Tcaron Thorn U Uacute Ubreve Ucircumflex Udieresis Ugrave Uhungarumlaut Umacron Uogonek Uring Utilde V W Wacute Wcircumflex Wdieresis Wgrave X Y Yacute Ycircumflex Ydieresis Ygrave Ytilde Z Zacute Zcaron Zdotaccent uni015E uni0162 uni0218 uni021A W.ss02";
name = Uppercase;
}
);
copyright = "It is a display face that features both old style and lining numerals, standard and discretionary ligatures, a pretty complete set of diacritics, as well as a stylistic alternate inspired by more geometric sans-serif typefaces than it's neo-grotesque inspired default character set.";
customParameters = (
{
name = description;
value = "It is a display face that features both old style and lining numerals, standard and discretionary ligatures, a pretty complete set of diacritics, as well as a stylistic alternate inspired by more geometric sans-serif typefaces than it's neo-grotesque inspired default character set.";
},
{
name = license;
value = "This Font Software is licensed under the SIL Open Font License, Version 1.1. This license is available with a FAQ at: http://scripts.sil.org/OFL";
},
{
name = licenseURL;
value = "http://scripts.sil.org/OFL";
},
{
name = glyphOrder;
value = (
    ".notdef",
    A,
    "A.sc",
    AE,
    AEacute,
    acute,

glyphs = (
{
glyphname = A;
layers = (
{
layerId = "04F5D486-D400-49CE-AE86-164151670EAE";
name = Bold;
paths = (
{
closed = 1;
nodes = (
"148 0 LINE",
"213 177 LINE",
"462 177 LINE",
"527 0 LINE",
"673 0 LINE",
"394 710 LINE",
"282 710 LINE",
"2 0 LINE"
);
},
{
closed = 1;
nodes = (
"437 274 LINE",
"236 274 LINE",
"338 561 LINE"
);
}
);
width = 675;
}
);
unicode = 0041;
},
{
glyphname = A.sc;
layers = (
{
layerId = "04F5D486-D400-49CE-AE86-164151670EAE";
name = Bold;
paths = (
{
closed = 1;
nodes = (
"132 0 LINE",
"188 131 LINE",
"405 131 LINE",
"461 0 LINE",
"589 0 LINE",
"346 559 LINE",
"247 559 LINE",
"3 0 LINE"
);
},
{
closed = 1;
nodes = (
"376 236 LINE",
"215 236 LINE",
"297 412 LINE"
);
}
);
width = 593;
}
);
},
{
glyphname = AE;
layers = (
{
layerId = "04F5D486-D400-49CE-AE86-164151670EAE";
name = Bold;
paths = (
{
closed = 1;
nodes = (
"-14 0 LINE",
"133 0 LINE",
"238 177 LINE",
"466 177 LINE",
"466 0 LINE",
"944 0 LINE",
"944 121 LINE",
"602 121 LINE",
"602 301 LINE",
"881 301 LINE",
"881 422 LINE",
"602 422 LINE",
"602 589 LINE",
"935 589 LINE",
"935 710 LINE",
"430 710 LINE"
);
},
{
closed = 1;
nodes = (
"297 297 LINE",
"456 555 LINE",
"456 297 LINE"
);
}
);
width = 981;
}
);
unicode = 00C6;
},
{
glyphname = AEacute;
layers = (
{
layerId = "04F5D486-D400-49CE-AE86-164151670EAE";
name = Bold;
paths = (
{
closed = 1;
nodes = (
"714 915 LINE",
"589 915 LINE",
"535 796 LINE",
"621 770 LINE"
);
},
{
closed = 1;
nodes = (
"-14 0 LINE",
"133 0 LINE",
"238 177 LINE",
"466 177 LINE",
"466 0 LINE",
"944 0 LINE",
"944 121 LINE",
"602 121 LINE",
"602 301 LINE",
"881 301 LINE",
"881 422 LINE",
"602 422 LINE",
"602 589 LINE",
"935 589 LINE",
"935 710 LINE",
"430 710 LINE"
);
},
{
closed = 1;
nodes = (
"297 297 LINE",
"456 555 LINE",
"456 297 LINE"
);
}
);
width = 981;
}
);
unicode = 01FC;
},
{
glyphname = acute;
layers = (
{
layerId = "04F5D486-D400-49CE-AE86-164151670EAE";
name = Bold;
paths = (
{
closed = 1;
nodes = (
"226 730 LINE",
"101 730 LINE",
"47 611 LINE",
"133 585 LINE"
);
}
);
width = 255;
}
);
unicode = 00B4;
},
{
glyphname = Aacute;
layers = (
{
layerId = "04F5D486-D400-49CE-AE86-164151670EAE";
name = Bold;
paths = (
{
closed = 1;
nodes = (
"148 0 LINE",
"213 177 LINE",
"462 177 LINE",
"527 0 LINE",
"673 0 LINE",
"394 710 LINE",
"282 710 LINE",
"2 0 LINE"
);
},
{
closed = 1;
nodes = (
"437 274 LINE",
"236 274 LINE",
"338 561 LINE"
);
},
{
closed = 1;
nodes = (
"466 915 LINE",
"341 915 LINE",
"287 796 LINE",
"373 770 LINE"
);
}
);
width = 675;
}
);
unicode = 00C1;
},
{
glyphname = Abreve;
layers = (
{
layerId = "04F5D486-D400-49CE-AE86-164151670EAE";
name = Bold;
paths = (
{
closed = 1;
nodes = (
"148 0 LINE",
"213 177 LINE",
"462 177 LINE",
"527 0 LINE",
"673 0 LINE",
"394 710 LINE",
"282 710 LINE",
"2 0 LINE"
);
},
{
closed = 1;
nodes = (
"437 274 LINE",
"236 274 LINE",
"338 561 LINE"
);
},
{
closed = 1;
nodes = (
"307 841 OFFCURVE",
"279 875 OFFCURVE",
"279 915 CURVE",
"207 915 LINE",
"207 838 OFFCURVE",
"262 781 OFFCURVE",
"338 781 CURVE SMOOTH",
"414 781 OFFCURVE",
"469 838 OFFCURVE",
"469 915 CURVE",
"398 915 LINE",
"394 872 OFFCURVE",
"368 841 OFFCURVE",
"338 841 CURVE SMOOTH"
);
}
);
width = 675;
}
);
unicode = 0102;
},
{
glyphname = breve;
layers = (
{
layerId = "04F5D486-D400-49CE-AE86-164151670EAE";
name = Bold;
paths = (
{
closed = 1;
nodes = (
"133 656 OFFCURVE",
"105 690 OFFCURVE",
"105 730 CURVE",
"33 730 LINE",
"33 653 OFFCURVE",
"88 596 OFFCURVE",
"164 596 CURVE SMOOTH",
"240 596 OFFCURVE",
"295 653 OFFCURVE",
"295 730 CURVE",
"224 730 LINE",
"220 687 OFFCURVE",
"194 656 OFFCURVE",
"164 656 CURVE SMOOTH"
);
}
);
width = 328;
}
);
unicode = 02D8;
},
{
glyphname = Acircumflex;
layers = (
{
layerId = "04F5D486-D400-49CE-AE86-164151670EAE";
name = Bold;
paths = (
{
closed = 1;
nodes = (
"148 0 LINE",
"213 177 LINE",
"462 177 LINE",
"527 0 LINE",
"673 0 LINE",
"394 710 LINE",
"282 710 LINE",
"2 0 LINE"
);
},
{
closed = 1;
nodes = (
"437 274 LINE",
"236 274 LINE",
"338 561 LINE"
);
},
{
closed = 1;
nodes = (
"254 782 LINE",
"339 845 LINE",
"424 782 LINE",
"493 814 LINE",
"387 915 LINE",
"290 915 LINE",
"184 814 LINE"
);
}
);
width = 675;
}
);
unicode = 00C2;
},
{
glyphname = circumflex;
layers = (
{
layerId = "04F5D486-D400-49CE-AE86-164151670EAE";
name = Bold;
paths = (
{
closed = 1;
nodes = (
"100 597 LINE",
"185 660 LINE",
"270 597 LINE",
"339 629 LINE",
"233 730 LINE",
"136 730 LINE",
"30 629 LINE"
);
}
);
width = 369;
}
);
unicode = 02C6;
},
{
glyphname = Adieresis;
layers = (
{
layerId = "04F5D486-D400-49CE-AE86-164151670EAE";
name = Bold;
paths = (
{
closed = 1;
nodes = (
"148 0 LINE",
"213 177 LINE",
"462 177 LINE",
"527 0 LINE",
"673 0 LINE",
"394 710 LINE",
"282 710 LINE",
"2 0 LINE"
);
},
{
closed = 1;
nodes = (
"437 274 LINE",
"236 274 LINE",
"338 561 LINE"
);
},
{
closed = 1;
nodes = (
"298 790 LINE",
"298 909 LINE",
"187 909 LINE",
"187 790 LINE"
);
},
{
closed = 1;
nodes = (
"490 790 LINE",
"490 909 LINE",
"379 909 LINE",
"379 790 LINE"
);
}
);
width = 675;
}
);
unicode = 00C4;
},
{
glyphname = dieresis;
layers = (
{
layerId = "04F5D486-D400-49CE-AE86-164151670EAE";
name = Bold;
paths = (
{
closed = 1;
nodes = (
"188 604 LINE",
"188 723 LINE",
"77 723 LINE",
"77 604 LINE"
);
},
{
closed = 1;
nodes = (
"380 604 LINE",
"380 723 LINE",
"269 723 LINE",
"269 604 LINE"
);
}
);
width = 457;
}
);
unicode = 00A8;
},
{
glyphname = Agrave;
layers = (
{
layerId = "04F5D486-D400-49CE-AE86-164151670EAE";
name = Bold;
paths = (
{
closed = 1;
nodes = (
"148 0 LINE",
"213 177 LINE",
"462 177 LINE",
"527 0 LINE",
"673 0 LINE",
"394 710 LINE",
"282 710 LINE",
"2 0 LINE"
);
},
{
closed = 1;
nodes = (
"437 274 LINE",
"236 274 LINE",
"338 561 LINE"
);
},
{
closed = 1;
nodes = (
"304 771 LINE",
"390 797 LINE",
"335 916 LINE",
"211 916 LINE"
);
}
);
width = 675;
}
);
unicode = 00C0;
},
{
glyphname = grave;
layers = (
{
layerId = "04F5D486-D400-49CE-AE86-164151670EAE";
name = Bold;
paths = (
{
closed = 1;
nodes = (
"140 585 LINE",
"226 611 LINE",
"171 730 LINE",
"47 730 LINE"
);
}
);
width = 255;
}
);
unicode = 0060;
},
{
glyphname = Amacron;
layers = (
{
layerId = "04F5D486-D400-49CE-AE86-164151670EAE";
name = Bold;
paths = (
{
closed = 1;
nodes = (
"148 0 LINE",
"213 177 LINE",
"462 177 LINE",
"527 0 LINE",
"673 0 LINE",
"394 710 LINE",
"282 710 LINE",
"2 0 LINE"
);
},
{
closed = 1;
nodes = (
"437 274 LINE",
"236 274 LINE",
"338 561 LINE"
);
},
{
closed = 1;
nodes = (
"489 818 LINE",
"489 901 LINE",
"189 901 LINE",
"189 818 LINE"
);
}
);
width = 675;
}
);
unicode = 0100;
},
{
glyphname = macron;
layers = (
{
layerId = "04F5D486-D400-49CE-AE86-164151670EAE";
name = Bold;
paths = (
{
closed = 1;
nodes = (
"360 633 LINE",
"360 716 LINE",
"60 716 LINE",
"60 633 LINE"
);
}
);
width = 419;
}
);
unicode = 00AF;
},
{
glyphname = Aogonek;
layers = (
{
layerId = "04F5D486-D400-49CE-AE86-164151670EAE";
name = Bold;
paths = (
{
closed = 1;
nodes = (
"653 -130 LINE",
"611 -128 OFFCURVE",
"591 -113 OFFCURVE",
"591 -90 CURVE SMOOTH",
"591 -62 OFFCURVE",
"617 -33 OFFCURVE",
"673 0 CURVE",
"394 710 LINE",
"282 710 LINE",
"2 0 LINE",
"148 0 LINE",
"213 177 LINE",
"462 177 LINE",
"527 0 LINE",
"600 0 LINE",
"546 -34 OFFCURVE",
"519 -72 OFFCURVE",
"519 -109 CURVE SMOOTH",
"519 -150 OFFCURVE",
"555 -185 OFFCURVE",
"625 -196 CURVE"
);
},
{
closed = 1;
nodes = (
"437 274 LINE",
"236 274 LINE",
"338 561 LINE"
);
}
);
width = 675;
}
);
unicode = 0104;
},
{
glyphname = ogonek;
layers = (
{
layerId = "04F5D486-D400-49CE-AE86-164151670EAE";
name = Bold;
paths = (
{
closed = 1;
nodes = (
"199 -130 LINE",
"157 -128 OFFCURVE",
"137 -113 OFFCURVE",
"137 -90 CURVE SMOOTH",
"137 -62 OFFCURVE",
"163 -33 OFFCURVE",
"219 0 CURVE",
"184 21 LINE",
"104 -19 OFFCURVE",
"65 -65 OFFCURVE",
"65 -109 CURVE SMOOTH",
"65 -150 OFFCURVE",
"101 -185 OFFCURVE",
"171 -196 CURVE"
);
}
);
width = 290;
}
);
unicode = 02DB;
},
{
glyphname = Aring;
layers = (
{
layerId = "04F5D486-D400-49CE-AE86-164151670EAE";
name = Bold;
paths = (
{
closed = 1;
nodes = (
"148 0 LINE",
"213 177 LINE",
"462 177 LINE",
"527 0 LINE",
"673 0 LINE",
"394 710 LINE",
"282 710 LINE",
"2 0 LINE"
);
},
{
closed = 1;
nodes = (
"437 274 LINE",
"236 274 LINE",
"338 561 LINE"
);
},
{
closed = 1;
nodes = (
"241 789 OFFCURVE",
"280 761 OFFCURVE",
"338 761 CURVE SMOOTH",
"396 761 OFFCURVE",
"435 789 OFFCURVE",
"435 838 CURVE SMOOTH",
"435 887 OFFCURVE",
"396 915 OFFCURVE",
"338 915 CURVE SMOOTH",
"280 915 OFFCURVE",
"241 887 OFFCURVE",
"241 838 CURVE SMOOTH"
);
},
{
closed = 1;
nodes = (
"361 874 OFFCURVE",
"379 860 OFFCURVE",
"379 838 CURVE SMOOTH",
"379 817 OFFCURVE",
"359 802 OFFCURVE",
"338 802 CURVE SMOOTH",
"315 802 OFFCURVE",
"298 818 OFFCURVE",
"298 838 CURVE SMOOTH",
"298 860 OFFCURVE",
"316 874 OFFCURVE",
"338 874 CURVE SMOOTH"
);
}
);
width = 675;
}
);
unicode = 00C5;
},
{
glyphname = ring;
layers = (
{
layerId = "04F5D486-D400-49CE-AE86-164151670EAE";
name = Bold;
paths = (
{
closed = 1;
nodes = (
"34 604 OFFCURVE",
"73 576 OFFCURVE",
"131 576 CURVE SMOOTH",
"189 576 OFFCURVE",
"228 604 OFFCURVE",
"228 653 CURVE SMOOTH",
"228 702 OFFCURVE",
"189 730 OFFCURVE",
"131 730 CURVE SMOOTH",
"73 730 OFFCURVE",
"34 702 OFFCURVE",
"34 653 CURVE SMOOTH"
);
},
{
closed = 1;
nodes = (
"154 689 OFFCURVE",
"172 675 OFFCURVE",
"172 653 CURVE SMOOTH",
"172 632 OFFCURVE",
"152 617 OFFCURVE",
"131 617 CURVE SMOOTH",
"108 617 OFFCURVE",
"91 633 OFFCURVE",
"91 653 CURVE SMOOTH",
"91 675 OFFCURVE",
"109 689 OFFCURVE",
"131 689 CURVE SMOOTH"
);
}
);
width = 262;
}
);
unicode = 02DA;
},
{
glyphname = Aringacute;
layers = (
{
layerId = "04F5D486-D400-49CE-AE86-164151670EAE";
name = Bold;
paths = (
{
closed = 1;
nodes = (
"476 918 LINE",
"351 918 LINE",
"302 819 LINE",
"264 809 OFFCURVE",
"241 784 OFFCURVE",
"241 746 CURVE SMOOTH",
"241 719 OFFCURVE",
"253 699 OFFCURVE",
"272 686 CURVE",
"2 0 LINE",
"148 0 LINE",
"213 177 LINE",
"462 177 LINE",
"527 0 LINE",
"673 0 LINE",
"403 685 LINE",
"423 698 OFFCURVE",
"435 719 OFFCURVE",
"435 746 CURVE SMOOTH",
"435 774 OFFCURVE",
"421 795 OFFCURVE",
"399 808 CURVE"
);
},
{
closed = 1;
nodes = (
"437 274 LINE",
"236 274 LINE",
"338 561 LINE"
);
},
{
closed = 1;
nodes = (
"361 782 OFFCURVE",
"379 768 OFFCURVE",
"379 746 CURVE SMOOTH",
"379 725 OFFCURVE",
"359 710 OFFCURVE",
"338 710 CURVE SMOOTH",
"315 710 OFFCURVE",
"298 726 OFFCURVE",
"298 746 CURVE SMOOTH",
"298 768 OFFCURVE",
"316 782 OFFCURVE",
"338 782 CURVE SMOOTH"
);
}
);
width = 675;
}
);
unicode = 01FA;
},
{
glyphname = Atilde;
layers = (
{
layerId = "04F5D486-D400-49CE-AE86-164151670EAE";
name = Bold;
paths = (
{
closed = 1;
nodes = (
"148 0 LINE",
"213 177 LINE",
"462 177 LINE",
"527 0 LINE",
"673 0 LINE",
"394 710 LINE",
"282 710 LINE",
"2 0 LINE"
);
},
{
closed = 1;
nodes = (
"437 274 LINE",
"236 274 LINE",
"338 561 LINE"
);
},
{
closed = 1;
nodes = (
"494 787 OFFCURVE",
"524 896 OFFCURVE",
"524 915 CURVE",
"450 915 LINE",
"450 911 OFFCURVE",
"445 865 OFFCURVE",
"397 865 CURVE SMOOTH",
"349 865 OFFCURVE",
"326 912 OFFCURVE",
"265 912 CURVE SMOOTH",
"177 912 OFFCURVE",
"148 809 OFFCURVE",
"148 784 CURVE",
"222 784 LINE",
"222 787 OFFCURVE",
"225 832 OFFCURVE",
"270 832 CURVE SMOOTH",
"314 832 OFFCURVE",
"341 787 OFFCURVE",
"401 787 CURVE SMOOTH"
);
}
);
width = 675;
}
);
unicode = 00C3;
},
{
glyphname = tilde;
layers = (
{
layerId = "04F5D486-D400-49CE-AE86-164151670EAE";
name = Bold;
paths = (
{
closed = 1;
nodes = (
"377 602 OFFCURVE",
"407 711 OFFCURVE",
"407 730 CURVE",
"333 730 LINE",
"333 726 OFFCURVE",
"328 680 OFFCURVE",
"280 680 CURVE SMOOTH",
"232 680 OFFCURVE",
"209 727 OFFCURVE",
"148 727 CURVE SMOOTH",
"60 727 OFFCURVE",
"31 624 OFFCURVE",
"31 599 CURVE",
"105 599 LINE",
"105 602 OFFCURVE",
"108 647 OFFCURVE",
"153 647 CURVE SMOOTH",
"197 647 OFFCURVE",
"224 602 OFFCURVE",
"284 602 CURVE SMOOTH"
);
}
);
width = 437;
}
);
unicode = 02DC;
},
{
glyphname = B;
layers = (
{
layerId = "04F5D486-D400-49CE-AE86-164151670EAE";
name = Bold;
paths = (
{
closed = 1;
nodes = (
"646 276 OFFCURVE",
"595 340 OFFCURVE",
"514 364 CURVE",
"580 393 OFFCURVE",
"616 460 OFFCURVE",
"616 529 CURVE SMOOTH",
"616 618 OFFCURVE",
"554 710 OFFCURVE",
"454 710 CURVE SMOOTH",
"74 710 LINE",
"74 0 LINE",
"417 0 LINE SMOOTH",
"542 0 OFFCURVE",
"646 64 OFFCURVE",
"646 183 CURVE SMOOTH"
);
},
{
closed = 1;
nodes = (
"507 158 OFFCURVE",
"467 117 OFFCURVE",
"417 117 CURVE SMOOTH",
"212 117 LINE",
"212 304 LINE",
"424 304 LINE SMOOTH",
"471 304 OFFCURVE",
"507 261 OFFCURVE",
"507 209 CURVE SMOOTH"
);
},
{
closed = 1;
nodes = (
"402 592 LINE SMOOTH",
"446 592 OFFCURVE",
"480 557 OFFCURVE",
"480 503 CURVE SMOOTH",
"480 447 OFFCURVE",
"442 413 OFFCURVE",
"396 413 CURVE SMOOTH",
"212 413 LINE",
"212 592 LINE"
);
}
);
width = 680;
}
);
unicode = 0042;
},
{
glyphname = B.sc;
layers = (
{
layerId = "04F5D486-D400-49CE-AE86-164151670EAE";
name = Bold;
paths = (
{
closed = 1;
nodes = (
"561 218 OFFCURVE",
"517 268 OFFCURVE",
"447 287 CURVE",
"504 310 OFFCURVE",
"535 362 OFFCURVE",
"535 415 CURVE SMOOTH",
"535 486 OFFCURVE",
"481 559 OFFCURVE",
"396 559 CURVE SMOOTH",
"67 559 LINE",
"67 0 LINE",
"362 0 LINE SMOOTH",
"471 0 OFFCURVE",
"561 49 OFFCURVE",
"561 143 CURVE SMOOTH"
);
},
{
closed = 1;
nodes = (
"439 130 OFFCURVE",
"405 102 OFFCURVE",
"362 102 CURVE SMOOTH",
"188 102 LINE",
"188 235 LINE",
"368 235 LINE SMOOTH",
"409 235 OFFCURVE",
"439 204 OFFCURVE",
"439 168 CURVE SMOOTH"
);
},
{
closed = 1;
nodes = (
"350 455 LINE SMOOTH",
"386 455 OFFCURVE",
"415 432 OFFCURVE",
"415 393 CURVE SMOOTH",
"415 352 OFFCURVE",
"383 330 OFFCURVE",
"345 330 CURVE SMOOTH",
"188 330 LINE",
"188 455 LINE"
);
}
);
width = 596;
}
);
},
{
glyphname = C;
layers = (
{
layerId = "04F5D486-D400-49CE-AE86-164151670EAE";
name = Bold;
paths = (
{
closed = 1;
nodes = (
"32 180 OFFCURVE",
"170 -6 OFFCURVE",
"367 -6 CURVE SMOOTH",
"478 -6 OFFCURVE",
"607 53 OFFCURVE",
"650 159 CURVE",
"537 224 LINE",
"505 147 OFFCURVE",
"432 116 OFFCURVE",
"371 116 CURVE SMOOTH",
"253 116 OFFCURVE",
"171 230 OFFCURVE",
"171 356 CURVE SMOOTH",
"171 469 OFFCURVE",
"237 592 OFFCURVE",
"368 592 CURVE SMOOTH",
"428 592 OFFCURVE",
"500 566 OFFCURVE",
"533 486 CURVE",
"639 559 LINE",
"595 651 OFFCURVE",
"498 714 OFFCURVE",
"372 714 CURVE SMOOTH",
"157 714 OFFCURVE",
"32 533 OFFCURVE",
"32 360 CURVE SMOOTH"
);
}
);
width = 670;
}
);
unicode = 0043;
},
{
glyphname = C.sc;
layers = (
{
layerId = "04F5D486-D400-49CE-AE86-164151670EAE";
name = Bold;
paths = (
{
closed = 1;
nodes = (
"32 141 OFFCURVE",
"153 -5 OFFCURVE",
"324 -5 CURVE SMOOTH",
"422 -5 OFFCURVE",
"534 42 OFFCURVE",
"572 125 CURVE",
"473 184 LINE",
"446 126 OFFCURVE",
"381 103 OFFCURVE",
"328 103 CURVE SMOOTH",
"225 103 OFFCURVE",
"155 186 OFFCURVE",
"155 280 CURVE SMOOTH",
"155 364 OFFCURVE",
"212 454 OFFCURVE",
"326 454 CURVE SMOOTH",
"378 454 OFFCURVE",
"441 436 OFFCURVE",
"470 375 CURVE",
"563 440 LINE",
"525 513 OFFCURVE",
"440 562 OFFCURVE",
"329 562 CURVE SMOOTH",
"141 562 OFFCURVE",
"32 420 OFFCURVE",
"32 284 CURVE SMOOTH"
);
}
);
width = 596;
}
);
},
{
glyphname = Cacute;
layers = (
{
layerId = "04F5D486-D400-49CE-AE86-164151670EAE";
name = Bold;
paths = (
{
closed = 1;
nodes = (
"499 915 LINE",
"374 915 LINE",
"320 796 LINE",
"406 770 LINE"
);
},
{
closed = 1;
nodes = (
"32 180 OFFCURVE",
"170 -6 OFFCURVE",
"367 -6 CURVE SMOOTH",
"478 -6 OFFCURVE",
"607 53 OFFCURVE",
"650 159 CURVE",
"537 224 LINE",
"505 147 OFFCURVE",
"432 116 OFFCURVE",
"371 116 CURVE SMOOTH",
"253 116 OFFCURVE",
"171 230 OFFCURVE",
"171 356 CURVE SMOOTH",
"171 469 OFFCURVE",
"237 592 OFFCURVE",
"368 592 CURVE SMOOTH",
"428 592 OFFCURVE",
"500 566 OFFCURVE",
"533 486 CURVE",
"639 559 LINE",
"595 651 OFFCURVE",
"498 714 OFFCURVE",
"372 714 CURVE SMOOTH",
"157 714 OFFCURVE",
"32 533 OFFCURVE",
"32 360 CURVE SMOOTH"
);
}
);
width = 670;
}
);
unicode = 0106;
},
{
glyphname = Ccaron;
layers = (
{
layerId = "04F5D486-D400-49CE-AE86-164151670EAE";
name = Bold;
paths = (
{
closed = 1;
nodes = (
"217 883 LINE",
"323 782 LINE",
"420 782 LINE",
"526 883 LINE",
"457 915 LINE",
"372 852 LINE",
"287 915 LINE"
);
},
{
closed = 1;
nodes = (
"32 180 OFFCURVE",
"170 -6 OFFCURVE",
"367 -6 CURVE SMOOTH",
"478 -6 OFFCURVE",
"607 53 OFFCURVE",
"650 159 CURVE",
"537 224 LINE",
"505 147 OFFCURVE",
"432 116 OFFCURVE",
"371 116 CURVE SMOOTH",
"253 116 OFFCURVE",
"171 230 OFFCURVE",
"171 356 CURVE SMOOTH",
"171 469 OFFCURVE",
"237 592 OFFCURVE",
"368 592 CURVE SMOOTH",
"428 592 OFFCURVE",
"500 566 OFFCURVE",
"533 486 CURVE",
"639 559 LINE",
"595 651 OFFCURVE",
"498 714 OFFCURVE",
"372 714 CURVE SMOOTH",
"157 714 OFFCURVE",
"32 533 OFFCURVE",
"32 360 CURVE SMOOTH"
);
}
);
width = 670;
}
);
unicode = 010C;
},
{
glyphname = caron;
layers = (
{
layerId = "04F5D486-D400-49CE-AE86-164151670EAE";
name = Bold;
paths = (
{
closed = 1;
nodes = (
"30 698 LINE",
"136 597 LINE",
"233 597 LINE",
"339 698 LINE",
"270 730 LINE",
"185 667 LINE",
"100 730 LINE"
);
}
);
width = 369;
}
);
unicode = 02C7;
},
{
glyphname = Ccedilla;
layers = (
{
layerId = "04F5D486-D400-49CE-AE86-164151670EAE";
name = Bold;
paths = (
{
closed = 1;
nodes = (
"262 -176 LINE",
"289 -187 OFFCURVE",
"325 -196 OFFCURVE",
"369 -196 CURVE SMOOTH",
"455 -196 OFFCURVE",
"497 -159 OFFCURVE",
"497 -108 CURVE SMOOTH",
"497 -59 OFFCURVE",
"459 -38 OFFCURVE",
"412 -38 CURVE SMOOTH",
"402 -38 OFFCURVE",
"389 -39 OFFCURVE",
"380 -42 CURVE",
"404 -4 LINE",
"506 7 OFFCURVE",
"612 64 OFFCURVE",
"651 159 CURVE",
"538 224 LINE",
"506 147 OFFCURVE",
"433 116 OFFCURVE",
"372 116 CURVE SMOOTH",
"254 116 OFFCURVE",
"172 230 OFFCURVE",
"172 356 CURVE SMOOTH",
"172 469 OFFCURVE",
"238 592 OFFCURVE",
"369 592 CURVE SMOOTH",
"429 592 OFFCURVE",
"501 566 OFFCURVE",
"534 486 CURVE",
"640 559 LINE",
"596 651 OFFCURVE",
"499 714 OFFCURVE",
"373 714 CURVE SMOOTH",
"158 714 OFFCURVE",
"33 533 OFFCURVE",
"33 360 CURVE SMOOTH",
"33 187 OFFCURVE",
"161 8 OFFCURVE",
"346 -5 CURVE",
"302 -92 LINE",
"318 -88 OFFCURVE",
"354 -80 OFFCURVE",
"382 -80 CURVE SMOOTH",
"413 -80 OFFCURVE",
"434 -89 OFFCURVE",
"434 -113 CURVE SMOOTH",
"434 -137 OFFCURVE",
"412 -146 OFFCURVE",
"378 -146 CURVE SMOOTH",
"342 -146 OFFCURVE",
"305 -136 OFFCURVE",
"289 -127 CURVE"
);
}
);
width = 671;
}
);
unicode = 00C7;
},
{
glyphname = cedilla;
layers = (
{
layerId = "04F5D486-D400-49CE-AE86-164151670EAE";
name = Bold;
paths = (
{
closed = 1;
nodes = (
"21 -176 LINE",
"48 -187 OFFCURVE",
"84 -196 OFFCURVE",
"128 -196 CURVE SMOOTH",
"214 -196 OFFCURVE",
"256 -159 OFFCURVE",
"256 -108 CURVE SMOOTH",
"256 -59 OFFCURVE",
"218 -38 OFFCURVE",
"171 -38 CURVE SMOOTH",
"161 -38 OFFCURVE",
"148 -39 OFFCURVE",
"139 -42 CURVE",
"174 12 LINE",
"122 28 LINE",
"61 -92 LINE",
"77 -88 OFFCURVE",
"113 -80 OFFCURVE",
"141 -80 CURVE SMOOTH",
"172 -80 OFFCURVE",
"193 -89 OFFCURVE",
"193 -113 CURVE SMOOTH",
"193 -137 OFFCURVE",
"171 -146 OFFCURVE",
"137 -146 CURVE SMOOTH",
"101 -146 OFFCURVE",
"64 -136 OFFCURVE",
"48 -127 CURVE"
);
}
);
width = 326;
}
);
unicode = 00B8;
},
{
glyphname = Ccircumflex;
layers = (
{
layerId = "04F5D486-D400-49CE-AE86-164151670EAE";
name = Bold;
paths = (
{
closed = 1;
nodes = (
"287 782 LINE",
"372 845 LINE",
"457 782 LINE",
"526 814 LINE",
"420 915 LINE",
"323 915 LINE",
"217 814 LINE"
);
},
{
closed = 1;
nodes = (
"32 180 OFFCURVE",
"170 -6 OFFCURVE",
"367 -6 CURVE SMOOTH",
"478 -6 OFFCURVE",
"607 53 OFFCURVE",
"650 159 CURVE",
"537 224 LINE",
"505 147 OFFCURVE",
"432 116 OFFCURVE",
"371 116 CURVE SMOOTH",
"253 116 OFFCURVE",
"171 230 OFFCURVE",
"171 356 CURVE SMOOTH",
"171 469 OFFCURVE",
"237 592 OFFCURVE",
"368 592 CURVE SMOOTH",
"428 592 OFFCURVE",
"500 566 OFFCURVE",
"533 486 CURVE",
"639 559 LINE",
"595 651 OFFCURVE",
"498 714 OFFCURVE",
"372 714 CURVE SMOOTH",
"157 714 OFFCURVE",
"32 533 OFFCURVE",
"32 360 CURVE SMOOTH"
);
}
);
width = 670;
}
);
unicode = 0108;
},
{
glyphname = Cdotaccent;
layers = (
{
layerId = "04F5D486-D400-49CE-AE86-164151670EAE";
name = Bold;
paths = (
{
closed = 1;
nodes = (
"32 180 OFFCURVE",
"170 -6 OFFCURVE",
"367 -6 CURVE SMOOTH",
"478 -6 OFFCURVE",
"607 53 OFFCURVE",
"650 159 CURVE",
"537 224 LINE",
"505 147 OFFCURVE",
"432 116 OFFCURVE",
"371 116 CURVE SMOOTH",
"253 116 OFFCURVE",
"171 230 OFFCURVE",
"171 356 CURVE SMOOTH",
"171 469 OFFCURVE",
"237 592 OFFCURVE",
"368 592 CURVE SMOOTH",
"428 592 OFFCURVE",
"500 566 OFFCURVE",
"533 486 CURVE",
"639 559 LINE",
"595 651 OFFCURVE",
"498 714 OFFCURVE",
"372 714 CURVE SMOOTH",
"157 714 OFFCURVE",
"32 533 OFFCURVE",
"32 360 CURVE SMOOTH"
);
},
{
closed = 1;
nodes = (
"432 789 LINE",
"432 915 LINE",
"311 915 LINE",
"311 789 LINE"
);
}
);
width = 670;
}
);
unicode = 010A;
},
{
glyphname = dotaccent;
layers = (
{
layerId = "04F5D486-D400-49CE-AE86-164151670EAE";
name = Bold;
paths = (
{
closed = 1;
nodes = (
"171 604 LINE",
"171 730 LINE",
"50 730 LINE",
"50 604 LINE"
);
}
);
width = 221;
}
);
unicode = 02D9;
},
{
glyphname = D;
layers = (
{
layerId = "04F5D486-D400-49CE-AE86-164151670EAE";
name = Bold;
paths = (
{
closed = 1;
nodes = (
"332 0 LINE SMOOTH",
"545 0 OFFCURVE",
"682 141 OFFCURVE",
"682 356 CURVE SMOOTH",
"682 552 OFFCURVE",
"564 710 OFFCURVE",
"332 710 CURVE SMOOTH",
"74 710 LINE",
"74 0 LINE"
);
},
{
closed = 1;
nodes = (
"543 222 OFFCURVE",
"468 121 OFFCURVE",
"332 121 CURVE SMOOTH",
"212 121 LINE",
"212 589 LINE",
"332 589 LINE SMOOTH",
"466 589 OFFCURVE",
"543 493 OFFCURVE",
"543 356 CURVE SMOOTH"
);
}
);
width = 718;
}
);
unicode = 0044;
},
{
glyphname = D.sc;
layers = (
{
layerId = "04F5D486-D400-49CE-AE86-164151670EAE";
name = Bold;
paths = (
{
closed = 1;
nodes = (
"293 0 LINE SMOOTH",
"478 0 OFFCURVE",
"599 111 OFFCURVE",
"599 281 CURVE SMOOTH",
"599 435 OFFCURVE",
"495 559 OFFCURVE",
"293 559 CURVE SMOOTH",
"67 559 LINE",
"67 0 LINE"
);
},
{
closed = 1;
nodes = (
"476 180 OFFCURVE",
"412 106 OFFCURVE",
"293 106 CURVE SMOOTH",
"188 106 LINE",
"188 453 LINE",
"293 453 LINE SMOOTH",
"409 453 OFFCURVE",
"476 382 OFFCURVE",
"476 281 CURVE SMOOTH"
);
}
);
width = 633;
}
);
},
{
glyphname = Dcaron;
layers = (
{
layerId = "04F5D486-D400-49CE-AE86-164151670EAE";
name = Bold;
paths = (
{
closed = 1;
nodes = (
"175 883 LINE",
"281 782 LINE",
"378 782 LINE",
"484 883 LINE",
"415 915 LINE",
"330 852 LINE",
"245 915 LINE"
);
},
{
closed = 1;
nodes = (
"332 0 LINE SMOOTH",
"545 0 OFFCURVE",
"682 141 OFFCURVE",
"682 356 CURVE SMOOTH",
"682 552 OFFCURVE",
"564 710 OFFCURVE",
"332 710 CURVE SMOOTH",
"74 710 LINE",
"74 0 LINE"
);
},
{
closed = 1;
nodes = (
"543 222 OFFCURVE",
"468 121 OFFCURVE",
"332 121 CURVE SMOOTH",
"212 121 LINE",
"212 589 LINE",
"332 589 LINE SMOOTH",
"466 589 OFFCURVE",
"543 493 OFFCURVE",
"543 356 CURVE SMOOTH"
);
}
);
width = 718;
}
);
unicode = 010E;
},
{
glyphname = Dcroat;
layers = (
{
layerId = "04F5D486-D400-49CE-AE86-164151670EAE";
name = Bold;
paths = (
{
closed = 1;
nodes = (
"337 0 LINE SMOOTH",
"550 0 OFFCURVE",
"687 141 OFFCURVE",
"687 356 CURVE SMOOTH",
"687 552 OFFCURVE",
"569 710 OFFCURVE",
"337 710 CURVE SMOOTH",
"79 710 LINE",
"79 407 LINE",
"31 407 LINE",
"31 307 LINE",
"79 307 LINE",
"79 0 LINE"
);
},
{
closed = 1;
nodes = (
"548 222 OFFCURVE",
"473 121 OFFCURVE",
"337 121 CURVE SMOOTH",
"217 121 LINE",
"217 307 LINE",
"356 307 LINE",
"356 407 LINE",
"217 407 LINE",
"217 589 LINE",
"337 589 LINE SMOOTH",
"471 589 OFFCURVE",
"548 493 OFFCURVE",
"548 356 CURVE SMOOTH"
);
}
);
width = 722;
}
);
unicode = 0110;
},
{
glyphname = E;
layers = (
{
layerId = "04F5D486-D400-49CE-AE86-164151670EAE";
name = Bold;
paths = (
{
closed = 1;
nodes = (
"212 121 LINE",
"212 306 LINE",
"511 306 LINE",
"511 418 LINE",
"212 418 LINE",
"212 589 LINE",
"558 589 LINE",
"558 710 LINE",
"74 710 LINE",
"74 0 LINE",
"567 0 LINE",
"567 121 LINE"
);
}
);
width = 604;
}
);
unicode = 0045;
},
{
glyphname = E.sc;
layers = (
{
layerId = "04F5D486-D400-49CE-AE86-164151670EAE";
name = Bold;
paths = (
{
closed = 1;
nodes = (
"188 106 LINE",
"188 235 LINE",
"449 235 LINE",
"449 334 LINE",
"188 334 LINE",
"188 453 LINE",
"490 453 LINE",
"490 559 LINE",
"67 559 LINE",
"67 0 LINE",
"498 0 LINE",
"498 106 LINE"
);
}
);
width = 537;
}
);
},
{
glyphname = Eacute;
layers = (
{
layerId = "04F5D486-D400-49CE-AE86-164151670EAE";
name = Bold;
paths = (
{
closed = 1;
nodes = (
"454 915 LINE",
"329 915 LINE",
"275 796 LINE",
"361 770 LINE"
);
},
{
closed = 1;
nodes = (
"212 121 LINE",
"212 306 LINE",
"511 306 LINE",
"511 418 LINE",
"212 418 LINE",
"212 589 LINE",
"558 589 LINE",
"558 710 LINE",
"74 710 LINE",
"74 0 LINE",
"567 0 LINE",
"567 121 LINE"
);
}
);
width = 604;
}
);
unicode = 00C9;
},
{
glyphname = Ebreve;
layers = (
{
layerId = "04F5D486-D400-49CE-AE86-164151670EAE";
name = Bold;
paths = (
{
closed = 1;
nodes = (
"212 121 LINE",
"212 306 LINE",
"511 306 LINE",
"511 418 LINE",
"212 418 LINE",
"212 589 LINE",
"558 589 LINE",
"558 710 LINE",
"74 710 LINE",
"74 0 LINE",
"567 0 LINE",
"567 121 LINE"
);
},
{
closed = 1;
nodes = (
"295 841 OFFCURVE",
"267 875 OFFCURVE",
"267 915 CURVE",
"195 915 LINE",
"195 838 OFFCURVE",
"250 781 OFFCURVE",
"326 781 CURVE SMOOTH",
"402 781 OFFCURVE",
"457 838 OFFCURVE",
"457 915 CURVE",
"386 915 LINE",
"382 872 OFFCURVE",
"356 841 OFFCURVE",
"326 841 CURVE SMOOTH"
);
}
);
width = 604;
}
);
unicode = 0114;
},
{
glyphname = Ecaron;
layers = (
{
layerId = "04F5D486-D400-49CE-AE86-164151670EAE";
name = Bold;
paths = (
{
closed = 1;
nodes = (
"171 883 LINE",
"277 782 LINE",
"374 782 LINE",
"480 883 LINE",
"411 915 LINE",
"326 852 LINE",
"241 915 LINE"
);
},
{
closed = 1;
nodes = (
"212 121 LINE",
"212 306 LINE",
"511 306 LINE",
"511 418 LINE",
"212 418 LINE",
"212 589 LINE",
"558 589 LINE",
"558 710 LINE",
"74 710 LINE",
"74 0 LINE",
"567 0 LINE",
"567 121 LINE"
);
}
);
width = 604;
}
);
unicode = 011A;
},
{
glyphname = Ecircumflex;
layers = (
{
layerId = "04F5D486-D400-49CE-AE86-164151670EAE";
name = Bold;
paths = (
{
closed = 1;
nodes = (
"241 782 LINE",
"326 845 LINE",
"411 782 LINE",
"480 814 LINE",
"374 915 LINE",
"277 915 LINE",
"171 814 LINE"
);
},
{
closed = 1;
nodes = (
"212 121 LINE",
"212 306 LINE",
"511 306 LINE",
"511 418 LINE",
"212 418 LINE",
"212 589 LINE",
"558 589 LINE",
"558 710 LINE",
"74 710 LINE",
"74 0 LINE",
"567 0 LINE",
"567 121 LINE"
);
}
);
width = 604;
}
);
unicode = 00CA;
},
{
glyphname = Edieresis;
layers = (
{
layerId = "04F5D486-D400-49CE-AE86-164151670EAE";
name = Bold;
paths = (
{
closed = 1;
nodes = (
"285 790 LINE",
"285 909 LINE",
"174 909 LINE",
"174 790 LINE"
);
},
{
closed = 1;
nodes = (
"477 790 LINE",
"477 909 LINE",
"366 909 LINE",
"366 790 LINE"
);
},
{
closed = 1;
nodes = (
"212 121 LINE",
"212 306 LINE",
"511 306 LINE",
"511 418 LINE",
"212 418 LINE",
"212 589 LINE",
"558 589 LINE",
"558 710 LINE",
"74 710 LINE",
"74 0 LINE",
"567 0 LINE",
"567 121 LINE"
);
}
);
width = 604;
}
);
unicode = 00CB;
},
{
glyphname = Edotaccent;
layers = (
{
layerId = "04F5D486-D400-49CE-AE86-164151670EAE";
name = Bold;
paths = (
{
closed = 1;
nodes = (
"212 121 LINE",
"212 306 LINE",
"511 306 LINE",
"511 418 LINE",
"212 418 LINE",
"212 589 LINE",
"558 589 LINE",
"558 710 LINE",
"74 710 LINE",
"74 0 LINE",
"567 0 LINE",
"567 121 LINE"
);
},
{
closed = 1;
nodes = (
"387 789 LINE",
"387 915 LINE",
"266 915 LINE",
"266 789 LINE"
);
}
);
width = 604;
}
);
unicode = 0116;
},
{
glyphname = Egrave;
layers = (
{
layerId = "04F5D486-D400-49CE-AE86-164151670EAE";
name = Bold;
paths = (
{
closed = 1;
nodes = (
"212 121 LINE",
"212 306 LINE",
"511 306 LINE",
"511 418 LINE",
"212 418 LINE",
"212 589 LINE",
"558 589 LINE",
"558 710 LINE",
"74 710 LINE",
"74 0 LINE",
"567 0 LINE",
"567 121 LINE"
);
},
{
closed = 1;
nodes = (
"291 771 LINE",
"377 797 LINE",
"322 916 LINE",
"198 916 LINE"
);
}
);
width = 604;
}
);
unicode = 00C8;
},
{
glyphname = Emacron;
layers = (
{
layerId = "04F5D486-D400-49CE-AE86-164151670EAE";
name = Bold;
paths = (
{
closed = 1;
nodes = (
"212 121 LINE",
"212 306 LINE",
"511 306 LINE",
"511 418 LINE",
"212 418 LINE",
"212 589 LINE",
"558 589 LINE",
"558 710 LINE",
"74 710 LINE",
"74 0 LINE",
"567 0 LINE",
"567 121 LINE"
);
},
{
closed = 1;
nodes = (
"477 818 LINE",
"477 901 LINE",
"177 901 LINE",
"177 818 LINE"
);
}
);
width = 604;
}
);
unicode = 0112;
},
{
glyphname = Eng;
layers = (
{
layerId = "04F5D486-D400-49CE-AE86-164151670EAE";
name = Bold;
paths = (
{
closed = 1;
nodes = (
"541 28 LINE",
"541 -14 LINE SMOOTH",
"541 -53 OFFCURVE",
"511 -80 OFFCURVE",
"476 -80 CURVE SMOOTH",
"455 -80 OFFCURVE",
"433 -73 OFFCURVE",
"418 -58 CURVE",
"360 -149 LINE",
"396 -181 OFFCURVE",
"443 -196 OFFCURVE",
"493 -196 CURVE SMOOTH",
"592 -196 OFFCURVE",
"675 -121 OFFCURVE",
"675 -9 CURVE SMOOTH",
"675 709 LINE",
"538 709 LINE",
"538 250 LINE",
"180 710 LINE",
"74 710 LINE",
"74 0 LINE",
"212 0 LINE",
"212 451 LINE"
);
}
);
width = 749;
}
);
unicode = 014A;
},
{
glyphname = Eogonek;
layers = (
{
layerId = "04F5D486-D400-49CE-AE86-164151670EAE";
name = Bold;
paths = (
{
closed = 1;
nodes = (
"212 121 LINE",
"212 306 LINE",
"511 306 LINE",
"511 418 LINE",
"212 418 LINE",
"212 589 LINE",
"558 589 LINE",
"558 710 LINE",
"74 710 LINE",
"74 0 LINE",
"285 0 LINE",
"231 -34 OFFCURVE",
"204 -72 OFFCURVE",
"204 -109 CURVE SMOOTH",
"204 -150 OFFCURVE",
"240 -185 OFFCURVE",
"310 -196 CURVE",
"338 -130 LINE",
"296 -128 OFFCURVE",
"276 -113 OFFCURVE",
"276 -90 CURVE SMOOTH",
"276 -62 OFFCURVE",
"302 -33 OFFCURVE",
"358 0 CURVE",
"567 0 LINE",
"567 121 LINE"
);
}
);
width = 604;
}
);
unicode = 0118;
},
{
glyphname = Eth;
layers = (
{
layerId = "04F5D486-D400-49CE-AE86-164151670EAE";
name = Bold;
paths = (
{
closed = 1;
nodes = (
"337 0 LINE SMOOTH",
"550 0 OFFCURVE",
"687 141 OFFCURVE",
"687 356 CURVE SMOOTH",
"687 552 OFFCURVE",
"569 710 OFFCURVE",
"337 710 CURVE SMOOTH",
"79 710 LINE",
"79 407 LINE",
"31 407 LINE",
"31 307 LINE",
"79 307 LINE",
"79 0 LINE"
);
},
{
closed = 1;
nodes = (
"548 222 OFFCURVE",
"473 121 OFFCURVE",
"337 121 CURVE SMOOTH",
"217 121 LINE",
"217 307 LINE",
"356 307 LINE",
"356 407 LINE",
"217 407 LINE",
"217 589 LINE",
"337 589 LINE SMOOTH",
"471 589 OFFCURVE",
"548 493 OFFCURVE",
"548 356 CURVE SMOOTH"
);
}
);
width = 722;
}
);
unicode = 00D0;
},
{
glyphname = Etilde;
layers = (
{
layerId = "04F5D486-D400-49CE-AE86-164151670EAE";
name = Bold;
paths = (
{
closed = 1;
nodes = (
"212 121 LINE",
"212 306 LINE",
"511 306 LINE",
"511 418 LINE",
"212 418 LINE",
"212 589 LINE",
"558 589 LINE",
"558 710 LINE",
"74 710 LINE",
"74 0 LINE",
"567 0 LINE",
"567 121 LINE"
);
},
{
closed = 1;
nodes = (
"482 787 OFFCURVE",
"512 896 OFFCURVE",
"512 915 CURVE",
"438 915 LINE",
"438 911 OFFCURVE",
"433 865 OFFCURVE",
"385 865 CURVE SMOOTH",
"337 865 OFFCURVE",
"314 912 OFFCURVE",
"253 912 CURVE SMOOTH",
"165 912 OFFCURVE",
"136 809 OFFCURVE",
"136 784 CURVE",
"210 784 LINE",
"210 787 OFFCURVE",
"213 832 OFFCURVE",
"258 832 CURVE SMOOTH",
"302 832 OFFCURVE",
"329 787 OFFCURVE",
"389 787 CURVE SMOOTH"
);
}
);
width = 604;
}
);
unicode = 1EBC;
},
{
glyphname = Euro;
layers = (
{
layerId = "04F5D486-D400-49CE-AE86-164151670EAE";
name = Bold;
paths = (
{
closed = 1;
nodes = (
"77 436 LINE",
"47 363 LINE",
"118 363 LINE",
"118 343 OFFCURVE",
"119 327 OFFCURVE",
"121 311 CURVE",
"64 311 LINE",
"34 237 LINE",
"139 237 LINE",
"185 104 OFFCURVE",
"301 -6 OFFCURVE",
"453 -6 CURVE SMOOTH",
"564 -6 OFFCURVE",
"693 53 OFFCURVE",
"736 159 CURVE",
"623 224 LINE",
"591 147 OFFCURVE",
"518 116 OFFCURVE",
"457 116 CURVE SMOOTH",
"378 116 OFFCURVE",
"316 166 OFFCURVE",
"283 237 CURVE",
"465 237 LINE",
"495 311 LINE",
"260 311 LINE",
"258 325 OFFCURVE",
"257 341 OFFCURVE",
"257 363 CURVE",
"497 363 LINE",
"527 436 LINE",
"268 436 LINE",
"291 520 OFFCURVE",
"354 592 OFFCURVE",
"454 592 CURVE SMOOTH",
"514 592 OFFCURVE",
"586 566 OFFCURVE",
"619 486 CURVE",
"725 559 LINE",
"681 651 OFFCURVE",
"584 714 OFFCURVE",
"458 714 CURVE SMOOTH",
"274 714 OFFCURVE",
"156 582 OFFCURVE",
"126 436 CURVE"
);
}
);
width = 780;
}
);
unicode = 20AC;
},
{
glyphname = F;
layers = (
{
layerId = "04F5D486-D400-49CE-AE86-164151670EAE";
name = Bold;
paths = (
{
closed = 1;
nodes = (
"212 0 LINE",
"212 294 LINE",
"494 294 LINE",
"494 406 LINE",
"212 406 LINE",
"212 589 LINE",
"551 589 LINE",
"551 710 LINE",
"74 710 LINE",
"74 0 LINE"
);
}
);
width = 571;
}
);
unicode = 0046;
},
{
glyphname = F.sc;
layers = (
{
layerId = "04F5D486-D400-49CE-AE86-164151670EAE";
name = Bold;
paths = (
{
closed = 1;
nodes = (
"188 0 LINE",
"188 224 LINE",
"435 224 LINE",
"435 323 LINE",
"188 323 LINE",
"188 453 LINE",
"484 453 LINE",
"484 559 LINE",
"67 559 LINE",
"67 0 LINE"
);
}
);
width = 506;
}
);
},
{
glyphname = G;
layers = (
{
layerId = "04F5D486-D400-49CE-AE86-164151670EAE";
name = Bold;
paths = (
{
closed = 1;
nodes = (
"550 0 LINE",
"664 0 LINE",
"664 365 LINE",
"407 365 LINE",
"407 264 LINE",
"550 264 LINE",
"550 214 LINE",
"497 149 OFFCURVE",
"438 117 OFFCURVE",
"373 117 CURVE SMOOTH",
"257 117 OFFCURVE",
"172 221 OFFCURVE",
"172 355 CURVE SMOOTH",
"172 483 OFFCURVE",
"249 593 OFFCURVE",
"365 593 CURVE SMOOTH",
"438 593 OFFCURVE",
"503 554 OFFCURVE",
"537 484 CURVE",
"640 560 LINE",
"594 654 OFFCURVE",
"499 715 OFFCURVE",
"370 715 CURVE SMOOTH",
"178 715 OFFCURVE",
"33 553 OFFCURVE",
"33 359 CURVE SMOOTH",
"33 169 OFFCURVE",
"179 -5 OFFCURVE",
"361 -5 CURVE SMOOTH",
"433 -5 OFFCURVE",
"494 22 OFFCURVE",
"550 80 CURVE"
);
}
);
width = 709;
}
);
unicode = 0047;
},
{
glyphname = G.alt;
layers = (
{
layerId = "04F5D486-D400-49CE-AE86-164151670EAE";
name = Bold;
paths = (
{
closed = 1;
nodes = (
"567 -5 OFFCURVE",
"692 139 OFFCURVE",
"699 308 CURVE",
"699 312 OFFCURVE",
"700 373 OFFCURVE",
"700 375 CURVE",
"395 375 LINE",
"395 255 LINE",
"551 255 LINE",
"532 184 OFFCURVE",
"461 117 OFFCURVE",
"369 117 CURVE SMOOTH",
"239 117 OFFCURVE",
"172 242 OFFCURVE",
"172 355 CURVE SMOOTH",
"172 473 OFFCURVE",
"243 593 OFFCURVE",
"369 593 CURVE SMOOTH",
"464 593 OFFCURVE",
"518 519 OFFCURVE",
"540 480 CURVE",
"649 566 LINE",
"594 659 OFFCURVE",
"498 715 OFFCURVE",
"377 715 CURVE SMOOTH",
"167 715 OFFCURVE",
"32 542 OFFCURVE",
"32 359 CURVE SMOOTH",
"32 172 OFFCURVE",
"176 -5 OFFCURVE",
"382 -5 CURVE SMOOTH"
);
}
);
width = 722;
}
);
},
{
glyphname = G.sc;
layers = (
{
layerId = "04F5D486-D400-49CE-AE86-164151670EAE";
name = Bold;
paths = (
{
closed = 1;
nodes = (
"478 0 LINE",
"578 0 LINE",
"578 290 LINE",
"354 290 LINE",
"354 202 LINE",
"478 202 LINE",
"478 175 LINE",
"433 128 OFFCURVE",
"381 104 OFFCURVE",
"327 104 CURVE SMOOTH",
"228 104 OFFCURVE",
"155 179 OFFCURVE",
"155 279 CURVE SMOOTH",
"155 375 OFFCURVE",
"221 455 OFFCURVE",
"320 455 CURVE SMOOTH",
"382 455 OFFCURVE",
"438 425 OFFCURVE",
"466 373 CURVE",
"558 441 LINE",
"518 515 OFFCURVE",
"435 563 OFFCURVE",
"324 563 CURVE SMOOTH",
"158 563 OFFCURVE",
"33 437 OFFCURVE",
"33 283 CURVE SMOOTH",
"33 132 OFFCURVE",
"159 -4 OFFCURVE",
"316 -4 CURVE SMOOTH",
"378 -4 OFFCURVE",
"430 15 OFFCURVE",
"478 57 CURVE"
);
}
);
width = 622;
}
);
},
{
glyphname = Gbreve;
layers = (
{
layerId = "04F5D486-D400-49CE-AE86-164151670EAE";
name = Bold;
paths = (
{
closed = 1;
nodes = (
"550 0 LINE",
"664 0 LINE",
"664 365 LINE",
"407 365 LINE",
"407 264 LINE",
"550 264 LINE",
"550 214 LINE",
"497 149 OFFCURVE",
"438 117 OFFCURVE",
"373 117 CURVE SMOOTH",
"257 117 OFFCURVE",
"172 221 OFFCURVE",
"172 355 CURVE SMOOTH",
"172 483 OFFCURVE",
"249 593 OFFCURVE",
"365 593 CURVE SMOOTH",
"438 593 OFFCURVE",
"503 554 OFFCURVE",
"537 484 CURVE",
"640 560 LINE",
"594 654 OFFCURVE",
"499 715 OFFCURVE",
"370 715 CURVE SMOOTH",
"178 715 OFFCURVE",
"33 553 OFFCURVE",
"33 359 CURVE SMOOTH",
"33 169 OFFCURVE",
"179 -5 OFFCURVE",
"361 -5 CURVE SMOOTH",
"433 -5 OFFCURVE",
"494 22 OFFCURVE",
"550 80 CURVE"
);
},
{
closed = 1;
nodes = (
"338 841 OFFCURVE",
"310 875 OFFCURVE",
"310 915 CURVE",
"238 915 LINE",
"238 838 OFFCURVE",
"293 781 OFFCURVE",
"369 781 CURVE SMOOTH",
"445 781 OFFCURVE",
"500 838 OFFCURVE",
"500 915 CURVE",
"429 915 LINE",
"425 872 OFFCURVE",
"399 841 OFFCURVE",
"369 841 CURVE SMOOTH"
);
}
);
width = 709;
}
);
unicode = 011E;
},
{
glyphname = Gcircumflex;
layers = (
{
layerId = "04F5D486-D400-49CE-AE86-164151670EAE";
name = Bold;
paths = (
{
closed = 1;
nodes = (
"284 782 LINE",
"369 845 LINE",
"454 782 LINE",
"523 814 LINE",
"417 915 LINE",
"320 915 LINE",
"214 814 LINE"
);
},
{
closed = 1;
nodes = (
"550 0 LINE",
"664 0 LINE",
"664 365 LINE",
"407 365 LINE",
"407 264 LINE",
"550 264 LINE",
"550 214 LINE",
"497 149 OFFCURVE",
"438 117 OFFCURVE",
"373 117 CURVE SMOOTH",
"257 117 OFFCURVE",
"172 221 OFFCURVE",
"172 355 CURVE SMOOTH",
"172 483 OFFCURVE",
"249 593 OFFCURVE",
"365 593 CURVE SMOOTH",
"438 593 OFFCURVE",
"503 554 OFFCURVE",
"537 484 CURVE",
"640 560 LINE",
"594 654 OFFCURVE",
"499 715 OFFCURVE",
"370 715 CURVE SMOOTH",
"178 715 OFFCURVE",
"33 553 OFFCURVE",
"33 359 CURVE SMOOTH",
"33 169 OFFCURVE",
"179 -5 OFFCURVE",
"361 -5 CURVE SMOOTH",
"433 -5 OFFCURVE",
"494 22 OFFCURVE",
"550 80 CURVE"
);
}
);
width = 709;
}
);
unicode = 011C;
},
{
glyphname = Gcommaaccent;
layers = (
{
layerId = "04F5D486-D400-49CE-AE86-164151670EAE";
name = Bold;
paths = (
{
closed = 1;
nodes = (
"280 -191 LINE",
"361 -191 OFFCURVE",
"422 -182 OFFCURVE",
"422 -116 CURVE SMOOTH",
"422 -47 LINE",
"313 -47 LINE",
"313 -111 LINE SMOOTH",
"313 -129 OFFCURVE",
"302 -136 OFFCURVE",
"280 -136 CURVE"
);
},
{
closed = 1;
nodes = (
"550 0 LINE",
"664 0 LINE",
"664 365 LINE",
"407 365 LINE",
"407 264 LINE",
"550 264 LINE",
"550 214 LINE",
"497 149 OFFCURVE",
"438 117 OFFCURVE",
"373 117 CURVE SMOOTH",
"257 117 OFFCURVE",
"172 221 OFFCURVE",
"172 355 CURVE SMOOTH",
"172 483 OFFCURVE",
"249 593 OFFCURVE",
"365 593 CURVE SMOOTH",
"438 593 OFFCURVE",
"503 554 OFFCURVE",
"537 484 CURVE",
"640 560 LINE",
"594 654 OFFCURVE",
"499 715 OFFCURVE",
"370 715 CURVE SMOOTH",
"178 715 OFFCURVE",
"33 553 OFFCURVE",
"33 359 CURVE SMOOTH",
"33 169 OFFCURVE",
"179 -5 OFFCURVE",
"361 -5 CURVE SMOOTH",
"433 -5 OFFCURVE",
"494 22 OFFCURVE",
"550 80 CURVE"
);
}
);
width = 709;
}
);
unicode = 0122;
},
{
glyphname = commaaccent;
layers = (
{
layerId = "04F5D486-D400-49CE-AE86-164151670EAE";
name = Bold;
paths = (
{
closed = 1;
nodes = (
"32 -191 LINE",
"113 -191 OFFCURVE",
"174 -182 OFFCURVE",
"174 -116 CURVE SMOOTH",
"174 -47 LINE",
"65 -47 LINE",
"65 -111 LINE SMOOTH",
"65 -129 OFFCURVE",
"54 -136 OFFCURVE",
"32 -136 CURVE"
);
}
);
width = 201;
}
);
unicode = F6C3;
},
{
glyphname = Gdotaccent;
layers = (
{
layerId = "04F5D486-D400-49CE-AE86-164151670EAE";
name = Bold;
paths = (
{
closed = 1;
nodes = (
"550 0 LINE",
"664 0 LINE",
"664 365 LINE",
"407 365 LINE",
"407 264 LINE",
"550 264 LINE",
"550 214 LINE",
"497 149 OFFCURVE",
"438 117 OFFCURVE",
"373 117 CURVE SMOOTH",
"257 117 OFFCURVE",
"172 221 OFFCURVE",
"172 355 CURVE SMOOTH",
"172 483 OFFCURVE",
"249 593 OFFCURVE",
"365 593 CURVE SMOOTH",
"438 593 OFFCURVE",
"503 554 OFFCURVE",
"537 484 CURVE",
"640 560 LINE",
"594 654 OFFCURVE",
"499 715 OFFCURVE",
"370 715 CURVE SMOOTH",
"178 715 OFFCURVE",
"33 553 OFFCURVE",
"33 359 CURVE SMOOTH",
"33 169 OFFCURVE",
"179 -5 OFFCURVE",
"361 -5 CURVE SMOOTH",
"433 -5 OFFCURVE",
"494 22 OFFCURVE",
"550 80 CURVE"
);
},
{
closed = 1;
nodes = (
"429 789 LINE",
"429 915 LINE",
"308 915 LINE",
"308 789 LINE"
);
}
);
width = 709;
}
);
unicode = 0120;
},
{
glyphname = H;
layers = (
{
layerId = "04F5D486-D400-49CE-AE86-164151670EAE";
name = Bold;
paths = (
{
closed = 1;
nodes = (
"534 710 LINE",
"534 423 LINE",
"212 423 LINE",
"212 710 LINE",
"74 710 LINE",
"74 0 LINE",
"212 0 LINE",
"212 303 LINE",
"534 303 LINE",
"534 0 LINE",
"671 0 LINE",
"671 710 LINE"
);
}
);
width = 745;
}
);
unicode = 0048;
},
{
glyphname = H.sc;
layers = (
{
layerId = "04F5D486-D400-49CE-AE86-164151670EAE";
name = Bold;
paths = (
{
closed = 1;
nodes = (
"468 559 LINE",
"468 339 LINE",
"188 339 LINE",
"188 559 LINE",
"67 559 LINE",
"67 0 LINE",
"188 0 LINE",
"188 232 LINE",
"468 232 LINE",
"468 0 LINE",
"588 0 LINE",
"588 559 LINE"
);
}
);
width = 656;
}
);
},
{
glyphname = Hbar;
layers = (
{
layerId = "04F5D486-D400-49CE-AE86-164151670EAE";
name = Bold;
paths = (
{
closed = 1;
nodes = (
"538 710 LINE",
"538 609 LINE",
"216 609 LINE",
"216 710 LINE",
"78 710 LINE",
"78 609 LINE",
"28 609 LINE",
"28 543 LINE",
"78 543 LINE",
"78 0 LINE",
"216 0 LINE",
"216 303 LINE",
"538 303 LINE",
"538 0 LINE",
"675 0 LINE",
"675 543 LINE",
"724 543 LINE",
"724 609 LINE",
"675 609 LINE",
"675 710 LINE"
);
},
{
closed = 1;
nodes = (
"216 423 LINE",
"216 543 LINE",
"538 543 LINE",
"538 423 LINE"
);
}
);
width = 752;
}
);
unicode = 0126;
},
{
glyphname = Hcircumflex;
layers = (
{
layerId = "04F5D486-D400-49CE-AE86-164151670EAE";
name = Bold;
paths = (
{
closed = 1;
nodes = (
"291 782 LINE",
"376 845 LINE",
"461 782 LINE",
"530 814 LINE",
"424 915 LINE",
"327 915 LINE",
"221 814 LINE"
);
},
{
closed = 1;
nodes = (
"534 710 LINE",
"534 423 LINE",
"212 423 LINE",
"212 710 LINE",
"74 710 LINE",
"74 0 LINE",
"212 0 LINE",
"212 303 LINE",
"534 303 LINE",
"534 0 LINE",
"671 0 LINE",
"671 710 LINE"
);
}
);
width = 745;
}
);
unicode = 0124;
},
{
glyphname = I;
layers = (
{
layerId = "04F5D486-D400-49CE-AE86-164151670EAE";
name = Bold;
paths = (
{
closed = 1;
nodes = (
"212 0 LINE",
"212 709 LINE",
"74 709 LINE",
"74 0 LINE"
);
}
);
width = 286;
}
);
unicode = 0049;
},
{
glyphname = I.sc;
layers = (
{
layerId = "04F5D486-D400-49CE-AE86-164151670EAE";
name = Bold;
paths = (
{
closed = 1;
nodes = (
"188 0 LINE",
"188 559 LINE",
"67 559 LINE",
"67 0 LINE"
);
}
);
width = 255;
}
);
},
{
glyphname = IJ;
layers = (
{
layerId = "04F5D486-D400-49CE-AE86-164151670EAE";
name = Bold;
paths = (
{
closed = 1;
nodes = (
"212 0 LINE",
"212 709 LINE",
"74 709 LINE",
"74 0 LINE"
);
},
{
closed = 1;
nodes = (
"297 33 LINE",
"339 4 OFFCURVE",
"390 -11 OFFCURVE",
"451 -11 CURVE SMOOTH",
"685 -11 OFFCURVE",
"715 133 OFFCURVE",
"715 349 CURVE SMOOTH",
"715 709 LINE",
"577 709 LINE",
"577 349 LINE SMOOTH",
"577 189 OFFCURVE",
"563 111 OFFCURVE",
"451 111 CURVE SMOOTH",
"394 111 OFFCURVE",
"346 132 OFFCURVE",
"328 145 CURVE"
);
}
);
width = 781;
}
);
unicode = 0132;
},
{
glyphname = J;
layers = (
{
layerId = "04F5D486-D400-49CE-AE86-164151670EAE";
name = Bold;
paths = (
{
closed = 1;
nodes = (
"11 33 LINE",
"53 4 OFFCURVE",
"104 -11 OFFCURVE",
"165 -11 CURVE SMOOTH",
"399 -11 OFFCURVE",
"429 133 OFFCURVE",
"429 349 CURVE SMOOTH",
"429 709 LINE",
"291 709 LINE",
"291 349 LINE SMOOTH",
"291 189 OFFCURVE",
"277 111 OFFCURVE",
"165 111 CURVE SMOOTH",
"108 111 OFFCURVE",
"60 132 OFFCURVE",
"42 145 CURVE"
);
}
);
width = 495;
}
);
unicode = 004A;
},
{
glyphname = Iacute;
layers = (
{
layerId = "04F5D486-D400-49CE-AE86-164151670EAE";
name = Bold;
paths = (
{
closed = 1;
nodes = (
"212 0 LINE",
"212 709 LINE",
"74 709 LINE",
"74 0 LINE"
);
},
{
closed = 1;
nodes = (
"270 915 LINE",
"145 915 LINE",
"91 796 LINE",
"177 770 LINE"
);
}
);
width = 286;
}
);
unicode = 00CD;
},
{
glyphname = Ibreve;
layers = (
{
layerId = "04F5D486-D400-49CE-AE86-164151670EAE";
name = Bold;
paths = (
{
closed = 1;
nodes = (
"212 0 LINE",
"212 709 LINE",
"74 709 LINE",
"74 0 LINE"
);
},
{
closed = 1;
nodes = (
"111 841 OFFCURVE",
"83 875 OFFCURVE",
"83 915 CURVE",
"11 915 LINE",
"11 838 OFFCURVE",
"66 781 OFFCURVE",
"142 781 CURVE SMOOTH",
"218 781 OFFCURVE",
"273 838 OFFCURVE",
"273 915 CURVE",
"202 915 LINE",
"198 872 OFFCURVE",
"172 841 OFFCURVE",
"142 841 CURVE SMOOTH"
);
}
);
width = 286;
}
);
unicode = 012C;
},
{
glyphname = Icircumflex;
layers = (
{
layerId = "04F5D486-D400-49CE-AE86-164151670EAE";
name = Bold;
paths = (
{
closed = 1;
nodes = (
"212 0 LINE",
"212 709 LINE",
"74 709 LINE",
"74 0 LINE"
);
},
{
closed = 1;
nodes = (
"58 782 LINE",
"143 845 LINE",
"228 782 LINE",
"297 814 LINE",
"191 915 LINE",
"94 915 LINE",
"-12 814 LINE"
);
}
);
width = 286;
}
);
unicode = 00CE;
},
{
glyphname = Idieresis;
layers = (
{
layerId = "04F5D486-D400-49CE-AE86-164151670EAE";
name = Bold;
paths = (
{
closed = 1;
nodes = (
"212 0 LINE",
"212 709 LINE",
"74 709 LINE",
"74 0 LINE"
);
},
{
closed = 1;
nodes = (
"102 790 LINE",
"102 909 LINE",
"-9 909 LINE",
"-9 790 LINE"
);
},
{
closed = 1;
nodes = (
"294 790 LINE",
"294 909 LINE",
"183 909 LINE",
"183 790 LINE"
);
}
);
width = 286;
}
);
unicode = 00CF;
},
{
glyphname = Idotaccent;
layers = (
{
layerId = "04F5D486-D400-49CE-AE86-164151670EAE";
name = Bold;
paths = (
{
closed = 1;
nodes = (
"212 0 LINE",
"212 709 LINE",
"74 709 LINE",
"74 0 LINE"
);
},
{
closed = 1;
nodes = (
"203 789 LINE",
"203 915 LINE",
"82 915 LINE",
"82 789 LINE"
);
}
);
width = 286;
}
);
unicode = 0130;
},
{
glyphname = Igrave;
layers = (
{
layerId = "04F5D486-D400-49CE-AE86-164151670EAE";
name = Bold;
paths = (
{
closed = 1;
nodes = (
"212 0 LINE",
"212 709 LINE",
"74 709 LINE",
"74 0 LINE"
);
},
{
closed = 1;
nodes = (
"108 771 LINE",
"194 797 LINE",
"139 916 LINE",
"15 916 LINE"
);
}
);
width = 286;
}
);
unicode = 00CC;
},
{
glyphname = Imacron;
layers = (
{
layerId = "04F5D486-D400-49CE-AE86-164151670EAE";
name = Bold;
paths = (
{
closed = 1;
nodes = (
"212 0 LINE",
"212 709 LINE",
"74 709 LINE",
"74 0 LINE"
);
},
{
closed = 1;
nodes = (
"294 818 LINE",
"294 901 LINE",
"-6 901 LINE",
"-6 818 LINE"
);
}
);
width = 286;
}
);
unicode = 012A;
},
{
glyphname = Iogonek;
layers = (
{
layerId = "04F5D486-D400-49CE-AE86-164151670EAE";
name = Bold;
paths = (
{
closed = 1;
nodes = (
"192 -130 LINE",
"150 -128 OFFCURVE",
"130 -113 OFFCURVE",
"130 -90 CURVE SMOOTH",
"130 -62 OFFCURVE",
"156 -33 OFFCURVE",
"212 0 CURVE",
"212 709 LINE",
"74 709 LINE",
"74 0 LINE",
"139 0 LINE",
"85 -34 OFFCURVE",
"58 -72 OFFCURVE",
"58 -109 CURVE SMOOTH",
"58 -150 OFFCURVE",
"94 -185 OFFCURVE",
"164 -196 CURVE"
);
}
);
width = 286;
}
);
unicode = 012E;
},
{
glyphname = Itilde;
layers = (
{
layerId = "04F5D486-D400-49CE-AE86-164151670EAE";
name = Bold;
paths = (
{
closed = 1;
nodes = (
"212 0 LINE",
"212 709 LINE",
"74 709 LINE",
"74 0 LINE"
);
},
{
closed = 1;
nodes = (
"299 787 OFFCURVE",
"329 896 OFFCURVE",
"329 915 CURVE",
"255 915 LINE",
"255 911 OFFCURVE",
"250 865 OFFCURVE",
"202 865 CURVE SMOOTH",
"154 865 OFFCURVE",
"131 912 OFFCURVE",
"70 912 CURVE SMOOTH",
"-18 912 OFFCURVE",
"-47 809 OFFCURVE",
"-47 784 CURVE",
"27 784 LINE",
"27 787 OFFCURVE",
"30 832 OFFCURVE",
"75 832 CURVE SMOOTH",
"119 832 OFFCURVE",
"146 787 OFFCURVE",
"206 787 CURVE SMOOTH"
);
}
);
width = 286;
}
);
unicode = 0128;
},
{
glyphname = J.sc;
layers = (
{
layerId = "04F5D486-D400-49CE-AE86-164151670EAE";
name = Bold;
paths = (
{
closed = 1;
nodes = (
"14 25 LINE",
"51 3 OFFCURVE",
"95 -8 OFFCURVE",
"149 -8 CURVE SMOOTH",
"354 -8 OFFCURVE",
"379 104 OFFCURVE",
"379 275 CURVE SMOOTH",
"379 559 LINE",
"258 559 LINE",
"258 275 LINE SMOOTH",
"258 154 OFFCURVE",
"246 99 OFFCURVE",
"149 99 CURVE SMOOTH",
"98 99 OFFCURVE",
"57 116 OFFCURVE",
"41 124 CURVE"
);
}
);
width = 440;
}
);
},
{
glyphname = Jcircumflex;
layers = (
{
layerId = "04F5D486-D400-49CE-AE86-164151670EAE";
name = Bold;
paths = (
{
closed = 1;
nodes = (
"277 782 LINE",
"362 845 LINE",
"447 782 LINE",
"516 814 LINE",
"410 915 LINE",
"313 915 LINE",
"207 814 LINE"
);
},
{
closed = 1;
nodes = (
"11 33 LINE",
"53 4 OFFCURVE",
"104 -11 OFFCURVE",
"165 -11 CURVE SMOOTH",
"399 -11 OFFCURVE",
"429 133 OFFCURVE",
"429 349 CURVE SMOOTH",
"429 709 LINE",
"291 709 LINE",
"291 349 LINE SMOOTH",
"291 189 OFFCURVE",
"277 111 OFFCURVE",
"165 111 CURVE SMOOTH",
"108 111 OFFCURVE",
"60 132 OFFCURVE",
"42 145 CURVE"
);
}
);
width = 495;
}
);
unicode = 0134;
},
{
glyphname = K;
layers = (
{
layerId = "04F5D486-D400-49CE-AE86-164151670EAE";
name = Bold;
paths = (
{
closed = 1;
nodes = (
"212 0 LINE",
"212 214 LINE",
"307 317 LINE",
"533 0 LINE",
"679 0 LINE",
"390 395 LINE",
"662 710 LINE",
"519 710 LINE",
"212 363 LINE",
"212 709 LINE",
"74 709 LINE",
"74 0 LINE"
);
}
);
width = 667;
}
);
unicode = 004B;
},
{
glyphname = K.sc;
layers = (
{
layerId = "04F5D486-D400-49CE-AE86-164151670EAE";
name = Bold;
paths = (
{
closed = 1;
nodes = (
"188 0 LINE",
"188 168 LINE",
"271 242 LINE",
"469 0 LINE",
"596 0 LINE",
"344 310 LINE",
"582 559 LINE",
"455 559 LINE",
"188 298 LINE",
"188 559 LINE",
"67 559 LINE",
"67 0 LINE"
);
}
);
width = 593;
}
);
},
{
glyphname = Kcommaaccent;
layers = (
{
layerId = "04F5D486-D400-49CE-AE86-164151670EAE";
name = Bold;
paths = (
{
closed = 1;
nodes = (
"263 -191 LINE",
"344 -191 OFFCURVE",
"405 -182 OFFCURVE",
"405 -116 CURVE SMOOTH",
"405 -47 LINE",
"296 -47 LINE",
"296 -111 LINE SMOOTH",
"296 -129 OFFCURVE",
"285 -136 OFFCURVE",
"263 -136 CURVE"
);
},
{
closed = 1;
nodes = (
"212 0 LINE",
"212 214 LINE",
"307 317 LINE",
"533 0 LINE",
"679 0 LINE",
"390 395 LINE",
"662 710 LINE",
"519 710 LINE",
"212 363 LINE",
"212 709 LINE",
"74 709 LINE",
"74 0 LINE"
);
}
);
width = 667;
}
);
unicode = 0136;
},
{
glyphname = L;
layers = (
{
layerId = "04F5D486-D400-49CE-AE86-164151670EAE";
name = Bold;
paths = (
{
closed = 1;
nodes = (
"574 0 LINE",
"574 121 LINE",
"212 121 LINE",
"212 710 LINE",
"74 710 LINE",
"74 0 LINE"
);
}
);
width = 589;
}
);
unicode = 004C;
},
{
glyphname = L.sc;
layers = (
{
layerId = "04F5D486-D400-49CE-AE86-164151670EAE";
name = Bold;
paths = (
{
closed = 1;
nodes = (
"474 0 LINE",
"474 106 LINE",
"188 106 LINE",
"188 559 LINE",
"67 559 LINE",
"67 0 LINE"
);
}
);
width = 491;
}
);
},
{
glyphname = Lacute;
layers = (
{
layerId = "04F5D486-D400-49CE-AE86-164151670EAE";
name = Bold;
paths = (
{
closed = 1;
nodes = (
"486 915 LINE",
"361 915 LINE",
"307 796 LINE",
"393 770 LINE"
);
},
{
closed = 1;
nodes = (
"574 0 LINE",
"574 121 LINE",
"212 121 LINE",
"212 710 LINE",
"74 710 LINE",
"74 0 LINE"
);
}
);
width = 589;
}
);
unicode = 0139;
},
{
glyphname = Lcaron;
layers = (
{
layerId = "04F5D486-D400-49CE-AE86-164151670EAE";
name = Bold;
paths = (
{
closed = 1;
nodes = (
"506 730 LINE",
"381 730 LINE",
"327 611 LINE",
"413 585 LINE"
);
},
{
closed = 1;
nodes = (
"574 0 LINE",
"574 121 LINE",
"212 121 LINE",
"212 710 LINE",
"74 710 LINE",
"74 0 LINE"
);
}
);
width = 590;
}
);
unicode = 013D;
},
{
glyphname = caron.alt;
layers = (
{
layerId = "04F5D486-D400-49CE-AE86-164151670EAE";
name = Bold;
paths = (
{
closed = 1;
nodes = (
"226 730 LINE",
"101 730 LINE",
"47 611 LINE",
"133 585 LINE"
);
}
);
width = 255;
}
);
},
{
glyphname = Lcommaaccent;
layers = (
{
layerId = "04F5D486-D400-49CE-AE86-164151670EAE";
name = Bold;
paths = (
{
closed = 1;
nodes = (
"247 -191 LINE",
"328 -191 OFFCURVE",
"389 -182 OFFCURVE",
"389 -116 CURVE SMOOTH",
"389 -47 LINE",
"280 -47 LINE",
"280 -111 LINE SMOOTH",
"280 -129 OFFCURVE",
"269 -136 OFFCURVE",
"247 -136 CURVE"
);
},
{
closed = 1;
nodes = (
"574 0 LINE",
"574 121 LINE",
"212 121 LINE",
"212 710 LINE",
"74 710 LINE",
"74 0 LINE"
);
}
);
width = 589;
}
);
unicode = 013B;
},
{
glyphname = Ldot;
layers = (
{
layerId = "04F5D486-D400-49CE-AE86-164151670EAE";
name = Bold;
paths = (
{
closed = 1;
nodes = (
"574 0 LINE",
"574 121 LINE",
"212 121 LINE",
"212 710 LINE",
"74 710 LINE",
"74 0 LINE"
);
},
{
closed = 1;
nodes = (
"475 331 LINE",
"475 482 LINE",
"365 482 LINE",
"365 331 LINE"
);
}
);
width = 590;
}
);
unicode = 013F;
},
{
glyphname = periodcentered;
layers = (
{
layerId = "04F5D486-D400-49CE-AE86-164151670EAE";
name = Bold;
paths = (
{
closed = 1;
nodes = (
"167 242 LINE",
"167 393 LINE",
"57 393 LINE",
"57 242 LINE"
);
}
);
width = 224;
}
);
unicode = 00B7;
},
{
glyphname = Lslash;
layers = (
{
layerId = "04F5D486-D400-49CE-AE86-164151670EAE";
name = Bold;
paths = (
{
closed = 1;
nodes = (
"584 0 LINE",
"584 121 LINE",
"222 121 LINE",
"222 362 LINE",
"364 452 LINE",
"331 525 LINE",
"222 456 LINE",
"222 710 LINE",
"84 710 LINE",
"84 369 LINE",
"-2 315 LINE",
"32 242 LINE",
"84 275 LINE",
"84 0 LINE"
);
}
);
width = 599;
}
);
unicode = 0141;
},
{
glyphname = M;
layers = (
{
layerId = "04F5D486-D400-49CE-AE86-164151670EAE";
name = Bold;
paths = (
{
closed = 1;
nodes = (
"791 0 LINE",
"791 710 LINE",
"644 710 LINE",
"432 306 LINE",
"222 710 LINE",
"74 710 LINE",
"74 0 LINE",
"212 0 LINE",
"212 470 LINE",
"395 120 LINE",
"470 120 LINE",
"653 470 LINE",
"653 0 LINE"
);
}
);
width = 865;
}
);
unicode = 004D;
},
{
glyphname = M.sc;
layers = (
{
layerId = "04F5D486-D400-49CE-AE86-164151670EAE";
name = Bold;
paths = (
{
closed = 1;
nodes = (
"693 0 LINE",
"693 559 LINE",
"564 559 LINE",
"381 257 LINE",
"198 559 LINE",
"67 559 LINE",
"67 0 LINE",
"188 0 LINE",
"188 349 LINE",
"347 93 LINE",
"413 93 LINE",
"573 349 LINE",
"573 0 LINE"
);
}
);
width = 760;
}
);
},
{
glyphname = N;
layers = (
{
layerId = "04F5D486-D400-49CE-AE86-164151670EAE";
name = Bold;
paths = (
{
closed = 1;
nodes = (
"577 0 LINE",
"689 0 LINE",
"689 709 LINE",
"551 709 LINE",
"551 244 LINE",
"181 710 LINE",
"74 710 LINE",
"74 0 LINE",
"212 0 LINE",
"212 455 LINE"
);
}
);
width = 763;
}
);
unicode = 004E;
},
{
glyphname = N.sc;
layers = (
{
layerId = "04F5D486-D400-49CE-AE86-164151670EAE";
name = Bold;
paths = (
{
closed = 1;
nodes = (
"506 0 LINE",
"604 0 LINE",
"604 559 LINE",
"483 559 LINE",
"483 215 LINE",
"161 559 LINE",
"67 559 LINE",
"67 0 LINE",
"188 0 LINE",
"188 335 LINE"
);
}
);
width = 671;
}
);
},
{
glyphname = Nacute;
layers = (
{
layerId = "04F5D486-D400-49CE-AE86-164151670EAE";
name = Bold;
paths = (
{
closed = 1;
nodes = (
"509 915 LINE",
"384 915 LINE",
"330 796 LINE",
"416 770 LINE"
);
},
{
closed = 1;
nodes = (
"577 0 LINE",
"689 0 LINE",
"689 709 LINE",
"551 709 LINE",
"551 244 LINE",
"181 710 LINE",
"74 710 LINE",
"74 0 LINE",
"212 0 LINE",
"212 455 LINE"
);
}
);
width = 763;
}
);
unicode = 0143;
},
{
glyphname = Ncaron;
layers = (
{
layerId = "04F5D486-D400-49CE-AE86-164151670EAE";
name = Bold;
paths = (
{
closed = 1;
nodes = (
"227 883 LINE",
"333 782 LINE",
"430 782 LINE",
"536 883 LINE",
"467 915 LINE",
"382 852 LINE",
"297 915 LINE"
);
},
{
closed = 1;
nodes = (
"577 0 LINE",
"689 0 LINE",
"689 709 LINE",
"551 709 LINE",
"551 244 LINE",
"181 710 LINE",
"74 710 LINE",
"74 0 LINE",
"212 0 LINE",
"212 455 LINE"
);
}
);
width = 763;
}
);
unicode = 0147;
},
{
glyphname = Ncommaaccent;
layers = (
{
layerId = "04F5D486-D400-49CE-AE86-164151670EAE";
name = Bold;
paths = (
{
closed = 1;
nodes = (
"292 -191 LINE",
"373 -191 OFFCURVE",
"434 -182 OFFCURVE",
"434 -116 CURVE SMOOTH",
"434 -47 LINE",
"325 -47 LINE",
"325 -111 LINE SMOOTH",
"325 -129 OFFCURVE",
"314 -136 OFFCURVE",
"292 -136 CURVE"
);
},
{
closed = 1;
nodes = (
"577 0 LINE",
"689 0 LINE",
"689 709 LINE",
"551 709 LINE",
"551 244 LINE",
"181 710 LINE",
"74 710 LINE",
"74 0 LINE",
"212 0 LINE",
"212 455 LINE"
);
}
);
width = 763;
}
);
unicode = 0145;
},
{
glyphname = Ndotaccent;
layers = (
{
layerId = "04F5D486-D400-49CE-AE86-164151670EAE";
name = Bold;
paths = (
{
closed = 1;
nodes = (
"442 789 LINE",
"442 915 LINE",
"321 915 LINE",
"321 789 LINE"
);
},
{
closed = 1;
nodes = (
"577 0 LINE",
"689 0 LINE",
"689 709 LINE",
"551 709 LINE",
"551 244 LINE",
"181 710 LINE",
"74 710 LINE",
"74 0 LINE",
"212 0 LINE",
"212 455 LINE"
);
}
);
width = 763;
}
);
unicode = 1E44;
},
{
glyphname = Ntilde;
layers = (
{
layerId = "04F5D486-D400-49CE-AE86-164151670EAE";
name = Bold;
paths = (
{
closed = 1;
nodes = (
"577 0 LINE",
"689 0 LINE",
"689 709 LINE",
"551 709 LINE",
"551 244 LINE",
"181 710 LINE",
"74 710 LINE",
"74 0 LINE",
"212 0 LINE",
"212 455 LINE"
);
},
{
closed = 1;
nodes = (
"537 787 OFFCURVE",
"567 896 OFFCURVE",
"567 915 CURVE",
"493 915 LINE",
"493 911 OFFCURVE",
"488 865 OFFCURVE",
"440 865 CURVE SMOOTH",
"392 865 OFFCURVE",
"369 912 OFFCURVE",
"308 912 CURVE SMOOTH",
"220 912 OFFCURVE",
"191 809 OFFCURVE",
"191 784 CURVE",
"265 784 LINE",
"265 787 OFFCURVE",
"268 832 OFFCURVE",
"313 832 CURVE SMOOTH",
"357 832 OFFCURVE",
"384 787 OFFCURVE",
"444 787 CURVE SMOOTH"
);
}
);
width = 763;
}
);
unicode = 00D1;
},
{
glyphname = O;
layers = (
{
layerId = "04F5D486-D400-49CE-AE86-164151670EAE";
name = Bold;
paths = (
{
closed = 1;
nodes = (
"565 -5 OFFCURVE",
"707 165 OFFCURVE",
"707 353 CURVE SMOOTH",
"707 532 OFFCURVE",
"573 715 OFFCURVE",
"372 715 CURVE SMOOTH",
"177 715 OFFCURVE",
"33 544 OFFCURVE",
"33 355 CURVE SMOOTH",
"33 173 OFFCURVE",
"168 -5 OFFCURVE",
"369 -5 CURVE SMOOTH"
);
},
{
closed = 1;
nodes = (
"172 472 OFFCURVE",
"243 592 OFFCURVE",
"370 592 CURVE SMOOTH",
"492 592 OFFCURVE",
"568 478 OFFCURVE",
"568 355 CURVE SMOOTH",
"568 238 OFFCURVE",
"498 117 OFFCURVE",
"371 117 CURVE SMOOTH",
"246 117 OFFCURVE",
"172 232 OFFCURVE",
"172 355 CURVE SMOOTH"
);
}
);
width = 740;
}
);
unicode = 004F;
},
{
glyphname = O.sc;
layers = (
{
layerId = "04F5D486-D400-49CE-AE86-164151670EAE";
name = Bold;
paths = (
{
closed = 1;
nodes = (
"498 -4 OFFCURVE",
"621 130 OFFCURVE",
"621 277 CURVE SMOOTH",
"621 419 OFFCURVE",
"505 562 OFFCURVE",
"328 562 CURVE SMOOTH",
"158 562 OFFCURVE",
"32 428 OFFCURVE",
"32 280 CURVE SMOOTH",
"32 136 OFFCURVE",
"151 -4 OFFCURVE",
"326 -4 CURVE SMOOTH"
);
},
{
closed = 1;
nodes = (
"155 365 OFFCURVE",
"217 454 OFFCURVE",
"327 454 CURVE SMOOTH",
"433 454 OFFCURVE",
"498 370 OFFCURVE",
"498 280 CURVE SMOOTH",
"498 193 OFFCURVE",
"438 103 OFFCURVE",
"328 103 CURVE SMOOTH",
"219 103 OFFCURVE",
"155 189 OFFCURVE",
"155 279 CURVE SMOOTH"
);
}
);
width = 653;
}
);
},
{
glyphname = OE;
layers = (
{
layerId = "04F5D486-D400-49CE-AE86-164151670EAE";
name = Bold;
paths = (
{
closed = 1;
nodes = (
"711 121 LINE",
"711 301 LINE",
"990 301 LINE",
"990 422 LINE",
"711 422 LINE",
"711 589 LINE",
"1044 589 LINE",
"1044 710 LINE",
"574 710 LINE",
"574 606 LINE",
"530 668 OFFCURVE",
"458 715 OFFCURVE",
"372 715 CURVE SMOOTH",
"177 715 OFFCURVE",
"33 544 OFFCURVE",
"33 355 CURVE SMOOTH",
"33 173 OFFCURVE",
"169 -5 OFFCURVE",
"370 -5 CURVE SMOOTH",
"455 -5 OFFCURVE",
"529 42 OFFCURVE",
"574 105 CURVE",
"574 0 LINE",
"1053 0 LINE",
"1053 121 LINE"
);
},
{
closed = 1;
nodes = (
"246 117 OFFCURVE",
"172 232 OFFCURVE",
"172 355 CURVE SMOOTH",
"172 472 OFFCURVE",
"243 593 OFFCURVE",
"370 593 CURVE SMOOTH",
"492 593 OFFCURVE",
"568 478 OFFCURVE",
"568 356 CURVE SMOOTH",
"568 238 OFFCURVE",
"498 117 OFFCURVE",
"371 117 CURVE SMOOTH"
);
}
);
width = 1090;
}
);
unicode = 0152;
},
{
glyphname = Oacute;
layers = (
{
layerId = "04F5D486-D400-49CE-AE86-164151670EAE";
name = Bold;
paths = (
{
closed = 1;
nodes = (
"500 915 LINE",
"375 915 LINE",
"321 796 LINE",
"407 770 LINE"
);
},
{
closed = 1;
nodes = (
"565 -5 OFFCURVE",
"707 165 OFFCURVE",
"707 353 CURVE SMOOTH",
"707 532 OFFCURVE",
"573 715 OFFCURVE",
"372 715 CURVE SMOOTH",
"177 715 OFFCURVE",
"33 544 OFFCURVE",
"33 355 CURVE SMOOTH",
"33 173 OFFCURVE",
"168 -5 OFFCURVE",
"369 -5 CURVE SMOOTH"
);
},
{
closed = 1;
nodes = (
"172 472 OFFCURVE",
"243 592 OFFCURVE",
"370 592 CURVE SMOOTH",
"492 592 OFFCURVE",
"568 478 OFFCURVE",
"568 355 CURVE SMOOTH",
"568 238 OFFCURVE",
"498 117 OFFCURVE",
"371 117 CURVE SMOOTH",
"246 117 OFFCURVE",
"172 232 OFFCURVE",
"172 355 CURVE SMOOTH"
);
}
);
width = 740;
}
);
unicode = 00D3;
},
{
glyphname = Obreve;
layers = (
{
layerId = "04F5D486-D400-49CE-AE86-164151670EAE";
name = Bold;
paths = (
{
closed = 1;
nodes = (
"565 -5 OFFCURVE",
"707 165 OFFCURVE",
"707 353 CURVE SMOOTH",
"707 532 OFFCURVE",
"573 715 OFFCURVE",
"372 715 CURVE SMOOTH",
"177 715 OFFCURVE",
"33 544 OFFCURVE",
"33 355 CURVE SMOOTH",
"33 173 OFFCURVE",
"168 -5 OFFCURVE",
"369 -5 CURVE SMOOTH"
);
},
{
closed = 1;
nodes = (
"172 472 OFFCURVE",
"243 592 OFFCURVE",
"370 592 CURVE SMOOTH",
"492 592 OFFCURVE",
"568 478 OFFCURVE",
"568 355 CURVE SMOOTH",
"568 238 OFFCURVE",
"498 117 OFFCURVE",
"371 117 CURVE SMOOTH",
"246 117 OFFCURVE",
"172 232 OFFCURVE",
"172 355 CURVE SMOOTH"
);
},
{
closed = 1;
nodes = (
"341 841 OFFCURVE",
"313 875 OFFCURVE",
"313 915 CURVE",
"241 915 LINE",
"241 838 OFFCURVE",
"296 781 OFFCURVE",
"372 781 CURVE SMOOTH",
"448 781 OFFCURVE",
"503 838 OFFCURVE",
"503 915 CURVE",
"432 915 LINE",
"428 872 OFFCURVE",
"402 841 OFFCURVE",
"372 841 CURVE SMOOTH"
);
}
);
width = 740;
}
);
unicode = 014E;
},
{
glyphname = Ocircumflex;
layers = (
{
layerId = "04F5D486-D400-49CE-AE86-164151670EAE";
name = Bold;
paths = (
{
closed = 1;
nodes = (
"288 782 LINE",
"373 845 LINE",
"458 782 LINE",
"527 814 LINE",
"421 915 LINE",
"324 915 LINE",
"218 814 LINE"
);
},
{
closed = 1;
nodes = (
"565 -5 OFFCURVE",
"707 165 OFFCURVE",
"707 353 CURVE SMOOTH",
"707 532 OFFCURVE",
"573 715 OFFCURVE",
"372 715 CURVE SMOOTH",
"177 715 OFFCURVE",
"33 544 OFFCURVE",
"33 355 CURVE SMOOTH",
"33 173 OFFCURVE",
"168 -5 OFFCURVE",
"369 -5 CURVE SMOOTH"
);
},
{
closed = 1;
nodes = (
"172 472 OFFCURVE",
"243 592 OFFCURVE",
"370 592 CURVE SMOOTH",
"492 592 OFFCURVE",
"568 478 OFFCURVE",
"568 355 CURVE SMOOTH",
"568 238 OFFCURVE",
"498 117 OFFCURVE",
"371 117 CURVE SMOOTH",
"246 117 OFFCURVE",
"172 232 OFFCURVE",
"172 355 CURVE SMOOTH"
);
}
);
width = 740;
}
);
unicode = 00D4;
},
{
glyphname = Odieresis;
layers = (
{
layerId = "04F5D486-D400-49CE-AE86-164151670EAE";
name = Bold;
paths = (
{
closed = 1;
nodes = (
"331 790 LINE",
"331 909 LINE",
"220 909 LINE",
"220 790 LINE"
);
},
{
closed = 1;
nodes = (
"523 790 LINE",
"523 909 LINE",
"412 909 LINE",
"412 790 LINE"
);
},
{
closed = 1;
nodes = (
"565 -5 OFFCURVE",
"707 165 OFFCURVE",
"707 353 CURVE SMOOTH",
"707 532 OFFCURVE",
"573 715 OFFCURVE",
"372 715 CURVE SMOOTH",
"177 715 OFFCURVE",
"33 544 OFFCURVE",
"33 355 CURVE SMOOTH",
"33 173 OFFCURVE",
"168 -5 OFFCURVE",
"369 -5 CURVE SMOOTH"
);
},
{
closed = 1;
nodes = (
"172 472 OFFCURVE",
"243 592 OFFCURVE",
"370 592 CURVE SMOOTH",
"492 592 OFFCURVE",
"568 478 OFFCURVE",
"568 355 CURVE SMOOTH",
"568 238 OFFCURVE",
"498 117 OFFCURVE",
"371 117 CURVE SMOOTH",
"246 117 OFFCURVE",
"172 232 OFFCURVE",
"172 355 CURVE SMOOTH"
);
}
);
width = 740;
}
);
unicode = 00D6;
},
{
glyphname = Ograve;
layers = (
{
layerId = "04F5D486-D400-49CE-AE86-164151670EAE";
name = Bold;
paths = (
{
closed = 1;
nodes = (
"565 -5 OFFCURVE",
"707 165 OFFCURVE",
"707 353 CURVE SMOOTH",
"707 532 OFFCURVE",
"573 715 OFFCURVE",
"372 715 CURVE SMOOTH",
"177 715 OFFCURVE",
"33 544 OFFCURVE",
"33 355 CURVE SMOOTH",
"33 173 OFFCURVE",
"168 -5 OFFCURVE",
"369 -5 CURVE SMOOTH"
);
},
{
closed = 1;
nodes = (
"172 472 OFFCURVE",
"243 592 OFFCURVE",
"370 592 CURVE SMOOTH",
"492 592 OFFCURVE",
"568 478 OFFCURVE",
"568 355 CURVE SMOOTH",
"568 238 OFFCURVE",
"498 117 OFFCURVE",
"371 117 CURVE SMOOTH",
"246 117 OFFCURVE",
"172 232 OFFCURVE",
"172 355 CURVE SMOOTH"
);
},
{
closed = 1;
nodes = (
"337 771 LINE",
"423 797 LINE",
"368 916 LINE",
"244 916 LINE"
);
}
);
width = 740;
}
);
unicode = 00D2;
},
{
glyphname = Ohungarumlaut;
layers = (
{
layerId = "04F5D486-D400-49CE-AE86-164151670EAE";
name = Bold;
paths = (
{
closed = 1;
nodes = (
"395 916 LINE",
"291 916 LINE",
"243 797 LINE",
"309 771 LINE"
);
},
{
closed = 1;
nodes = (
"556 916 LINE",
"451 916 LINE",
"404 797 LINE",
"469 771 LINE"
);
},
{
closed = 1;
nodes = (
"565 -5 OFFCURVE",
"707 165 OFFCURVE",
"707 353 CURVE SMOOTH",
"707 532 OFFCURVE",
"573 715 OFFCURVE",
"372 715 CURVE SMOOTH",
"177 715 OFFCURVE",
"33 544 OFFCURVE",
"33 355 CURVE SMOOTH",
"33 173 OFFCURVE",
"168 -5 OFFCURVE",
"369 -5 CURVE SMOOTH"
);
},
{
closed = 1;
nodes = (
"172 472 OFFCURVE",
"243 592 OFFCURVE",
"370 592 CURVE SMOOTH",
"492 592 OFFCURVE",
"568 478 OFFCURVE",
"568 355 CURVE SMOOTH",
"568 238 OFFCURVE",
"498 117 OFFCURVE",
"371 117 CURVE SMOOTH",
"246 117 OFFCURVE",
"172 232 OFFCURVE",
"172 355 CURVE SMOOTH"
);
}
);
width = 740;
}
);
unicode = 0150;
},
{
glyphname = hungarumlaut;
layers = (
{
layerId = "04F5D486-D400-49CE-AE86-164151670EAE";
name = Bold;
paths = (
{
closed = 1;
nodes = (
"185 730 LINE",
"81 730 LINE",
"33 611 LINE",
"99 585 LINE"
);
},
{
closed = 1;
nodes = (
"346 730 LINE",
"241 730 LINE",
"194 611 LINE",
"259 585 LINE"
);
}
);
width = 366;
}
);
unicode = 02DD;
},
{
glyphname = Omacron;
layers = (
{
layerId = "04F5D486-D400-49CE-AE86-164151670EAE";
name = Bold;
paths = (
{
closed = 1;
nodes = (
"523 818 LINE",
"523 901 LINE",
"223 901 LINE",
"223 818 LINE"
);
},
{
closed = 1;
nodes = (
"565 -5 OFFCURVE",
"707 165 OFFCURVE",
"707 353 CURVE SMOOTH",
"707 532 OFFCURVE",
"573 715 OFFCURVE",
"372 715 CURVE SMOOTH",
"177 715 OFFCURVE",
"33 544 OFFCURVE",
"33 355 CURVE SMOOTH",
"33 173 OFFCURVE",
"168 -5 OFFCURVE",
"369 -5 CURVE SMOOTH"
);
},
{
closed = 1;
nodes = (
"172 472 OFFCURVE",
"243 592 OFFCURVE",
"370 592 CURVE SMOOTH",
"492 592 OFFCURVE",
"568 478 OFFCURVE",
"568 355 CURVE SMOOTH",
"568 238 OFFCURVE",
"498 117 OFFCURVE",
"371 117 CURVE SMOOTH",
"246 117 OFFCURVE",
"172 232 OFFCURVE",
"172 355 CURVE SMOOTH"
);
}
);
width = 740;
}
);
unicode = 014C;
},
{
glyphname = Oogonek;
layers = (
{
layerId = "04F5D486-D400-49CE-AE86-164151670EAE";
name = Bold;
paths = (
{
closed = 1;
nodes = (
"381 -131 LINE",
"339 -129 OFFCURVE",
"319 -114 OFFCURVE",
"319 -91 CURVE SMOOTH",
"319 -63 OFFCURVE",
"344 -35 OFFCURVE",
"397 -3 CURVE",
"578 12 OFFCURVE",
"707 174 OFFCURVE",
"707 353 CURVE SMOOTH",
"707 532 OFFCURVE",
"573 715 OFFCURVE",
"372 715 CURVE SMOOTH",
"177 715 OFFCURVE",
"33 544 OFFCURVE",
"33 355 CURVE SMOOTH",
"33 186 OFFCURVE",
"149 21 OFFCURVE",
"326 -2 CURVE",
"273 -36 OFFCURVE",
"247 -74 OFFCURVE",
"247 -110 CURVE SMOOTH",
"247 -151 OFFCURVE",
"283 -186 OFFCURVE",
"353 -197 CURVE"
);
},
{
closed = 1;
nodes = (
"172 472 OFFCURVE",
"243 592 OFFCURVE",
"370 592 CURVE SMOOTH",
"492 592 OFFCURVE",
"568 478 OFFCURVE",
"568 355 CURVE SMOOTH",
"568 238 OFFCURVE",
"498 117 OFFCURVE",
"371 117 CURVE SMOOTH",
"246 117 OFFCURVE",
"172 232 OFFCURVE",
"172 355 CURVE SMOOTH"
);
}
);
width = 740;
}
);
unicode = 01EA;
},
{
glyphname = Oslash;
layers = (
{
layerId = "04F5D486-D400-49CE-AE86-164151670EAE";
name = Bold;
paths = (
{
closed = 1;
nodes = (
"544 710 LINE",
"521 677 LINE",
"477 701 OFFCURVE",
"427 715 OFFCURVE",
"372 715 CURVE SMOOTH",
"177 715 OFFCURVE",
"33 544 OFFCURVE",
"33 355 CURVE SMOOTH",
"33 264 OFFCURVE",
"66 175 OFFCURVE",
"124 108 CURVE",
"49 0 LINE",
"197 0 LINE",
"219 32 LINE",
"263 8 OFFCURVE",
"313 -5 OFFCURVE",
"369 -5 CURVE SMOOTH",
"565 -5 OFFCURVE",
"707 165 OFFCURVE",
"707 353 CURVE SMOOTH",
"707 442 OFFCURVE",
"674 532 OFFCURVE",
"616 600 CURVE",
"693 710 LINE"
);
},
{
closed = 1;
nodes = (
"172 472 OFFCURVE",
"243 592 OFFCURVE",
"370 592 CURVE SMOOTH",
"399 592 OFFCURVE",
"426 585 OFFCURVE",
"449 574 CURVE",
"204 222 LINE",
"183 261 OFFCURVE",
"172 307 OFFCURVE",
"172 355 CURVE SMOOTH"
);
},
{
closed = 1;
nodes = (
"568 238 OFFCURVE",
"498 117 OFFCURVE",
"371 117 CURVE SMOOTH",
"341 117 OFFCURVE",
"314 123 OFFCURVE",
"291 134 CURVE",
"536 486 LINE",
"557 447 OFFCURVE",
"568 402 OFFCURVE",
"568 355 CURVE SMOOTH"
);
}
);
width = 742;
}
);
unicode = 00D8;
},
{
glyphname = slash;
layers = (
{
layerId = "04F5D486-D400-49CE-AE86-164151670EAE";
name = Bold;
paths = (
{
closed = 1;
nodes = (
"523 710 LINE",
"28 0 LINE",
"176 0 LINE",
"672 710 LINE"
);
}
);
width = 698;
}
);
unicode = 002F;
},
{
glyphname = Oslashacute;
layers = (
{
layerId = "04F5D486-D400-49CE-AE86-164151670EAE";
name = Bold;
paths = (
{
closed = 1;
nodes = (
"544 710 LINE",
"521 677 LINE",
"477 701 OFFCURVE",
"427 715 OFFCURVE",
"372 715 CURVE SMOOTH",
"177 715 OFFCURVE",
"33 544 OFFCURVE",
"33 355 CURVE SMOOTH",
"33 264 OFFCURVE",
"66 175 OFFCURVE",
"124 108 CURVE",
"49 0 LINE",
"197 0 LINE",
"219 32 LINE",
"263 8 OFFCURVE",
"313 -5 OFFCURVE",
"369 -5 CURVE SMOOTH",
"565 -5 OFFCURVE",
"707 165 OFFCURVE",
"707 353 CURVE SMOOTH",
"707 442 OFFCURVE",
"674 532 OFFCURVE",
"616 600 CURVE",
"693 710 LINE"
);
},
{
closed = 1;
nodes = (
"172 472 OFFCURVE",
"243 592 OFFCURVE",
"370 592 CURVE SMOOTH",
"399 592 OFFCURVE",
"426 585 OFFCURVE",
"449 574 CURVE",
"204 222 LINE",
"183 261 OFFCURVE",
"172 307 OFFCURVE",
"172 355 CURVE SMOOTH"
);
},
{
closed = 1;
nodes = (
"568 238 OFFCURVE",
"498 117 OFFCURVE",
"371 117 CURVE SMOOTH",
"341 117 OFFCURVE",
"314 123 OFFCURVE",
"291 134 CURVE",
"536 486 LINE",
"557 447 OFFCURVE",
"568 402 OFFCURVE",
"568 355 CURVE SMOOTH"
);
},
{
closed = 1;
nodes = (
"500 915 LINE",
"375 915 LINE",
"321 796 LINE",
"407 770 LINE"
);
}
);
width = 742;
}
);
unicode = 01FE;
},
{
glyphname = Otilde;
layers = (
{
layerId = "04F5D486-D400-49CE-AE86-164151670EAE";
name = Bold;
paths = (
{
closed = 1;
nodes = (
"565 -5 OFFCURVE",
"707 165 OFFCURVE",
"707 353 CURVE SMOOTH",
"707 532 OFFCURVE",
"573 715 OFFCURVE",
"372 715 CURVE SMOOTH",
"177 715 OFFCURVE",
"33 544 OFFCURVE",
"33 355 CURVE SMOOTH",
"33 173 OFFCURVE",
"168 -5 OFFCURVE",
"369 -5 CURVE SMOOTH"
);
},
{
closed = 1;
nodes = (
"172 472 OFFCURVE",
"243 592 OFFCURVE",
"370 592 CURVE SMOOTH",
"492 592 OFFCURVE",
"568 478 OFFCURVE",
"568 355 CURVE SMOOTH",
"568 238 OFFCURVE",
"498 117 OFFCURVE",
"371 117 CURVE SMOOTH",
"246 117 OFFCURVE",
"172 232 OFFCURVE",
"172 355 CURVE SMOOTH"
);
},
{
closed = 1;
nodes = (
"528 787 OFFCURVE",
"558 896 OFFCURVE",
"558 915 CURVE",
"484 915 LINE",
"484 911 OFFCURVE",
"479 865 OFFCURVE",
"431 865 CURVE SMOOTH",
"383 865 OFFCURVE",
"360 912 OFFCURVE",
"299 912 CURVE SMOOTH",
"211 912 OFFCURVE",
"182 809 OFFCURVE",
"182 784 CURVE",
"256 784 LINE",
"256 787 OFFCURVE",
"259 832 OFFCURVE",
"304 832 CURVE SMOOTH",
"348 832 OFFCURVE",
"375 787 OFFCURVE",
"435 787 CURVE SMOOTH"
);
}
);
width = 740;
}
);
unicode = 00D5;
},
{
glyphname = P;
layers = (
{
layerId = "04F5D486-D400-49CE-AE86-164151670EAE";
name = Bold;
paths = (
{
closed = 1;
nodes = (
"212 0 LINE",
"212 238 LINE",
"380 238 LINE SMOOTH",
"512 238 OFFCURVE",
"601 353 OFFCURVE",
"601 474 CURVE SMOOTH",
"601 590 OFFCURVE",
"506 710 OFFCURVE",
"375 710 CURVE SMOOTH",
"74 710 LINE",
"74 0 LINE"
);
},
{
closed = 1;
nodes = (
"212 589 LINE",
"366 589 LINE SMOOTH",
"415 589 OFFCURVE",
"461 547 OFFCURVE",
"461 474 CURVE SMOOTH",
"461 404 OFFCURVE",
"423 359 OFFCURVE",
"372 359 CURVE SMOOTH",
"212 359 LINE"
);
}
);
width = 621;
}
);
unicode = 0050;
},
{
glyphname = P.sc;
layers = (
{
layerId = "04F5D486-D400-49CE-AE86-164151670EAE";
name = Bold;
paths = (
{
closed = 1;
nodes = (
"188 0 LINE",
"188 183 LINE",
"335 183 LINE SMOOTH",
"450 183 OFFCURVE",
"528 275 OFFCURVE",
"528 371 CURVE SMOOTH",
"528 463 OFFCURVE",
"445 559 OFFCURVE",
"329 559 CURVE SMOOTH",
"67 559 LINE",
"67 0 LINE"
);
},
{
closed = 1;
nodes = (
"188 453 LINE",
"322 453 LINE SMOOTH",
"365 453 OFFCURVE",
"405 425 OFFCURVE",
"405 371 CURVE SMOOTH",
"405 318 OFFCURVE",
"372 289 OFFCURVE",
"327 289 CURVE SMOOTH",
"188 289 LINE"
);
}
);
width = 549;
}
);
},
{
glyphname = Q;
layers = (
{
layerId = "04F5D486-D400-49CE-AE86-164151670EAE";
name = Bold;
paths = (
{
closed = 1;
nodes = (
"590 0 LINE",
"721 0 LINE",
"620 113 LINE",
"675 178 OFFCURVE",
"707 263 OFFCURVE",
"707 353 CURVE SMOOTH",
"707 532 OFFCURVE",
"573 715 OFFCURVE",
"372 715 CURVE SMOOTH",
"177 715 OFFCURVE",
"33 544 OFFCURVE",
"33 355 CURVE SMOOTH",
"33 173 OFFCURVE",
"168 -4 OFFCURVE",
"369 -5 CURVE SMOOTH",
"436 -5 OFFCURVE",
"496 15 OFFCURVE",
"547 48 CURVE"
);
},
{
closed = 1;
nodes = (
"246 117 OFFCURVE",
"172 232 OFFCURVE",
"172 355 CURVE SMOOTH",
"172 472 OFFCURVE",
"243 593 OFFCURVE",
"370 593 CURVE SMOOTH",
"492 593 OFFCURVE",
"568 478 OFFCURVE",
"568 355 CURVE SMOOTH",
"568 305 OFFCURVE",
"555 255 OFFCURVE",
"531 213 CURVE",
"487 263 LINE",
"356 263 LINE",
"463 142 LINE",
"437 126 OFFCURVE",
"406 117 OFFCURVE",
"371 117 CURVE SMOOTH"
);
}
);
width = 742;
}
);
unicode = 0051;
},
{
glyphname = Q.sc;
layers = (
{
layerId = "04F5D486-D400-49CE-AE86-164151670EAE";
name = Bold;
paths = (
{
closed = 1;
nodes = (
"519 0 LINE",
"634 0 LINE",
"547 91 LINE",
"593 142 OFFCURVE",
"621 208 OFFCURVE",
"621 277 CURVE SMOOTH",
"621 419 OFFCURVE",
"505 563 OFFCURVE",
"328 563 CURVE SMOOTH",
"158 563 OFFCURVE",
"32 428 OFFCURVE",
"32 280 CURVE SMOOTH",
"32 136 OFFCURVE",
"151 -4 OFFCURVE",
"326 -4 CURVE SMOOTH",
"385 -4 OFFCURVE",
"438 12 OFFCURVE",
"482 38 CURVE"
);
},
{
closed = 1;
nodes = (
"219 104 OFFCURVE",
"155 189 OFFCURVE",
"155 279 CURVE SMOOTH",
"155 365 OFFCURVE",
"217 455 OFFCURVE",
"327 455 CURVE SMOOTH",
"433 455 OFFCURVE",
"498 370 OFFCURVE",
"498 280 CURVE SMOOTH",
"498 243 OFFCURVE",
"487 206 OFFCURVE",
"467 175 CURVE",
"429 215 LINE",
"314 215 LINE",
"403 121 LINE",
"382 110 OFFCURVE",
"356 104 OFFCURVE",
"328 104 CURVE SMOOTH"
);
}
);
width = 655;
}
);
},
{
glyphname = R;
layers = (
{
layerId = "04F5D486-D400-49CE-AE86-164151670EAE";
name = Bold;
paths = (
{
closed = 1;
nodes = (
"212 0 LINE",
"212 238 LINE",
"348 238 LINE",
"497 0 LINE",
"653 0 LINE",
"486 267 LINE",
"564 300 OFFCURVE",
"614 383 OFFCURVE",
"614 474 CURVE SMOOTH",
"614 590 OFFCURVE",
"519 710 OFFCURVE",
"388 710 CURVE SMOOTH",
"74 710 LINE",
"74 0 LINE"
);
},
{
closed = 1;
nodes = (
"212 589 LINE",
"379 589 LINE SMOOTH",
"428 589 OFFCURVE",
"475 540 OFFCURVE",
"475 474 CURVE SMOOTH",
"475 410 OFFCURVE",
"436 359 OFFCURVE",
"385 359 CURVE SMOOTH",
"212 359 LINE"
);
}
);
width = 674;
}
);
unicode = 0052;
},
{
glyphname = R.sc;
layers = (
{
layerId = "04F5D486-D400-49CE-AE86-164151670EAE";
name = Bold;
paths = (
{
closed = 1;
nodes = (
"188 0 LINE",
"188 183 LINE",
"306 183 LINE",
"436 0 LINE",
"574 0 LINE",
"428 209 LINE",
"496 237 OFFCURVE",
"539 301 OFFCURVE",
"539 371 CURVE SMOOTH",
"539 463 OFFCURVE",
"457 559 OFFCURVE",
"342 559 CURVE SMOOTH",
"67 559 LINE",
"67 0 LINE"
);
},
{
closed = 1;
nodes = (
"188 453 LINE",
"334 453 LINE SMOOTH",
"377 453 OFFCURVE",
"417 419 OFFCURVE",
"417 371 CURVE SMOOTH",
"417 324 OFFCURVE",
"383 289 OFFCURVE",
"339 289 CURVE SMOOTH",
"188 289 LINE"
);
}
);
width = 595;
}
);
},
{
glyphname = Racute;
layers = (
{
layerId = "04F5D486-D400-49CE-AE86-164151670EAE";
name = Bold;
paths = (
{
closed = 1;
nodes = (
"447 916 LINE",
"322 916 LINE",
"268 797 LINE",
"354 771 LINE"
);
},
{
closed = 1;
nodes = (
"212 0 LINE",
"212 238 LINE",
"348 238 LINE",
"497 0 LINE",
"653 0 LINE",
"486 267 LINE",
"564 300 OFFCURVE",
"614 383 OFFCURVE",
"614 474 CURVE SMOOTH",
"614 590 OFFCURVE",
"519 710 OFFCURVE",
"388 710 CURVE SMOOTH",
"74 710 LINE",
"74 0 LINE"
);
},
{
closed = 1;
nodes = (
"212 589 LINE",
"379 589 LINE SMOOTH",
"428 589 OFFCURVE",
"475 540 OFFCURVE",
"475 474 CURVE SMOOTH",
"475 410 OFFCURVE",
"436 359 OFFCURVE",
"385 359 CURVE SMOOTH",
"212 359 LINE"
);
}
);
width = 674;
}
);
unicode = 0154;
},
{
glyphname = Rcaron;
layers = (
{
layerId = "04F5D486-D400-49CE-AE86-164151670EAE";
name = Bold;
paths = (
{
closed = 1;
nodes = (
"164 884 LINE",
"270 783 LINE",
"367 783 LINE",
"473 884 LINE",
"404 916 LINE",
"319 853 LINE",
"234 916 LINE"
);
},
{
closed = 1;
nodes = (
"212 0 LINE",
"212 238 LINE",
"348 238 LINE",
"497 0 LINE",
"653 0 LINE",
"486 267 LINE",
"564 300 OFFCURVE",
"614 383 OFFCURVE",
"614 474 CURVE SMOOTH",
"614 590 OFFCURVE",
"519 710 OFFCURVE",
"388 710 CURVE SMOOTH",
"74 710 LINE",
"74 0 LINE"
);
},
{
closed = 1;
nodes = (
"212 589 LINE",
"379 589 LINE SMOOTH",
"428 589 OFFCURVE",
"475 540 OFFCURVE",
"475 474 CURVE SMOOTH",
"475 410 OFFCURVE",
"436 359 OFFCURVE",
"385 359 CURVE SMOOTH",
"212 359 LINE"
);
}
);
width = 674;
}
);
unicode = 0158;
},
{
glyphname = Rcommaaccent;
layers = (
{
layerId = "04F5D486-D400-49CE-AE86-164151670EAE";
name = Bold;
paths = (
{
closed = 1;
nodes = (
"253 -191 LINE",
"334 -191 OFFCURVE",
"395 -182 OFFCURVE",
"395 -116 CURVE SMOOTH",
"395 -47 LINE",
"286 -47 LINE",
"286 -111 LINE SMOOTH",
"286 -129 OFFCURVE",
"275 -136 OFFCURVE",
"253 -136 CURVE"
);
},
{
closed = 1;
nodes = (
"212 0 LINE",
"212 238 LINE",
"348 238 LINE",
"497 0 LINE",
"653 0 LINE",
"486 267 LINE",
"564 300 OFFCURVE",
"614 383 OFFCURVE",
"614 474 CURVE SMOOTH",
"614 590 OFFCURVE",
"519 710 OFFCURVE",
"388 710 CURVE SMOOTH",
"74 710 LINE",
"74 0 LINE"
);
},
{
closed = 1;
nodes = (
"212 589 LINE",
"379 589 LINE SMOOTH",
"428 589 OFFCURVE",
"475 540 OFFCURVE",
"475 474 CURVE SMOOTH",
"475 410 OFFCURVE",
"436 359 OFFCURVE",
"385 359 CURVE SMOOTH",
"212 359 LINE"
);
}
);
width = 674;
}
);
unicode = 0156;
},
{
glyphname = S;
layers = (
{
layerId = "04F5D486-D400-49CE-AE86-164151670EAE";
name = Bold;
paths = (
{
closed = 1;
nodes = (
"559 636 LINE",
"497 678 OFFCURVE",
"410 715 OFFCURVE",
"311 715 CURVE SMOOTH",
"167 715 OFFCURVE",
"52 637 OFFCURVE",
"52 492 CURVE SMOOTH",
"52 383 OFFCURVE",
"118 337 OFFCURVE",
"253 300 CURVE SMOOTH",
"364 270 OFFCURVE",
"437 252 OFFCURVE",
"437 189 CURVE SMOOTH",
"437 142 OFFCURVE",
"398 116 OFFCURVE",
"323 116 CURVE SMOOTH",
"215 116 OFFCURVE",
"108 179 OFFCURVE",
"84 203 CURVE",
"23 84 LINE",
"105 26 OFFCURVE",
"215 -8 OFFCURVE",
"321 -8 CURVE SMOOTH",
"461 -8 OFFCURVE",
"584 50 OFFCURVE",
"584 203 CURVE SMOOTH",
"584 333 OFFCURVE",
"496 377 OFFCURVE",
"356 413 CURVE SMOOTH",
"249 441 OFFCURVE",
"194 456 OFFCURVE",
"194 514 CURVE SMOOTH",
"194 565 OFFCURVE",
"232 594 OFFCURVE",
"307 594 CURVE SMOOTH",
"392 594 OFFCURVE",
"480 544 OFFCURVE",
"498 524 CURVE"
);
}
);
width = 615;
}
);
unicode = 0053;
},
{
glyphname = S.sc;
layers = (
{
layerId = "04F5D486-D400-49CE-AE86-164151670EAE";
name = Bold;
paths = (
{
closed = 1;
nodes = (
"482 501 LINE",
"430 533 OFFCURVE",
"355 563 OFFCURVE",
"270 563 CURVE SMOOTH",
"149 563 OFFCURVE",
"50 502 OFFCURVE",
"50 386 CURVE SMOOTH",
"50 298 OFFCURVE",
"106 260 OFFCURVE",
"239 226 CURVE SMOOTH",
"326 204 OFFCURVE",
"374 191 OFFCURVE",
"374 152 CURVE SMOOTH",
"374 120 OFFCURVE",
"343 102 OFFCURVE",
"281 102 CURVE SMOOTH",
"190 102 OFFCURVE",
"106 142 OFFCURVE",
"80 169 CURVE",
"25 64 LINE",
"95 20 OFFCURVE",
"189 -7 OFFCURVE",
"279 -7 CURVE SMOOTH",
"398 -7 OFFCURVE",
"504 39 OFFCURVE",
"504 163 CURVE SMOOTH",
"504 266 OFFCURVE",
"429 303 OFFCURVE",
"311 330 CURVE SMOOTH",
"227 349 OFFCURVE",
"175 361 OFFCURVE",
"175 403 CURVE SMOOTH",
"175 437 OFFCURVE",
"208 456 OFFCURVE",
"265 456 CURVE SMOOTH",
"344 456 OFFCURVE",
"410 419 OFFCURVE",
"429 402 CURVE"
);
}
);
width = 536;
}
);
},
{
glyphname = Sacute;
layers = (
{
layerId = "04F5D486-D400-49CE-AE86-164151670EAE";
name = Bold;
paths = (
{
closed = 1;
nodes = (
"450 923 LINE",
"325 923 LINE",
"271 804 LINE",
"357 778 LINE"
);
},
{
closed = 1;
nodes = (
"559 636 LINE",
"497 678 OFFCURVE",
"410 715 OFFCURVE",
"311 715 CURVE SMOOTH",
"167 715 OFFCURVE",
"52 637 OFFCURVE",
"52 492 CURVE SMOOTH",
"52 383 OFFCURVE",
"118 337 OFFCURVE",
"253 300 CURVE SMOOTH",
"364 270 OFFCURVE",
"437 252 OFFCURVE",
"437 189 CURVE SMOOTH",
"437 142 OFFCURVE",
"398 116 OFFCURVE",
"323 116 CURVE SMOOTH",
"215 116 OFFCURVE",
"108 179 OFFCURVE",
"84 203 CURVE",
"23 84 LINE",
"105 26 OFFCURVE",
"215 -8 OFFCURVE",
"321 -8 CURVE SMOOTH",
"461 -8 OFFCURVE",
"584 50 OFFCURVE",
"584 203 CURVE SMOOTH",
"584 333 OFFCURVE",
"496 377 OFFCURVE",
"356 413 CURVE SMOOTH",
"249 441 OFFCURVE",
"194 456 OFFCURVE",
"194 514 CURVE SMOOTH",
"194 565 OFFCURVE",
"232 594 OFFCURVE",
"307 594 CURVE SMOOTH",
"392 594 OFFCURVE",
"480 544 OFFCURVE",
"498 524 CURVE"
);
}
);
width = 615;
}
);
unicode = 015A;
},
{
glyphname = Scaron;
layers = (
{
layerId = "04F5D486-D400-49CE-AE86-164151670EAE";
name = Bold;
paths = (
{
closed = 1;
nodes = (
"168 891 LINE",
"274 790 LINE",
"371 790 LINE",
"477 891 LINE",
"408 923 LINE",
"323 860 LINE",
"238 923 LINE"
);
},
{
closed = 1;
nodes = (
"559 636 LINE",
"497 678 OFFCURVE",
"410 715 OFFCURVE",
"311 715 CURVE SMOOTH",
"167 715 OFFCURVE",
"52 637 OFFCURVE",
"52 492 CURVE SMOOTH",
"52 383 OFFCURVE",
"118 337 OFFCURVE",
"253 300 CURVE SMOOTH",
"364 270 OFFCURVE",
"437 252 OFFCURVE",
"437 189 CURVE SMOOTH",
"437 142 OFFCURVE",
"398 116 OFFCURVE",
"323 116 CURVE SMOOTH",
"215 116 OFFCURVE",
"108 179 OFFCURVE",
"84 203 CURVE",
"23 84 LINE",
"105 26 OFFCURVE",
"215 -8 OFFCURVE",
"321 -8 CURVE SMOOTH",
"461 -8 OFFCURVE",
"584 50 OFFCURVE",
"584 203 CURVE SMOOTH",
"584 333 OFFCURVE",
"496 377 OFFCURVE",
"356 413 CURVE SMOOTH",
"249 441 OFFCURVE",
"194 456 OFFCURVE",
"194 514 CURVE SMOOTH",
"194 565 OFFCURVE",
"232 594 OFFCURVE",
"307 594 CURVE SMOOTH",
"392 594 OFFCURVE",
"480 544 OFFCURVE",
"498 524 CURVE"
);
}
);
width = 615;
}
);
unicode = 0160;
},
{
glyphname = Scircumflex;
layers = (
{
layerId = "04F5D486-D400-49CE-AE86-164151670EAE";
name = Bold;
paths = (
{
closed = 1;
nodes = (
"238 790 LINE",
"323 853 LINE",
"408 790 LINE",
"477 822 LINE",
"371 923 LINE",
"274 923 LINE",
"168 822 LINE"
);
},
{
closed = 1;
nodes = (
"559 636 LINE",
"497 678 OFFCURVE",
"410 715 OFFCURVE",
"311 715 CURVE SMOOTH",
"167 715 OFFCURVE",
"52 637 OFFCURVE",
"52 492 CURVE SMOOTH",
"52 383 OFFCURVE",
"118 337 OFFCURVE",
"253 300 CURVE SMOOTH",
"364 270 OFFCURVE",
"437 252 OFFCURVE",
"437 189 CURVE SMOOTH",
"437 142 OFFCURVE",
"398 116 OFFCURVE",
"323 116 CURVE SMOOTH",
"215 116 OFFCURVE",
"108 179 OFFCURVE",
"84 203 CURVE",
"23 84 LINE",
"105 26 OFFCURVE",
"215 -8 OFFCURVE",
"321 -8 CURVE SMOOTH",
"461 -8 OFFCURVE",
"584 50 OFFCURVE",
"584 203 CURVE SMOOTH",
"584 333 OFFCURVE",
"496 377 OFFCURVE",
"356 413 CURVE SMOOTH",
"249 441 OFFCURVE",
"194 456 OFFCURVE",
"194 514 CURVE SMOOTH",
"194 565 OFFCURVE",
"232 594 OFFCURVE",
"307 594 CURVE SMOOTH",
"392 594 OFFCURVE",
"480 544 OFFCURVE",
"498 524 CURVE"
);
}
);
width = 615;
}
);
unicode = 015C;
},
{
glyphname = T;
layers = (
{
layerId = "04F5D486-D400-49CE-AE86-164151670EAE";
name = Bold;
paths = (
{
closed = 1;
nodes = (
"605 710 LINE",
"14 710 LINE",
"14 589 LINE",
"241 589 LINE",
"241 0 LINE",
"379 0 LINE",
"379 589 LINE",
"605 589 LINE"
);
}
);
width = 620;
}
);
unicode = 0054;
},
{
glyphname = T.sc;
layers = (
{
layerId = "04F5D486-D400-49CE-AE86-164151670EAE";
name = Bold;
paths = (
{
closed = 1;
nodes = (
"534 559 LINE",
"18 559 LINE",
"18 453 LINE",
"216 453 LINE",
"216 0 LINE",
"337 0 LINE",
"337 453 LINE",
"534 453 LINE"
);
}
);
width = 552;
}
);
},
{
glyphname = Tbar;
layers = (
{
layerId = "04F5D486-D400-49CE-AE86-164151670EAE";
name = Bold;
paths = (
{
closed = 1;
nodes = (
"620 710 LINE",
"29 710 LINE",
"29 589 LINE",
"256 589 LINE",
"256 379 LINE",
"66 379 LINE",
"66 313 LINE",
"256 313 LINE",
"256 0 LINE",
"394 0 LINE",
"394 313 LINE",
"583 313 LINE",
"583 379 LINE",
"394 379 LINE",
"394 589 LINE",
"620 589 LINE"
);
}
);
width = 649;
}
);
unicode = 0166;
},
{
glyphname = Tcaron;
layers = (
{
layerId = "04F5D486-D400-49CE-AE86-164151670EAE";
name = Bold;
paths = (
{
closed = 1;
nodes = (
"161 883 LINE",
"267 782 LINE",
"364 782 LINE",
"470 883 LINE",
"401 915 LINE",
"316 852 LINE",
"231 915 LINE"
);
},
{
closed = 1;
nodes = (
"605 710 LINE",
"14 710 LINE",
"14 589 LINE",
"241 589 LINE",
"241 0 LINE",
"379 0 LINE",
"379 589 LINE",
"605 589 LINE"
);
}
);
width = 620;
}
);
unicode = 0164;
},
{
glyphname = Thorn;
layers = (
{
layerId = "04F5D486-D400-49CE-AE86-164151670EAE";
name = Bold;
paths = (
{
closed = 1;
nodes = (
"212 582 LINE",
"212 710 LINE",
"74 710 LINE",
"74 0 LINE",
"212 0 LINE",
"212 110 LINE",
"364 110 LINE SMOOTH",
"495 110 OFFCURVE",
"584 224 OFFCURVE",
"584 346 CURVE SMOOTH",
"584 463 OFFCURVE",
"489 582 OFFCURVE",
"358 582 CURVE SMOOTH"
);
},
{
closed = 1;
nodes = (
"212 231 LINE",
"212 461 LINE",
"351 461 LINE SMOOTH",
"401 461 OFFCURVE",
"447 412 OFFCURVE",
"447 346 CURVE SMOOTH",
"447 283 OFFCURVE",
"409 231 OFFCURVE",
"357 231 CURVE SMOOTH"
);
}
);
width = 606;
}
);
unicode = 00DE;
},
{
glyphname = U;
layers = (
{
layerId = "04F5D486-D400-49CE-AE86-164151670EAE";
name = Bold;
paths = (
{
closed = 1;
nodes = (
"244 117 OFFCURVE",
"201 229 OFFCURVE",
"201 348 CURVE SMOOTH",
"201 710 LINE",
"63 710 LINE",
"63 348 LINE SMOOTH",
"63 164 OFFCURVE",
"147 -5 OFFCURVE",
"374 -5 CURVE SMOOTH",
"593 -5 OFFCURVE",
"684 154 OFFCURVE",
"684 348 CURVE SMOOTH",
"684 710 LINE",
"547 710 LINE",
"547 348 LINE SMOOTH",
"547 232 OFFCURVE",
"505 117 OFFCURVE",
"373 117 CURVE SMOOTH"
);
}
);
width = 748;
}
);
unicode = 0055;
},
{
glyphname = U.sc;
layers = (
{
layerId = "04F5D486-D400-49CE-AE86-164151670EAE";
name = Bold;
paths = (
{
closed = 1;
nodes = (
"215 103 OFFCURVE",
"178 185 OFFCURVE",
"178 273 CURVE SMOOTH",
"178 559 LINE",
"57 559 LINE",
"57 273 LINE SMOOTH",
"57 127 OFFCURVE",
"130 -4 OFFCURVE",
"324 -4 CURVE SMOOTH",
"512 -4 OFFCURVE",
"591 119 OFFCURVE",
"591 273 CURVE SMOOTH",
"591 559 LINE",
"470 559 LINE",
"470 273 LINE SMOOTH",
"470 187 OFFCURVE",
"436 103 OFFCURVE",
"323 103 CURVE SMOOTH"
);
}
);
width = 648;
}
);
},
{
glyphname = Uacute;
layers = (
{
layerId = "04F5D486-D400-49CE-AE86-164151670EAE";
name = Bold;
paths = (
{
closed = 1;
nodes = (
"502 915 LINE",
"377 915 LINE",
"323 796 LINE",
"409 770 LINE"
);
},
{
closed = 1;
nodes = (
"244 117 OFFCURVE",
"201 229 OFFCURVE",
"201 348 CURVE SMOOTH",
"201 710 LINE",
"63 710 LINE",
"63 348 LINE SMOOTH",
"63 164 OFFCURVE",
"147 -5 OFFCURVE",
"374 -5 CURVE SMOOTH",
"593 -5 OFFCURVE",
"684 154 OFFCURVE",
"684 348 CURVE SMOOTH",
"684 710 LINE",
"547 710 LINE",
"547 348 LINE SMOOTH",
"547 232 OFFCURVE",
"505 117 OFFCURVE",
"373 117 CURVE SMOOTH"
);
}
);
width = 748;
}
);
unicode = 00DA;
},
{
glyphname = Ubreve;
layers = (
{
layerId = "04F5D486-D400-49CE-AE86-164151670EAE";
name = Bold;
paths = (
{
closed = 1;
nodes = (
"244 117 OFFCURVE",
"201 229 OFFCURVE",
"201 348 CURVE SMOOTH",
"201 710 LINE",
"63 710 LINE",
"63 348 LINE SMOOTH",
"63 164 OFFCURVE",
"147 -5 OFFCURVE",
"374 -5 CURVE SMOOTH",
"593 -5 OFFCURVE",
"684 154 OFFCURVE",
"684 348 CURVE SMOOTH",
"684 710 LINE",
"547 710 LINE",
"547 348 LINE SMOOTH",
"547 232 OFFCURVE",
"505 117 OFFCURVE",
"373 117 CURVE SMOOTH"
);
},
{
closed = 1;
nodes = (
"343 841 OFFCURVE",
"315 875 OFFCURVE",
"315 915 CURVE",
"243 915 LINE",
"243 838 OFFCURVE",
"298 781 OFFCURVE",
"374 781 CURVE SMOOTH",
"450 781 OFFCURVE",
"505 838 OFFCURVE",
"505 915 CURVE",
"434 915 LINE",
"430 872 OFFCURVE",
"404 841 OFFCURVE",
"374 841 CURVE SMOOTH"
);
}
);
width = 748;
}
);
unicode = 016C;
},
{
glyphname = Ucircumflex;
layers = (
{
layerId = "04F5D486-D400-49CE-AE86-164151670EAE";
name = Bold;
paths = (
{
closed = 1;
nodes = (
"289 782 LINE",
"374 845 LINE",
"459 782 LINE",
"528 814 LINE",
"422 915 LINE",
"325 915 LINE",
"219 814 LINE"
);
},
{
closed = 1;
nodes = (
"244 117 OFFCURVE",
"201 229 OFFCURVE",
"201 348 CURVE SMOOTH",
"201 710 LINE",
"63 710 LINE",
"63 348 LINE SMOOTH",
"63 164 OFFCURVE",
"147 -5 OFFCURVE",
"374 -5 CURVE SMOOTH",
"593 -5 OFFCURVE",
"684 154 OFFCURVE",
"684 348 CURVE SMOOTH",
"684 710 LINE",
"547 710 LINE",
"547 348 LINE SMOOTH",
"547 232 OFFCURVE",
"505 117 OFFCURVE",
"373 117 CURVE SMOOTH"
);
}
);
width = 748;
}
);
unicode = 00DB;
},
{
glyphname = Udieresis;
layers = (
{
layerId = "04F5D486-D400-49CE-AE86-164151670EAE";
name = Bold;
paths = (
{
closed = 1;
nodes = (
"333 790 LINE",
"333 909 LINE",
"222 909 LINE",
"222 790 LINE"
);
},
{
closed = 1;
nodes = (
"525 790 LINE",
"525 909 LINE",
"414 909 LINE",
"414 790 LINE"
);
},
{
closed = 1;
nodes = (
"244 117 OFFCURVE",
"201 229 OFFCURVE",
"201 348 CURVE SMOOTH",
"201 710 LINE",
"63 710 LINE",
"63 348 LINE SMOOTH",
"63 164 OFFCURVE",
"147 -5 OFFCURVE",
"374 -5 CURVE SMOOTH",
"593 -5 OFFCURVE",
"684 154 OFFCURVE",
"684 348 CURVE SMOOTH",
"684 710 LINE",
"547 710 LINE",
"547 348 LINE SMOOTH",
"547 232 OFFCURVE",
"505 117 OFFCURVE",
"373 117 CURVE SMOOTH"
);
}
);
width = 748;
}
);
unicode = 00DC;
},
{
glyphname = Ugrave;
layers = (
{
layerId = "04F5D486-D400-49CE-AE86-164151670EAE";
name = Bold;
paths = (
{
closed = 1;
nodes = (
"244 117 OFFCURVE",
"201 229 OFFCURVE",
"201 348 CURVE SMOOTH",
"201 710 LINE",
"63 710 LINE",
"63 348 LINE SMOOTH",
"63 164 OFFCURVE",
"147 -5 OFFCURVE",
"374 -5 CURVE SMOOTH",
"593 -5 OFFCURVE",
"684 154 OFFCURVE",
"684 348 CURVE SMOOTH",
"684 710 LINE",
"547 710 LINE",
"547 348 LINE SMOOTH",
"547 232 OFFCURVE",
"505 117 OFFCURVE",
"373 117 CURVE SMOOTH"
);
},
{
closed = 1;
nodes = (
"339 771 LINE",
"425 797 LINE",
"370 916 LINE",
"246 916 LINE"
);
}
);
width = 748;
}
);
unicode = 00D9;
},
{
glyphname = Uhungarumlaut;
layers = (
{
layerId = "04F5D486-D400-49CE-AE86-164151670EAE";
name = Bold;
paths = (
{
closed = 1;
nodes = (
"244 117 OFFCURVE",
"201 229 OFFCURVE",
"201 348 CURVE SMOOTH",
"201 710 LINE",
"63 710 LINE",
"63 348 LINE SMOOTH",
"63 164 OFFCURVE",
"147 -5 OFFCURVE",
"374 -5 CURVE SMOOTH",
"593 -5 OFFCURVE",
"684 154 OFFCURVE",
"684 348 CURVE SMOOTH",
"684 710 LINE",
"547 710 LINE",
"547 348 LINE SMOOTH",
"547 232 OFFCURVE",
"505 117 OFFCURVE",
"373 117 CURVE SMOOTH"
);
},
{
closed = 1;
nodes = (
"396 916 LINE",
"292 916 LINE",
"244 797 LINE",
"310 771 LINE"
);
},
{
closed = 1;
nodes = (
"557 916 LINE",
"452 916 LINE",
"405 797 LINE",
"470 771 LINE"
);
}
);
width = 748;
}
);
unicode = 0170;
},
{
glyphname = Umacron;
layers = (
{
layerId = "04F5D486-D400-49CE-AE86-164151670EAE";
name = Bold;
paths = (
{
closed = 1;
nodes = (
"244 117 OFFCURVE",
"201 229 OFFCURVE",
"201 348 CURVE SMOOTH",
"201 710 LINE",
"63 710 LINE",
"63 348 LINE SMOOTH",
"63 164 OFFCURVE",
"147 -5 OFFCURVE",
"374 -5 CURVE SMOOTH",
"593 -5 OFFCURVE",
"684 154 OFFCURVE",
"684 348 CURVE SMOOTH",
"684 710 LINE",
"547 710 LINE",
"547 348 LINE SMOOTH",
"547 232 OFFCURVE",
"505 117 OFFCURVE",
"373 117 CURVE SMOOTH"
);
},
{
closed = 1;
nodes = (
"525 818 LINE",
"525 901 LINE",
"225 901 LINE",
"225 818 LINE"
);
}
);
width = 748;
}
);
unicode = 016A;
},
{
glyphname = Uogonek;
layers = (
{
layerId = "04F5D486-D400-49CE-AE86-164151670EAE";
name = Bold;
paths = (
{
closed = 1;
nodes = (
"244 117 OFFCURVE",
"201 229 OFFCURVE",
"201 348 CURVE SMOOTH",
"201 710 LINE",
"63 710 LINE",
"63 348 LINE SMOOTH",
"63 176 OFFCURVE",
"136 18 OFFCURVE",
"331 -2 CURVE",
"278 -36 OFFCURVE",
"252 -74 OFFCURVE",
"252 -110 CURVE SMOOTH",
"252 -151 OFFCURVE",
"288 -186 OFFCURVE",
"358 -197 CURVE",
"386 -131 LINE",
"344 -129 OFFCURVE",
"324 -114 OFFCURVE",
"324 -91 CURVE SMOOTH",
"324 -64 OFFCURVE",
"348 -35 OFFCURVE",
"401 -4 CURVE",
"600 8 OFFCURVE",
"684 162 OFFCURVE",
"684 348 CURVE SMOOTH",
"684 710 LINE",
"547 710 LINE",
"547 348 LINE SMOOTH",
"547 232 OFFCURVE",
"505 117 OFFCURVE",
"373 117 CURVE SMOOTH"
);
}
);
width = 748;
}
);
unicode = 0172;
},
{
glyphname = Uring;
layers = (
{
layerId = "04F5D486-D400-49CE-AE86-164151670EAE";
name = Bold;
paths = (
{
closed = 1;
nodes = (
"276 789 OFFCURVE",
"315 761 OFFCURVE",
"373 761 CURVE SMOOTH",
"431 761 OFFCURVE",
"470 789 OFFCURVE",
"470 838 CURVE SMOOTH",
"470 887 OFFCURVE",
"431 915 OFFCURVE",
"373 915 CURVE SMOOTH",
"315 915 OFFCURVE",
"276 887 OFFCURVE",
"276 838 CURVE SMOOTH"
);
},
{
closed = 1;
nodes = (
"396 874 OFFCURVE",
"414 860 OFFCURVE",
"414 838 CURVE SMOOTH",
"414 817 OFFCURVE",
"394 802 OFFCURVE",
"373 802 CURVE SMOOTH",
"350 802 OFFCURVE",
"333 818 OFFCURVE",
"333 838 CURVE SMOOTH",
"333 860 OFFCURVE",
"351 874 OFFCURVE",
"373 874 CURVE SMOOTH"
);
},
{
closed = 1;
nodes = (
"244 117 OFFCURVE",
"201 229 OFFCURVE",
"201 348 CURVE SMOOTH",
"201 710 LINE",
"63 710 LINE",
"63 348 LINE SMOOTH",
"63 164 OFFCURVE",
"147 -5 OFFCURVE",
"374 -5 CURVE SMOOTH",
"593 -5 OFFCURVE",
"684 154 OFFCURVE",
"684 348 CURVE SMOOTH",
"684 710 LINE",
"547 710 LINE",
"547 348 LINE SMOOTH",
"547 232 OFFCURVE",
"505 117 OFFCURVE",
"373 117 CURVE SMOOTH"
);
}
);
width = 748;
}
);
unicode = 016E;
},
{
glyphname = Utilde;
layers = (
{
layerId = "04F5D486-D400-49CE-AE86-164151670EAE";
name = Bold;
paths = (
{
closed = 1;
nodes = (
"244 117 OFFCURVE",
"201 229 OFFCURVE",
"201 348 CURVE SMOOTH",
"201 710 LINE",
"63 710 LINE",
"63 348 LINE SMOOTH",
"63 164 OFFCURVE",
"147 -5 OFFCURVE",
"374 -5 CURVE SMOOTH",
"593 -5 OFFCURVE",
"684 154 OFFCURVE",
"684 348 CURVE SMOOTH",
"684 710 LINE",
"547 710 LINE",
"547 348 LINE SMOOTH",
"547 232 OFFCURVE",
"505 117 OFFCURVE",
"373 117 CURVE SMOOTH"
);
},
{
closed = 1;
nodes = (
"530 787 OFFCURVE",
"560 896 OFFCURVE",
"560 915 CURVE",
"486 915 LINE",
"486 911 OFFCURVE",
"481 865 OFFCURVE",
"433 865 CURVE SMOOTH",
"385 865 OFFCURVE",
"362 912 OFFCURVE",
"301 912 CURVE SMOOTH",
"213 912 OFFCURVE",
"184 809 OFFCURVE",
"184 784 CURVE",
"258 784 LINE",
"258 787 OFFCURVE",
"261 832 OFFCURVE",
"306 832 CURVE SMOOTH",
"350 832 OFFCURVE",
"377 787 OFFCURVE",
"437 787 CURVE SMOOTH"
);
}
);
width = 748;
}
);
unicode = 0168;
},
{
glyphname = V;
layers = (
{
layerId = "04F5D486-D400-49CE-AE86-164151670EAE";
name = Bold;
paths = (
{
closed = 1;
nodes = (
"0 710 LINE",
"279 0 LINE",
"395 0 LINE",
"672 710 LINE",
"527 710 LINE",
"337 173 LINE",
"145 710 LINE"
);
}
);
width = 673;
}
);
unicode = 0056;
},
{
glyphname = V.sc;
layers = (
{
layerId = "04F5D486-D400-49CE-AE86-164151670EAE";
name = Bold;
paths = (
{
closed = 1;
nodes = (
"3 559 LINE",
"246 0 LINE",
"348 0 LINE",
"590 559 LINE",
"463 559 LINE",
"298 170 LINE",
"131 559 LINE"
);
}
);
width = 595;
}
);
},
{
color = 4;
glyphname = W;
lastChange = "2014-10-27 22:06:39 +0100";
layers = (
{
layerId = "04F5D486-D400-49CE-AE86-164151670EAE";
name = Bold;
paths = (
{
closed = 1;
nodes = (
"940 710 LINE",
"789 207 LINE",
"623 710 LINE",
"474 710 LINE",
"313 206 LINE",
"161 710 LINE",
"6 710 LINE",
"228 0 LINE",
"371 0 LINE",
"549 485 LINE",
"731 0 LINE",
"873 0 LINE",
"1096 710 LINE"
);
}
);
width = 1101;
}
);
unicode = 0057;
},
{
color = 4;
glyphname = W.sc;
lastChange = "2014-10-27 22:06:39 +0100";
layers = (
{
layerId = "04F5D486-D400-49CE-AE86-164151670EAE";
name = Bold;
paths = (
{
closed = 1;
nodes = (
"711 0 LINE",
"903 559 LINE",
"756 559 LINE",
"628 171 LINE",
"517 559 LINE",
"382 559 LINE",
"271 171 LINE",
"143 559 LINE",
"-4 559 LINE",
"188 0 LINE",
"343 0 LINE",
"449 337 LINE",
"556 0 LINE"
);
}
);
width = 900;
}
);
},
{
color = 4;
glyphname = Wacute;
lastChange = "2014-10-27 22:06:39 +0100";
layers = (
{
layerId = "04F5D486-D400-49CE-AE86-164151670EAE";
name = Bold;
paths = (
{
closed = 1;
nodes = (
"675 915 LINE",
"550 915 LINE",
"496 796 LINE",
"582 770 LINE"
);
},
{
closed = 1;
nodes = (
"940 710 LINE",
"789 207 LINE",
"623 710 LINE",
"474 710 LINE",
"313 206 LINE",
"161 710 LINE",
"6 710 LINE",
"228 0 LINE",
"371 0 LINE",
"549 485 LINE",
"731 0 LINE",
"873 0 LINE",
"1096 710 LINE"
);
}
);
width = 1101;
}
);
unicode = 1E82;
},
{
color = 4;
glyphname = Wcircumflex;
lastChange = "2014-10-27 22:06:39 +0100";
layers = (
{
layerId = "04F5D486-D400-49CE-AE86-164151670EAE";
name = Bold;
paths = (
{
closed = 1;
nodes = (
"464 782 LINE",
"549 845 LINE",
"634 782 LINE",
"703 814 LINE",
"597 915 LINE",
"500 915 LINE",
"394 814 LINE"
);
},
{
closed = 1;
nodes = (
"940 710 LINE",
"789 207 LINE",
"623 710 LINE",
"474 710 LINE",
"313 206 LINE",
"161 710 LINE",
"6 710 LINE",
"228 0 LINE",
"371 0 LINE",
"549 485 LINE",
"731 0 LINE",
"873 0 LINE",
"1096 710 LINE"
);
}
);
width = 1101;
}
);
unicode = 0174;
},
{
color = 4;
glyphname = Wdieresis;
lastChange = "2014-10-27 22:06:39 +0100";
layers = (
{
layerId = "04F5D486-D400-49CE-AE86-164151670EAE";
name = Bold;
paths = (
{
closed = 1;
nodes = (
"506 790 LINE",
"506 909 LINE",
"395 909 LINE",
"395 790 LINE"
);
},
{
closed = 1;
nodes = (
"698 790 LINE",
"698 909 LINE",
"587 909 LINE",
"587 790 LINE"
);
},
{
closed = 1;
nodes = (
"940 710 LINE",
"789 207 LINE",
"623 710 LINE",
"474 710 LINE",
"313 206 LINE",
"161 710 LINE",
"6 710 LINE",
"228 0 LINE",
"371 0 LINE",
"549 485 LINE",
"731 0 LINE",
"873 0 LINE",
"1096 710 LINE"
);
}
);
width = 1101;
}
);
unicode = 1E84;
},
{
color = 4;
glyphname = Wgrave;
lastChange = "2014-10-27 22:06:39 +0100";
layers = (
{
layerId = "04F5D486-D400-49CE-AE86-164151670EAE";
name = Bold;
paths = (
{
closed = 1;
nodes = (
"501 771 LINE",
"587 797 LINE",
"532 916 LINE",
"408 916 LINE"
);
},
{
closed = 1;
nodes = (
"940 710 LINE",
"789 207 LINE",
"623 710 LINE",
"474 710 LINE",
"313 206 LINE",
"161 710 LINE",
"6 710 LINE",
"228 0 LINE",
"371 0 LINE",
"549 485 LINE",
"731 0 LINE",
"873 0 LINE",
"1096 710 LINE"
);
}
);
width = 1101;
}
);
unicode = 1E80;
},
{
glyphname = X;
layers = (
{
layerId = "04F5D486-D400-49CE-AE86-164151670EAE";
name = Bold;
paths = (
{
closed = 1;
nodes = (
"-4 710 LINE",
"249 350 LINE",
"4 0 LINE",
"154 0 LINE",
"323 254 LINE",
"491 0 LINE",
"640 0 LINE",
"395 350 LINE",
"648 710 LINE",
"499 710 LINE",
"323 446 LINE",
"146 710 LINE"
);
}
);
width = 644;
}
);
unicode = 0058;
},
{
glyphname = X.sc;
layers = (
{
layerId = "04F5D486-D400-49CE-AE86-164151670EAE";
name = Bold;
paths = (
{
closed = 1;
nodes = (
"3 559 LINE",
"224 276 LINE",
"10 0 LINE",
"142 0 LINE",
"289 190 LINE",
"436 0 LINE",
"567 0 LINE",
"352 276 LINE",
"574 559 LINE",
"442 559 LINE",
"289 361 LINE",
"135 559 LINE"
);
}
);
width = 577;
}
);
},
{
glyphname = Y;
layers = (
{
layerId = "04F5D486-D400-49CE-AE86-164151670EAE";
name = Bold;
paths = (
{
closed = 1;
nodes = (
"-4 710 LINE",
"253 250 LINE",
"253 0 LINE",
"390 0 LINE",
"390 248 LINE",
"648 710 LINE",
"499 710 LINE",
"321 368 LINE",
"146 710 LINE"
);
}
);
width = 644;
}
);
unicode = 0059;
},
{
glyphname = Y.sc;
layers = (
{
layerId = "04F5D486-D400-49CE-AE86-164151670EAE";
name = Bold;
paths = (
{
closed = 1;
nodes = (
"1 559 LINE",
"224 194 LINE",
"224 0 LINE",
"345 0 LINE",
"345 193 LINE",
"571 559 LINE",
"439 559 LINE",
"284 298 LINE",
"131 559 LINE"
);
}
);
width = 569;
}
);
},
{
glyphname = Yacute;
layers = (
{
layerId = "04F5D486-D400-49CE-AE86-164151670EAE";
name = Bold;
paths = (
{
closed = 1;
nodes = (
"-4 710 LINE",
"253 250 LINE",
"253 0 LINE",
"390 0 LINE",
"390 248 LINE",
"648 710 LINE",
"499 710 LINE",
"321 368 LINE",
"146 710 LINE"
);
},
{
closed = 1;
nodes = (
"449 915 LINE",
"324 915 LINE",
"270 796 LINE",
"356 770 LINE"
);
}
);
width = 644;
}
);
unicode = 00DD;
},
{
glyphname = Ycircumflex;
layers = (
{
layerId = "04F5D486-D400-49CE-AE86-164151670EAE";
name = Bold;
paths = (
{
closed = 1;
nodes = (
"-4 710 LINE",
"253 250 LINE",
"253 0 LINE",
"390 0 LINE",
"390 248 LINE",
"648 710 LINE",
"499 710 LINE",
"321 368 LINE",
"146 710 LINE"
);
},
{
closed = 1;
nodes = (
"237 782 LINE",
"322 845 LINE",
"407 782 LINE",
"476 814 LINE",
"370 915 LINE",
"273 915 LINE",
"167 814 LINE"
);
}
);
width = 644;
}
);
unicode = 0176;
},
{
glyphname = Ydieresis;
layers = (
{
layerId = "04F5D486-D400-49CE-AE86-164151670EAE";
name = Bold;
paths = (
{
closed = 1;
nodes = (
"-4 710 LINE",
"253 250 LINE",
"253 0 LINE",
"390 0 LINE",
"390 248 LINE",
"648 710 LINE",
"499 710 LINE",
"321 368 LINE",
"146 710 LINE"
);
},
{
closed = 1;
nodes = (
"281 790 LINE",
"281 909 LINE",
"170 909 LINE",
"170 790 LINE"
);
},
{
closed = 1;
nodes = (
"473 790 LINE",
"473 909 LINE",
"362 909 LINE",
"362 790 LINE"
);
}
);
width = 644;
}
);
unicode = 0178;
},
{
glyphname = Ygrave;
layers = (
{
layerId = "04F5D486-D400-49CE-AE86-164151670EAE";
name = Bold;
paths = (
{
closed = 1;
nodes = (
"-4 710 LINE",
"253 250 LINE",
"253 0 LINE",
"390 0 LINE",
"390 248 LINE",
"648 710 LINE",
"499 710 LINE",
"321 368 LINE",
"146 710 LINE"
);
},
{
closed = 1;
nodes = (
"287 771 LINE",
"373 797 LINE",
"318 916 LINE",
"194 916 LINE"
);
}
);
width = 644;
}
);
unicode = 1EF2;
},
{
glyphname = Ytilde;
layers = (
{
layerId = "04F5D486-D400-49CE-AE86-164151670EAE";
name = Bold;
paths = (
{
closed = 1;
nodes = (
"-4 710 LINE",
"253 250 LINE",
"253 0 LINE",
"390 0 LINE",
"390 248 LINE",
"648 710 LINE",
"499 710 LINE",
"321 368 LINE",
"146 710 LINE"
);
},
{
closed = 1;
nodes = (
"477 787 OFFCURVE",
"507 896 OFFCURVE",
"507 915 CURVE",
"433 915 LINE",
"433 911 OFFCURVE",
"428 865 OFFCURVE",
"380 865 CURVE SMOOTH",
"332 865 OFFCURVE",
"309 912 OFFCURVE",
"248 912 CURVE SMOOTH",
"160 912 OFFCURVE",
"131 809 OFFCURVE",
"131 784 CURVE",
"205 784 LINE",
"205 787 OFFCURVE",
"208 832 OFFCURVE",
"253 832 CURVE SMOOTH",
"297 832 OFFCURVE",
"324 787 OFFCURVE",
"384 787 CURVE SMOOTH"
);
}
);
width = 644;
}
);
unicode = 1EF8;
},
{
glyphname = Z;
layers = (
{
layerId = "04F5D486-D400-49CE-AE86-164151670EAE";
name = Bold;
paths = (
{
closed = 1;
nodes = (
"28 0 LINE",
"591 0 LINE",
"591 121 LINE",
"200 121 LINE",
"588 606 LINE",
"588 710 LINE",
"39 710 LINE",
"39 589 LINE",
"429 589 LINE",
"28 104 LINE"
);
}
);
width = 623;
}
);
unicode = 005A;
},
{
glyphname = Z.sc;
layers = (
{
layerId = "04F5D486-D400-49CE-AE86-164151670EAE";
name = Bold;
paths = (
{
closed = 1;
nodes = (
"32 0 LINE",
"524 0 LINE",
"524 106 LINE",
"184 106 LINE",
"522 468 LINE",
"522 559 LINE",
"42 559 LINE",
"42 453 LINE",
"381 453 LINE",
"32 91 LINE"
);
}
);
width = 560;
}
);
},
{
glyphname = Zacute;
layers = (
{
layerId = "04F5D486-D400-49CE-AE86-164151670EAE";
name = Bold;
paths = (
{
closed = 1;
nodes = (
"452 915 LINE",
"327 915 LINE",
"273 796 LINE",
"359 770 LINE"
);
},
{
closed = 1;
nodes = (
"28 0 LINE",
"591 0 LINE",
"591 121 LINE",
"200 121 LINE",
"588 606 LINE",
"588 710 LINE",
"39 710 LINE",
"39 589 LINE",
"429 589 LINE",
"28 104 LINE"
);
}
);
width = 623;
}
);
unicode = 0179;
},
{
glyphname = Zcaron;
layers = (
{
layerId = "04F5D486-D400-49CE-AE86-164151670EAE";
name = Bold;
paths = (
{
closed = 1;
nodes = (
"169 883 LINE",
"275 782 LINE",
"372 782 LINE",
"478 883 LINE",
"409 915 LINE",
"324 852 LINE",
"239 915 LINE"
);
},
{
closed = 1;
nodes = (
"28 0 LINE",
"591 0 LINE",
"591 121 LINE",
"200 121 LINE",
"588 606 LINE",
"588 710 LINE",
"39 710 LINE",
"39 589 LINE",
"429 589 LINE",
"28 104 LINE"
);
}
);
width = 623;
}
);
unicode = 017D;
},
{
glyphname = Zdotaccent;
layers = (
{
layerId = "04F5D486-D400-49CE-AE86-164151670EAE";
name = Bold;
paths = (
{
closed = 1;
nodes = (
"28 0 LINE",
"591 0 LINE",
"591 121 LINE",
"200 121 LINE",
"588 606 LINE",
"588 710 LINE",
"39 710 LINE",
"39 589 LINE",
"429 589 LINE",
"28 104 LINE"
);
},
{
closed = 1;
nodes = (
"385 789 LINE",
"385 915 LINE",
"264 915 LINE",
"264 789 LINE"
);
}
);
width = 623;
}
);
unicode = 017B;
},
{
glyphname = a;
layers = (
{
layerId = "04F5D486-D400-49CE-AE86-164151670EAE";
name = Bold;
paths = (
{
closed = 1;
nodes = (
"280 -10 OFFCURVE",
"349 23 OFFCURVE",
"396 84 CURVE",
"399 55 LINE",
"406 18 OFFCURVE",
"432 -6 OFFCURVE",
"482 -7 CURVE SMOOTH",
"498 -7 OFFCURVE",
"521 -5 OFFCURVE",
"546 0 CURVE",
"546 114 LINE",
"520 115 OFFCURVE",
"510 126 OFFCURVE",
"510 154 CURVE SMOOTH",
"510 317 LINE SMOOTH",
"510 456 OFFCURVE",
"422 533 OFFCURVE",
"272 533 CURVE SMOOTH",
"194 533 OFFCURVE",
"122 511 OFFCURVE",
"54 466 CURVE",
"95 381 LINE",
"151 420 OFFCURVE",
"203 440 OFFCURVE",
"259 440 CURVE SMOOTH",
"336 440 OFFCURVE",
"376 401 OFFCURVE",
"376 332 CURVE SMOOTH",
"376 302 LINE",
"342 317 OFFCURVE",
"295 325 OFFCURVE",
"248 325 CURVE SMOOTH",
"117 325 OFFCURVE",
"25 256 OFFCURVE",
"25 156 CURVE SMOOTH",
"25 61 OFFCURVE",
"102 -10 OFFCURVE",
"204 -10 CURVE SMOOTH"
);
},
{
closed = 1;
nodes = (
"191 88 OFFCURVE",
"152 122 OFFCURVE",
"152 167 CURVE SMOOTH",
"152 215 OFFCURVE",
"201 250 OFFCURVE",
"270 250 CURVE SMOOTH",
"304 250 OFFCURVE",
"344 242 OFFCURVE",
"376 230 CURVE",
"376 170 LINE SMOOTH",
"376 157 OFFCURVE",
"368 143 OFFCURVE",
"354 132 CURVE",
"331 105 OFFCURVE",
"287 88 OFFCURVE",
"242 88 CURVE SMOOTH"
);
}
);
width = 578;
}
);
unicode = 0061;
},
{
glyphname = aacute;
layers = (
{
layerId = "04F5D486-D400-49CE-AE86-164151670EAE";
name = Bold;
paths = (
{
closed = 1;
nodes = (
"280 -10 OFFCURVE",
"349 23 OFFCURVE",
"396 84 CURVE",
"399 55 LINE",
"406 18 OFFCURVE",
"432 -6 OFFCURVE",
"482 -7 CURVE SMOOTH",
"498 -7 OFFCURVE",
"521 -5 OFFCURVE",
"546 0 CURVE",
"546 114 LINE",
"520 115 OFFCURVE",
"510 126 OFFCURVE",
"510 154 CURVE SMOOTH",
"510 317 LINE SMOOTH",
"510 456 OFFCURVE",
"422 533 OFFCURVE",
"272 533 CURVE SMOOTH",
"194 533 OFFCURVE",
"122 511 OFFCURVE",
"54 466 CURVE",
"95 381 LINE",
"151 420 OFFCURVE",
"203 440 OFFCURVE",
"259 440 CURVE SMOOTH",
"336 440 OFFCURVE",
"376 401 OFFCURVE",
"376 332 CURVE SMOOTH",
"376 302 LINE",
"342 317 OFFCURVE",
"295 325 OFFCURVE",
"248 325 CURVE SMOOTH",
"117 325 OFFCURVE",
"25 256 OFFCURVE",
"25 156 CURVE SMOOTH",
"25 61 OFFCURVE",
"102 -10 OFFCURVE",
"204 -10 CURVE SMOOTH"
);
},
{
closed = 1;
nodes = (
"191 88 OFFCURVE",
"152 122 OFFCURVE",
"152 167 CURVE SMOOTH",
"152 215 OFFCURVE",
"201 250 OFFCURVE",
"270 250 CURVE SMOOTH",
"304 250 OFFCURVE",
"344 242 OFFCURVE",
"376 230 CURVE",
"376 170 LINE SMOOTH",
"376 157 OFFCURVE",
"368 143 OFFCURVE",
"354 132 CURVE",
"331 105 OFFCURVE",
"287 88 OFFCURVE",
"242 88 CURVE SMOOTH"
);
},
{
closed = 1;
nodes = (
"400 730 LINE",
"275 730 LINE",
"221 611 LINE",
"307 585 LINE"
);
}
);
width = 578;
}
);
unicode = 00E1;
},
{
glyphname = abreve;
layers = (
{
layerId = "04F5D486-D400-49CE-AE86-164151670EAE";
name = Bold;
paths = (
{
closed = 1;
nodes = (
"280 -10 OFFCURVE",
"349 23 OFFCURVE",
"396 84 CURVE",
"399 55 LINE",
"406 18 OFFCURVE",
"432 -6 OFFCURVE",
"482 -7 CURVE SMOOTH",
"498 -7 OFFCURVE",
"521 -5 OFFCURVE",
"546 0 CURVE",
"546 114 LINE",
"520 115 OFFCURVE",
"510 126 OFFCURVE",
"510 154 CURVE SMOOTH",
"510 317 LINE SMOOTH",
"510 456 OFFCURVE",
"422 533 OFFCURVE",
"272 533 CURVE SMOOTH",
"194 533 OFFCURVE",
"122 511 OFFCURVE",
"54 466 CURVE",
"95 381 LINE",
"151 420 OFFCURVE",
"203 440 OFFCURVE",
"259 440 CURVE SMOOTH",
"336 440 OFFCURVE",
"376 401 OFFCURVE",
"376 332 CURVE SMOOTH",
"376 302 LINE",
"342 317 OFFCURVE",
"295 325 OFFCURVE",
"248 325 CURVE SMOOTH",
"117 325 OFFCURVE",
"25 256 OFFCURVE",
"25 156 CURVE SMOOTH",
"25 61 OFFCURVE",
"102 -10 OFFCURVE",
"204 -10 CURVE SMOOTH"
);
},
{
closed = 1;
nodes = (
"191 88 OFFCURVE",
"152 122 OFFCURVE",
"152 167 CURVE SMOOTH",
"152 215 OFFCURVE",
"201 250 OFFCURVE",
"270 250 CURVE SMOOTH",
"304 250 OFFCURVE",
"344 242 OFFCURVE",
"376 230 CURVE",
"376 170 LINE SMOOTH",
"376 157 OFFCURVE",
"368 143 OFFCURVE",
"354 132 CURVE",
"331 105 OFFCURVE",
"287 88 OFFCURVE",
"242 88 CURVE SMOOTH"
);
},
{
closed = 1;
nodes = (
"241 656 OFFCURVE",
"213 690 OFFCURVE",
"213 730 CURVE",
"141 730 LINE",
"141 653 OFFCURVE",
"196 596 OFFCURVE",
"272 596 CURVE SMOOTH",
"348 596 OFFCURVE",
"403 653 OFFCURVE",
"403 730 CURVE",
"332 730 LINE",
"328 687 OFFCURVE",
"302 656 OFFCURVE",
"272 656 CURVE SMOOTH"
);
}
);
width = 578;
}
);
unicode = 0103;
},
{
glyphname = acircumflex;
layers = (
{
layerId = "04F5D486-D400-49CE-AE86-164151670EAE";
name = Bold;
paths = (
{
closed = 1;
nodes = (
"280 -10 OFFCURVE",
"349 23 OFFCURVE",
"396 84 CURVE",
"399 55 LINE",
"406 18 OFFCURVE",
"432 -6 OFFCURVE",
"482 -7 CURVE SMOOTH",
"498 -7 OFFCURVE",
"521 -5 OFFCURVE",
"546 0 CURVE",
"546 114 LINE",
"520 115 OFFCURVE",
"510 126 OFFCURVE",
"510 154 CURVE SMOOTH",
"510 317 LINE SMOOTH",
"510 456 OFFCURVE",
"422 533 OFFCURVE",
"272 533 CURVE SMOOTH",
"194 533 OFFCURVE",
"122 511 OFFCURVE",
"54 466 CURVE",
"95 381 LINE",
"151 420 OFFCURVE",
"203 440 OFFCURVE",
"259 440 CURVE SMOOTH",
"336 440 OFFCURVE",
"376 401 OFFCURVE",
"376 332 CURVE SMOOTH",
"376 302 LINE",
"342 317 OFFCURVE",
"295 325 OFFCURVE",
"248 325 CURVE SMOOTH",
"117 325 OFFCURVE",
"25 256 OFFCURVE",
"25 156 CURVE SMOOTH",
"25 61 OFFCURVE",
"102 -10 OFFCURVE",
"204 -10 CURVE SMOOTH"
);
},
{
closed = 1;
nodes = (
"191 88 OFFCURVE",
"152 122 OFFCURVE",
"152 167 CURVE SMOOTH",
"152 215 OFFCURVE",
"201 250 OFFCURVE",
"270 250 CURVE SMOOTH",
"304 250 OFFCURVE",
"344 242 OFFCURVE",
"376 230 CURVE",
"376 170 LINE SMOOTH",
"376 157 OFFCURVE",
"368 143 OFFCURVE",
"354 132 CURVE",
"331 105 OFFCURVE",
"287 88 OFFCURVE",
"242 88 CURVE SMOOTH"
);
},
{
closed = 1;
nodes = (
"188 597 LINE",
"273 660 LINE",
"358 597 LINE",
"427 629 LINE",
"321 730 LINE",
"224 730 LINE",
"118 629 LINE"
);
}
);
width = 578;
}
);
unicode = 00E2;
},
{
glyphname = adieresis;
layers = (
{
layerId = "04F5D486-D400-49CE-AE86-164151670EAE";
name = Bold;
paths = (
{
closed = 1;
nodes = (
"280 -10 OFFCURVE",
"349 23 OFFCURVE",
"396 84 CURVE",
"399 55 LINE",
"406 18 OFFCURVE",
"432 -6 OFFCURVE",
"482 -7 CURVE SMOOTH",
"498 -7 OFFCURVE",
"521 -5 OFFCURVE",
"546 0 CURVE",
"546 114 LINE",
"520 115 OFFCURVE",
"510 126 OFFCURVE",
"510 154 CURVE SMOOTH",
"510 317 LINE SMOOTH",
"510 456 OFFCURVE",
"422 533 OFFCURVE",
"272 533 CURVE SMOOTH",
"194 533 OFFCURVE",
"122 511 OFFCURVE",
"54 466 CURVE",
"95 381 LINE",
"151 420 OFFCURVE",
"203 440 OFFCURVE",
"259 440 CURVE SMOOTH",
"336 440 OFFCURVE",
"376 401 OFFCURVE",
"376 332 CURVE SMOOTH",
"376 302 LINE",
"342 317 OFFCURVE",
"295 325 OFFCURVE",
"248 325 CURVE SMOOTH",
"117 325 OFFCURVE",
"25 256 OFFCURVE",
"25 156 CURVE SMOOTH",
"25 61 OFFCURVE",
"102 -10 OFFCURVE",
"204 -10 CURVE SMOOTH"
);
},
{
closed = 1;
nodes = (
"191 88 OFFCURVE",
"152 122 OFFCURVE",
"152 167 CURVE SMOOTH",
"152 215 OFFCURVE",
"201 250 OFFCURVE",
"270 250 CURVE SMOOTH",
"304 250 OFFCURVE",
"344 242 OFFCURVE",
"376 230 CURVE",
"376 170 LINE SMOOTH",
"376 157 OFFCURVE",
"368 143 OFFCURVE",
"354 132 CURVE",
"331 105 OFFCURVE",
"287 88 OFFCURVE",
"242 88 CURVE SMOOTH"
);
},
{
closed = 1;
nodes = (
"232 604 LINE",
"232 723 LINE",
"121 723 LINE",
"121 604 LINE"
);
},
{
closed = 1;
nodes = (
"424 604 LINE",
"424 723 LINE",
"313 723 LINE",
"313 604 LINE"
);
}
);
width = 578;
}
);
unicode = 00E4;
},
{
glyphname = ae;
layers = (
{
layerId = "04F5D486-D400-49CE-AE86-164151670EAE";
name = Bold;
paths = (
{
closed = 1;
nodes = (
"278 -10 OFFCURVE",
"371 22 OFFCURVE",
"419 98 CURVE",
"465 33 OFFCURVE",
"544 -10 OFFCURVE",
"643 -10 CURVE SMOOTH",
"759 -10 OFFCURVE",
"849 47 OFFCURVE",
"887 127 CURVE",
"772 159 LINE",
"755 116 OFFCURVE",
"701 88 OFFCURVE",
"648 88 CURVE SMOOTH",
"575 88 OFFCURVE",
"510 137 OFFCURVE",
"504 219 CURVE",
"914 219 LINE",
"916 230 OFFCURVE",
"917 248 OFFCURVE",
"917 262 CURVE",
"916 408 OFFCURVE",
"813 533 OFFCURVE",
"642 533 CURVE SMOOTH",
"564 533 OFFCURVE",
"500 504 OFFCURVE",
"456 459 CURVE",
"417 506 OFFCURVE",
"355 533 OFFCURVE",
"273 533 CURVE SMOOTH",
"195 533 OFFCURVE",
"123 511 OFFCURVE",
"55 466 CURVE",
"95 381 LINE",
"152 420 OFFCURVE",
"204 440 OFFCURVE",
"260 440 CURVE SMOOTH",
"331 440 OFFCURVE",
"369 408 OFFCURVE",
"375 349 CURVE",
"371 338 OFFCURVE",
"368 317 OFFCURVE",
"367 305 CURVE",
"335 318 OFFCURVE",
"292 325 OFFCURVE",
"249 325 CURVE SMOOTH",
"118 325 OFFCURVE",
"26 256 OFFCURVE",
"26 156 CURVE SMOOTH",
"26 61 OFFCURVE",
"103 -10 OFFCURVE",
"205 -10 CURVE SMOOTH"
);
},
{
closed = 1;
nodes = (
"192 88 OFFCURVE",
"152 122 OFFCURVE",
"152 167 CURVE SMOOTH",
"152 215 OFFCURVE",
"202 250 OFFCURVE",
"271 250 CURVE SMOOTH",
"302 250 OFFCURVE",
"338 243 OFFCURVE",
"367 233 CURVE",
"368 219 OFFCURVE",
"371 180 OFFCURVE",
"377 168 CURVE",
"377 156 OFFCURVE",
"368 142 OFFCURVE",
"356 132 CURVE",
"332 105 OFFCURVE",
"288 88 OFFCURVE",
"243 88 CURVE SMOOTH"
);
},
{
closed = 1;
nodes = (
"502 302 LINE",
"508 382 OFFCURVE",
"564 436 OFFCURVE",
"640 436 CURVE SMOOTH",
"716 436 OFFCURVE",
"772 382 OFFCURVE",
"779 302 CURVE"
);
}
);
width = 938;
}
);
unicode = 00E6;
},
{
glyphname = aeacute;
layers = (
{
layerId = "04F5D486-D400-49CE-AE86-164151670EAE";
name = Bold;
paths = (
{
closed = 1;
nodes = (
"583 730 LINE",
"458 730 LINE",
"404 611 LINE",
"490 585 LINE"
);
},
{
closed = 1;
nodes = (
"278 -10 OFFCURVE",
"371 22 OFFCURVE",
"419 98 CURVE",
"465 33 OFFCURVE",
"544 -10 OFFCURVE",
"643 -10 CURVE SMOOTH",
"759 -10 OFFCURVE",
"849 47 OFFCURVE",
"887 127 CURVE",
"772 159 LINE",
"755 116 OFFCURVE",
"701 88 OFFCURVE",
"648 88 CURVE SMOOTH",
"575 88 OFFCURVE",
"510 137 OFFCURVE",
"504 219 CURVE",
"914 219 LINE",
"916 230 OFFCURVE",
"917 248 OFFCURVE",
"917 262 CURVE",
"916 408 OFFCURVE",
"813 533 OFFCURVE",
"642 533 CURVE SMOOTH",
"564 533 OFFCURVE",
"500 504 OFFCURVE",
"456 459 CURVE",
"417 506 OFFCURVE",
"355 533 OFFCURVE",
"273 533 CURVE SMOOTH",
"195 533 OFFCURVE",
"123 511 OFFCURVE",
"55 466 CURVE",
"95 381 LINE",
"152 420 OFFCURVE",
"204 440 OFFCURVE",
"260 440 CURVE SMOOTH",
"331 440 OFFCURVE",
"369 408 OFFCURVE",
"375 349 CURVE",
"371 338 OFFCURVE",
"368 317 OFFCURVE",
"367 305 CURVE",
"335 318 OFFCURVE",
"292 325 OFFCURVE",
"249 325 CURVE SMOOTH",
"118 325 OFFCURVE",
"26 256 OFFCURVE",
"26 156 CURVE SMOOTH",
"26 61 OFFCURVE",
"103 -10 OFFCURVE",
"205 -10 CURVE SMOOTH"
);
},
{
closed = 1;
nodes = (
"192 88 OFFCURVE",
"152 122 OFFCURVE",
"152 167 CURVE SMOOTH",
"152 215 OFFCURVE",
"202 250 OFFCURVE",
"271 250 CURVE SMOOTH",
"302 250 OFFCURVE",
"338 243 OFFCURVE",
"367 233 CURVE",
"368 219 OFFCURVE",
"371 180 OFFCURVE",
"377 168 CURVE",
"377 156 OFFCURVE",
"368 142 OFFCURVE",
"356 132 CURVE",
"332 105 OFFCURVE",
"288 88 OFFCURVE",
"243 88 CURVE SMOOTH"
);
},
{
closed = 1;
nodes = (
"502 302 LINE",
"508 382 OFFCURVE",
"564 436 OFFCURVE",
"640 436 CURVE SMOOTH",
"716 436 OFFCURVE",
"772 382 OFFCURVE",
"779 302 CURVE"
);
}
);
width = 938;
}
);
unicode = 01FD;
},
{
glyphname = agrave;
layers = (
{
layerId = "04F5D486-D400-49CE-AE86-164151670EAE";
name = Bold;
paths = (
{
closed = 1;
nodes = (
"280 -10 OFFCURVE",
"349 23 OFFCURVE",
"396 84 CURVE",
"399 55 LINE",
"406 18 OFFCURVE",
"432 -6 OFFCURVE",
"482 -7 CURVE SMOOTH",
"498 -7 OFFCURVE",
"521 -5 OFFCURVE",
"546 0 CURVE",
"546 114 LINE",
"520 115 OFFCURVE",
"510 126 OFFCURVE",
"510 154 CURVE SMOOTH",
"510 317 LINE SMOOTH",
"510 456 OFFCURVE",
"422 533 OFFCURVE",
"272 533 CURVE SMOOTH",
"194 533 OFFCURVE",
"122 511 OFFCURVE",
"54 466 CURVE",
"95 381 LINE",
"151 420 OFFCURVE",
"203 440 OFFCURVE",
"259 440 CURVE SMOOTH",
"336 440 OFFCURVE",
"376 401 OFFCURVE",
"376 332 CURVE SMOOTH",
"376 302 LINE",
"342 317 OFFCURVE",
"295 325 OFFCURVE",
"248 325 CURVE SMOOTH",
"117 325 OFFCURVE",
"25 256 OFFCURVE",
"25 156 CURVE SMOOTH",
"25 61 OFFCURVE",
"102 -10 OFFCURVE",
"204 -10 CURVE SMOOTH"
);
},
{
closed = 1;
nodes = (
"191 88 OFFCURVE",
"152 122 OFFCURVE",
"152 167 CURVE SMOOTH",
"152 215 OFFCURVE",
"201 250 OFFCURVE",
"270 250 CURVE SMOOTH",
"304 250 OFFCURVE",
"344 242 OFFCURVE",
"376 230 CURVE",
"376 170 LINE SMOOTH",
"376 157 OFFCURVE",
"368 143 OFFCURVE",
"354 132 CURVE",
"331 105 OFFCURVE",
"287 88 OFFCURVE",
"242 88 CURVE SMOOTH"
);
},
{
closed = 1;
nodes = (
"238 585 LINE",
"324 611 LINE",
"269 730 LINE",
"145 730 LINE"
);
}
);
width = 578;
}
);
unicode = 00E0;
},
{
glyphname = amacron;
layers = (
{
layerId = "04F5D486-D400-49CE-AE86-164151670EAE";
name = Bold;
paths = (
{
closed = 1;
nodes = (
"280 -10 OFFCURVE",
"349 23 OFFCURVE",
"396 84 CURVE",
"399 55 LINE",
"406 18 OFFCURVE",
"432 -6 OFFCURVE",
"482 -7 CURVE SMOOTH",
"498 -7 OFFCURVE",
"521 -5 OFFCURVE",
"546 0 CURVE",
"546 114 LINE",
"520 115 OFFCURVE",
"510 126 OFFCURVE",
"510 154 CURVE SMOOTH",
"510 317 LINE SMOOTH",
"510 456 OFFCURVE",
"422 533 OFFCURVE",
"272 533 CURVE SMOOTH",
"194 533 OFFCURVE",
"122 511 OFFCURVE",
"54 466 CURVE",
"95 381 LINE",
"151 420 OFFCURVE",
"203 440 OFFCURVE",
"259 440 CURVE SMOOTH",
"336 440 OFFCURVE",
"376 401 OFFCURVE",
"376 332 CURVE SMOOTH",
"376 302 LINE",
"342 317 OFFCURVE",
"295 325 OFFCURVE",
"248 325 CURVE SMOOTH",
"117 325 OFFCURVE",
"25 256 OFFCURVE",
"25 156 CURVE SMOOTH",
"25 61 OFFCURVE",
"102 -10 OFFCURVE",
"204 -10 CURVE SMOOTH"
);
},
{
closed = 1;
nodes = (
"191 88 OFFCURVE",
"152 122 OFFCURVE",
"152 167 CURVE SMOOTH",
"152 215 OFFCURVE",
"201 250 OFFCURVE",
"270 250 CURVE SMOOTH",
"304 250 OFFCURVE",
"344 242 OFFCURVE",
"376 230 CURVE",
"376 170 LINE SMOOTH",
"376 157 OFFCURVE",
"368 143 OFFCURVE",
"354 132 CURVE",
"331 105 OFFCURVE",
"287 88 OFFCURVE",
"242 88 CURVE SMOOTH"
);
},
{
closed = 1;
nodes = (
"423 633 LINE",
"423 716 LINE",
"123 716 LINE",
"123 633 LINE"
);
}
);
width = 578;
}
);
unicode = 0101;
},
{
glyphname = ampersand;
layers = (
{
layerId = "04F5D486-D400-49CE-AE86-164151670EAE";
name = Bold;
paths = (
{
closed = 1;
nodes = (
"712 0 LINE",
"565 154 LINE",
"604 216 OFFCURVE",
"627 295 OFFCURVE",
"628 389 CURVE",
"519 389 LINE",
"519 331 OFFCURVE",
"507 279 OFFCURVE",
"487 236 CURVE",
"350 379 LINE",
"420 429 OFFCURVE",
"471 485 OFFCURVE",
"471 562 CURVE SMOOTH",
"471 666 OFFCURVE",
"381 719 OFFCURVE",
"282 719 CURVE SMOOTH",
"171 719 OFFCURVE",
"88 651 OFFCURVE",
"88 549 CURVE SMOOTH",
"88 499 OFFCURVE",
"108 460 OFFCURVE",
"163 397 CURVE",
"98 350 OFFCURVE",
"41 289 OFFCURVE",
"41 201 CURVE SMOOTH",
"41 88 OFFCURVE",
"134 -10 OFFCURVE",
"280 -10 CURVE SMOOTH",
"352 -10 OFFCURVE",
"422 14 OFFCURVE",
"480 59 CURVE",
"536 0 LINE"
);
},
{
closed = 1;
nodes = (
"221 95 OFFCURVE",
"170 143 OFFCURVE",
"170 200 CURVE SMOOTH",
"170 243 OFFCURVE",
"199 276 OFFCURVE",
"244 309 CURVE",
"408 135 LINE",
"374 109 OFFCURVE",
"334 95 OFFCURVE",
"294 95 CURVE SMOOTH"
);
},
{
closed = 1;
nodes = (
"210 590 OFFCURVE",
"239 620 OFFCURVE",
"282 620 CURVE SMOOTH",
"321 620 OFFCURVE",
"349 596 OFFCURVE",
"349 560 CURVE SMOOTH",
"349 523 OFFCURVE",
"319 499 OFFCURVE",
"267 466 CURVE",
"223 513 OFFCURVE",
"210 530 OFFCURVE",
"210 553 CURVE SMOOTH"
);
}
);
width = 716;
}
);
unicode = 0026;
},
{
glyphname = aogonek;
layers = (
{
layerId = "04F5D486-D400-49CE-AE86-164151670EAE";
name = Bold;
paths = (
{
closed = 1;
nodes = (
"526 -130 LINE",
"484 -128 OFFCURVE",
"464 -113 OFFCURVE",
"464 -90 CURVE SMOOTH",
"464 -62 OFFCURVE",
"490 -33 OFFCURVE",
"546 0 CURVE",
"546 114 LINE",
"520 115 OFFCURVE",
"510 126 OFFCURVE",
"510 154 CURVE SMOOTH",
"510 317 LINE SMOOTH",
"510 456 OFFCURVE",
"422 533 OFFCURVE",
"272 533 CURVE SMOOTH",
"194 533 OFFCURVE",
"122 511 OFFCURVE",
"54 466 CURVE",
"95 381 LINE",
"151 420 OFFCURVE",
"203 440 OFFCURVE",
"259 440 CURVE SMOOTH",
"336 440 OFFCURVE",
"376 401 OFFCURVE",
"376 332 CURVE SMOOTH",
"376 302 LINE",
"342 317 OFFCURVE",
"295 325 OFFCURVE",
"248 325 CURVE SMOOTH",
"117 325 OFFCURVE",
"25 256 OFFCURVE",
"25 156 CURVE SMOOTH",
"25 61 OFFCURVE",
"102 -10 OFFCURVE",
"204 -10 CURVE SMOOTH",
"280 -10 OFFCURVE",
"349 23 OFFCURVE",
"396 84 CURVE",
"399 55 LINE",
"405 22 OFFCURVE",
"426 0 OFFCURVE",
"465 -5 CURVE",
"416 -38 OFFCURVE",
"392 -74 OFFCURVE",
"392 -109 CURVE SMOOTH",
"392 -150 OFFCURVE",
"428 -185 OFFCURVE",
"498 -196 CURVE"
);
},
{
closed = 1;
nodes = (
"191 88 OFFCURVE",
"152 122 OFFCURVE",
"152 167 CURVE SMOOTH",
"152 215 OFFCURVE",
"201 250 OFFCURVE",
"270 250 CURVE SMOOTH",
"304 250 OFFCURVE",
"344 242 OFFCURVE",
"376 230 CURVE",
"376 170 LINE SMOOTH",
"376 157 OFFCURVE",
"368 143 OFFCURVE",
"354 132 CURVE",
"331 105 OFFCURVE",
"287 88 OFFCURVE",
"242 88 CURVE SMOOTH"
);
}
);
width = 578;
}
);
unicode = 0105;
},
{
glyphname = apostrophe;
layers = (
{
layerId = "04F5D486-D400-49CE-AE86-164151670EAE";
name = Bold;
paths = (
{
closed = 1;
nodes = (
"294 730 LINE",
"143 730 LINE",
"150 684 LINE",
"116 611 LINE",
"201 585 LINE"
);
}
);
width = 376;
}
);
unicode = 02BC;
},
{
glyphname = aring;
layers = (
{
layerId = "04F5D486-D400-49CE-AE86-164151670EAE";
name = Bold;
paths = (
{
closed = 1;
nodes = (
"280 -10 OFFCURVE",
"349 23 OFFCURVE",
"396 84 CURVE",
"399 55 LINE",
"406 18 OFFCURVE",
"432 -6 OFFCURVE",
"482 -7 CURVE SMOOTH",
"498 -7 OFFCURVE",
"521 -5 OFFCURVE",
"546 0 CURVE",
"546 114 LINE",
"520 115 OFFCURVE",
"510 126 OFFCURVE",
"510 154 CURVE SMOOTH",
"510 317 LINE SMOOTH",
"510 456 OFFCURVE",
"422 533 OFFCURVE",
"272 533 CURVE SMOOTH",
"194 533 OFFCURVE",
"122 511 OFFCURVE",
"54 466 CURVE",
"95 381 LINE",
"151 420 OFFCURVE",
"203 440 OFFCURVE",
"259 440 CURVE SMOOTH",
"336 440 OFFCURVE",
"376 401 OFFCURVE",
"376 332 CURVE SMOOTH",
"376 302 LINE",
"342 317 OFFCURVE",
"295 325 OFFCURVE",
"248 325 CURVE SMOOTH",
"117 325 OFFCURVE",
"25 256 OFFCURVE",
"25 156 CURVE SMOOTH",
"25 61 OFFCURVE",
"102 -10 OFFCURVE",
"204 -10 CURVE SMOOTH"
);
},
{
closed = 1;
nodes = (
"191 88 OFFCURVE",
"152 122 OFFCURVE",
"152 167 CURVE SMOOTH",
"152 215 OFFCURVE",
"201 250 OFFCURVE",
"270 250 CURVE SMOOTH",
"304 250 OFFCURVE",
"344 242 OFFCURVE",
"376 230 CURVE",
"376 170 LINE SMOOTH",
"376 157 OFFCURVE",
"368 143 OFFCURVE",
"354 132 CURVE",
"331 105 OFFCURVE",
"287 88 OFFCURVE",
"242 88 CURVE SMOOTH"
);
},
{
closed = 1;
nodes = (
"175 604 OFFCURVE",
"214 576 OFFCURVE",
"272 576 CURVE SMOOTH",
"330 576 OFFCURVE",
"369 604 OFFCURVE",
"369 653 CURVE SMOOTH",
"369 702 OFFCURVE",
"330 730 OFFCURVE",
"272 730 CURVE SMOOTH",
"214 730 OFFCURVE",
"175 702 OFFCURVE",
"175 653 CURVE SMOOTH"
);
},
{
closed = 1;
nodes = (
"295 689 OFFCURVE",
"313 675 OFFCURVE",
"313 653 CURVE SMOOTH",
"313 632 OFFCURVE",
"293 617 OFFCURVE",
"272 617 CURVE SMOOTH",
"249 617 OFFCURVE",
"232 633 OFFCURVE",
"232 653 CURVE SMOOTH",
"232 675 OFFCURVE",
"250 689 OFFCURVE",
"272 689 CURVE SMOOTH"
);
}
);
width = 578;
}
);
unicode = 00E5;
},
{
glyphname = aringacute;
layers = (
{
layerId = "04F5D486-D400-49CE-AE86-164151670EAE";
name = Bold;
paths = (
{
closed = 1;
nodes = (
"280 -10 OFFCURVE",
"349 23 OFFCURVE",
"396 84 CURVE",
"399 55 LINE",
"406 18 OFFCURVE",
"432 -6 OFFCURVE",
"482 -7 CURVE SMOOTH",
"498 -7 OFFCURVE",
"521 -5 OFFCURVE",
"546 0 CURVE",
"546 114 LINE",
"520 115 OFFCURVE",
"510 126 OFFCURVE",
"510 154 CURVE SMOOTH",
"510 317 LINE SMOOTH",
"510 456 OFFCURVE",
"422 533 OFFCURVE",
"272 533 CURVE SMOOTH",
"194 533 OFFCURVE",
"122 511 OFFCURVE",
"54 466 CURVE",
"95 381 LINE",
"151 420 OFFCURVE",
"203 440 OFFCURVE",
"259 440 CURVE SMOOTH",
"336 440 OFFCURVE",
"376 401 OFFCURVE",
"376 332 CURVE SMOOTH",
"376 302 LINE",
"342 317 OFFCURVE",
"295 325 OFFCURVE",
"248 325 CURVE SMOOTH",
"117 325 OFFCURVE",
"25 256 OFFCURVE",
"25 156 CURVE SMOOTH",
"25 61 OFFCURVE",
"102 -10 OFFCURVE",
"204 -10 CURVE SMOOTH"
);
},
{
closed = 1;
nodes = (
"191 88 OFFCURVE",
"152 122 OFFCURVE",
"152 167 CURVE SMOOTH",
"152 215 OFFCURVE",
"201 250 OFFCURVE",
"270 250 CURVE SMOOTH",
"304 250 OFFCURVE",
"344 242 OFFCURVE",
"376 230 CURVE",
"376 170 LINE SMOOTH",
"376 157 OFFCURVE",
"368 143 OFFCURVE",
"354 132 CURVE",
"331 105 OFFCURVE",
"287 88 OFFCURVE",
"242 88 CURVE SMOOTH"
);
},
{
closed = 1;
nodes = (
"400 900 LINE",
"275 900 LINE",
"221 781 LINE",
"307 755 LINE"
);
},
{
closed = 1;
nodes = (
"175 604 OFFCURVE",
"214 576 OFFCURVE",
"272 576 CURVE SMOOTH",
"330 576 OFFCURVE",
"369 604 OFFCURVE",
"369 653 CURVE SMOOTH",
"369 702 OFFCURVE",
"330 730 OFFCURVE",
"272 730 CURVE SMOOTH",
"214 730 OFFCURVE",
"175 702 OFFCURVE",
"175 653 CURVE SMOOTH"
);
},
{
closed = 1;
nodes = (
"295 689 OFFCURVE",
"313 675 OFFCURVE",
"313 653 CURVE SMOOTH",
"313 632 OFFCURVE",
"293 617 OFFCURVE",
"272 617 CURVE SMOOTH",
"249 617 OFFCURVE",
"232 633 OFFCURVE",
"232 653 CURVE SMOOTH",
"232 675 OFFCURVE",
"250 689 OFFCURVE",
"272 689 CURVE SMOOTH"
);
}
);
width = 578;
}
);
unicode = 01FB;
},
{
glyphname = asciicircum;
layers = (
{
layerId = "04F5D486-D400-49CE-AE86-164151670EAE";
name = Bold;
paths = (
{
closed = 1;
nodes = (
"148 303 LINE",
"294 597 LINE",
"437 303 LINE",
"547 303 LINE",
"350 710 LINE",
"238 710 LINE",
"40 303 LINE"
);
}
);
width = 587;
}
);
unicode = 005E;
},
{
glyphname = asciitilde;
layers = (
{
layerId = "04F5D486-D400-49CE-AE86-164151670EAE";
name = Bold;
paths = (
{
closed = 1;
nodes = (
"128 228 LINE",
"128 230 OFFCURVE",
"138 280 OFFCURVE",
"192 280 CURVE SMOOTH",
"249 280 OFFCURVE",
"296 228 OFFCURVE",
"368 228 CURVE SMOOTH",
"478 228 OFFCURVE",
"512 344 OFFCURVE",
"512 358 CURVE",
"438 358 LINE",
"438 353 OFFCURVE",
"425 306 OFFCURVE",
"369 306 CURVE SMOOTH",
"310 306 OFFCURVE",
"265 360 OFFCURVE",
"193 360 CURVE SMOOTH",
"88 360 OFFCURVE",
"54 251 OFFCURVE",
"54 228 CURVE"
);
}
);
width = 562;
}
);
unicode = 007E;
},
{
glyphname = asterisk;
layers = (
{
layerId = "04F5D486-D400-49CE-AE86-164151670EAE";
name = Bold;
paths = (
{
closed = 1;
nodes = (
"127 486 LINE",
"173 561 LINE",
"218 486 LINE",
"270 520 LINE",
"223 591 LINE",
"293 613 LINE",
"275 671 LINE",
"203 640 LINE",
"208 717 LINE",
"137 717 LINE",
"142 640 LINE",
"69 671 LINE",
"51 613 LINE",
"122 591 LINE",
"75 520 LINE"
);
}
);
width = 345;
}
);
unicode = 002A;
},
{
glyphname = at;
layers = (
{
layerId = "04F5D486-D400-49CE-AE86-164151670EAE";
name = Bold;
paths = (
{
closed = 1;
nodes = (
"224 603 OFFCURVE",
"43 467 OFFCURVE",
"43 231 CURVE SMOOTH",
"43 6 OFFCURVE",
"207 -146 OFFCURVE",
"406 -146 CURVE SMOOTH",
"465 -146 OFFCURVE",
"526 -133 OFFCURVE",
"581 -106 CURVE",
"564 -54 LINE",
"515 -76 OFFCURVE",
"472 -92 OFFCURVE",
"410 -92 CURVE SMOOTH",
"222 -92 OFFCURVE",
"100 52 OFFCURVE",
"100 230 CURVE SMOOTH",
"100 415 OFFCURVE",
"231 549 OFFCURVE",
"418 549 CURVE SMOOTH",
"610 549 OFFCURVE",
"741 409 OFFCURVE",
"741 227 CURVE SMOOTH",
"741 168 OFFCURVE",
"727 44 OFFCURVE",
"656 44 CURVE SMOOTH",
"609 44 OFFCURVE",
"605 97 OFFCURVE",
"605 157 CURVE SMOOTH",
"605 253 LINE SMOOTH",
"605 343 OFFCURVE",
"596 462 OFFCURVE",
"424 462 CURVE SMOOTH",
"359 462 OFFCURVE",
"301 445 OFFCURVE",
"252 412 CURVE",
"277 341 LINE",
"310 368 OFFCURVE",
"356 385 OFFCURVE",
"410 385 CURVE SMOOTH",
"501 385 OFFCURVE",
"525 335 OFFCURVE",
"525 262 CURVE",
"505 271 OFFCURVE",
"465 285 OFFCURVE",
"410 285 CURVE SMOOTH",
"319 285 OFFCURVE",
"219 248 OFFCURVE",
"219 137 CURVE SMOOTH",
"219 57 OFFCURVE",
"272 -5 OFFCURVE",
"375 -5 CURVE SMOOTH",
"446 -5 OFFCURVE",
"506 25 OFFCURVE",
"547 66 CURVE",
"552 28 OFFCURVE",
"571 -16 OFFCURVE",
"642 -16 CURVE SMOOTH",
"787 -16 OFFCURVE",
"797 165 OFFCURVE",
"797 223 CURVE SMOOTH",
"797 468 OFFCURVE",
"621 603 OFFCURVE",
"423 603 CURVE SMOOTH"
);
},
{
closed = 1;
nodes = (
"445 78 OFFCURVE",
"412 68 OFFCURVE",
"383 68 CURVE SMOOTH",
"326 68 OFFCURVE",
"301 106 OFFCURVE",
"301 145 CURVE SMOOTH",
"301 198 OFFCURVE",
"349 220 OFFCURVE",
"412 220 CURVE SMOOTH",
"462 220 OFFCURVE",
"505 206 OFFCURVE",
"524 199 CURVE",
"524 169 LINE SMOOTH",
"524 134 OFFCURVE",
"511 110 OFFCURVE",
"470 90 CURVE SMOOTH"
);
}
);
width = 836;
}
);
unicode = 0040;
},
{
glyphname = atilde;
layers = (
{
layerId = "04F5D486-D400-49CE-AE86-164151670EAE";
name = Bold;
paths = (
{
closed = 1;
nodes = (
"280 -10 OFFCURVE",
"349 23 OFFCURVE",
"396 84 CURVE",
"399 55 LINE",
"406 18 OFFCURVE",
"432 -6 OFFCURVE",
"482 -7 CURVE SMOOTH",
"498 -7 OFFCURVE",
"521 -5 OFFCURVE",
"546 0 CURVE",
"546 114 LINE",
"520 115 OFFCURVE",
"510 126 OFFCURVE",
"510 154 CURVE SMOOTH",
"510 317 LINE SMOOTH",
"510 456 OFFCURVE",
"422 533 OFFCURVE",
"272 533 CURVE SMOOTH",
"194 533 OFFCURVE",
"122 511 OFFCURVE",
"54 466 CURVE",
"95 381 LINE",
"151 420 OFFCURVE",
"203 440 OFFCURVE",
"259 440 CURVE SMOOTH",
"336 440 OFFCURVE",
"376 401 OFFCURVE",
"376 332 CURVE SMOOTH",
"376 302 LINE",
"342 317 OFFCURVE",
"295 325 OFFCURVE",
"248 325 CURVE SMOOTH",
"117 325 OFFCURVE",
"25 256 OFFCURVE",
"25 156 CURVE SMOOTH",
"25 61 OFFCURVE",
"102 -10 OFFCURVE",
"204 -10 CURVE SMOOTH"
);
},
{
closed = 1;
nodes = (
"191 88 OFFCURVE",
"152 122 OFFCURVE",
"152 167 CURVE SMOOTH",
"152 215 OFFCURVE",
"201 250 OFFCURVE",
"270 250 CURVE SMOOTH",
"304 250 OFFCURVE",
"344 242 OFFCURVE",
"376 230 CURVE",
"376 170 LINE SMOOTH",
"376 157 OFFCURVE",
"368 143 OFFCURVE",
"354 132 CURVE",
"331 105 OFFCURVE",
"287 88 OFFCURVE",
"242 88 CURVE SMOOTH"
);
},
{
closed = 1;
nodes = (
"428 602 OFFCURVE",
"458 711 OFFCURVE",
"458 730 CURVE",
"384 730 LINE",
"384 726 OFFCURVE",
"379 680 OFFCURVE",
"331 680 CURVE SMOOTH",
"283 680 OFFCURVE",
"260 727 OFFCURVE",
"199 727 CURVE SMOOTH",
"111 727 OFFCURVE",
"82 624 OFFCURVE",
"82 599 CURVE",
"156 599 LINE",
"156 602 OFFCURVE",
"159 647 OFFCURVE",
"204 647 CURVE SMOOTH",
"248 647 OFFCURVE",
"275 602 OFFCURVE",
"335 602 CURVE SMOOTH"
);
}
);
width = 578;
}
);
unicode = 00E3;
},
{
glyphname = b;
layers = (
{
layerId = "04F5D486-D400-49CE-AE86-164151670EAE";
name = Bold;
paths = (
{
closed = 1;
nodes = (
"498 -10 OFFCURVE",
"603 109 OFFCURVE",
"603 260 CURVE SMOOTH",
"603 408 OFFCURVE",
"510 533 OFFCURVE",
"373 533 CURVE SMOOTH",
"293 533 OFFCURVE",
"231 495 OFFCURVE",
"194 432 CURVE",
"194 730 LINE",
"60 730 LINE",
"60 0 LINE",
"177 0 LINE",
"177 91 LINE",
"213 29 OFFCURVE",
"278 -10 OFFCURVE",
"358 -10 CURVE SMOOTH"
);
},
{
closed = 1;
nodes = (
"270 104 OFFCURVE",
"212 139 OFFCURVE",
"194 192 CURVE",
"194 317 LINE",
"219 374 OFFCURVE",
"270 419 OFFCURVE",
"329 419 CURVE SMOOTH",
"409 419 OFFCURVE",
"466 344 OFFCURVE",
"466 259 CURVE SMOOTH",
"466 175 OFFCURVE",
"406 104 OFFCURVE",
"321 104 CURVE SMOOTH"
);
}
);
width = 633;
}
);
unicode = 0062;
},
{
glyphname = backslash;
layers = (
{
layerId = "04F5D486-D400-49CE-AE86-164151670EAE";
name = Bold;
paths = (
{
closed = 1;
nodes = (
"26 710 LINE",
"462 0 LINE",
"610 0 LINE",
"175 710 LINE"
);
}
);
width = 638;
}
);
unicode = 005C;
},
{
glyphname = bar;
layers = (
{
layerId = "04F5D486-D400-49CE-AE86-164151670EAE";
name = Bold;
paths = (
{
closed = 1;
nodes = (
"183 -130 LINE",
"183 775 LINE",
"69 775 LINE",
"69 -130 LINE"
);
}
);
width = 253;
}
);
unicode = 007C;
},
{
glyphname = braceleft;
layers = (
{
layerId = "04F5D486-D400-49CE-AE86-164151670EAE";
name = Bold;
paths = (
{
closed = 1;
nodes = (
"265 633 LINE",
"265 740 LINE",
"112 740 LINE SMOOTH",
"105 740 OFFCURVE",
"89 735 OFFCURVE",
"89 710 CURVE SMOOTH",
"89 473 LINE SMOOTH",
"89 445 OFFCURVE",
"67 408 OFFCURVE",
"39 408 CURVE",
"39 314 LINE",
"65 309 OFFCURVE",
"89 282 OFFCURVE",
"89 247 CURVE SMOOTH",
"89 -1 LINE SMOOTH",
"89 -25 OFFCURVE",
"103 -31 OFFCURVE",
"112 -31 CURVE SMOOTH",
"265 -31 LINE",
"265 76 LINE",
"210 76 LINE",
"210 291 LINE SMOOTH",
"210 317 OFFCURVE",
"195 342 OFFCURVE",
"175 360 CURVE",
"196 379 OFFCURVE",
"210 402 OFFCURVE",
"210 429 CURVE SMOOTH",
"210 633 LINE"
);
}
);
width = 306;
}
);
unicode = 007B;
},
{
glyphname = braceright;
layers = (
{
layerId = "04F5D486-D400-49CE-AE86-164151670EAE";
name = Bold;
paths = (
{
closed = 1;
nodes = (
"97 633 LINE",
"97 429 LINE SMOOTH",
"97 402 OFFCURVE",
"111 379 OFFCURVE",
"132 360 CURVE",
"111 342 OFFCURVE",
"97 317 OFFCURVE",
"97 291 CURVE SMOOTH",
"97 76 LINE",
"42 76 LINE",
"42 -31 LINE",
"195 -31 LINE SMOOTH",
"203 -31 OFFCURVE",
"218 -25 OFFCURVE",
"218 -1 CURVE SMOOTH",
"218 247 LINE SMOOTH",
"218 282 OFFCURVE",
"241 309 OFFCURVE",
"268 314 CURVE",
"268 408 LINE",
"240 408 OFFCURVE",
"218 445 OFFCURVE",
"218 473 CURVE SMOOTH",
"218 710 LINE SMOOTH",
"218 735 OFFCURVE",
"202 740 OFFCURVE",
"195 740 CURVE SMOOTH",
"42 740 LINE",
"42 633 LINE"
);
}
);
width = 306;
}
);
unicode = 007D;
},
{
glyphname = bracketleft;
layers = (
{
layerId = "04F5D486-D400-49CE-AE86-164151670EAE";
name = Bold;
paths = (
{
closed = 1;
nodes = (
"259 -40 LINE",
"259 67 LINE",
"195 67 LINE",
"195 633 LINE",
"259 633 LINE",
"259 740 LINE",
"71 740 LINE",
"71 -40 LINE"
);
}
);
width = 301;
}
);
unicode = 005B;
},
{
glyphname = bracketright;
layers = (
{
layerId = "04F5D486-D400-49CE-AE86-164151670EAE";
name = Bold;
paths = (
{
closed = 1;
nodes = (
"229 -40 LINE",
"229 740 LINE",
"42 740 LINE",
"42 633 LINE",
"105 633 LINE",
"105 67 LINE",
"42 67 LINE",
"42 -40 LINE"
);
}
);
width = 301;
}
);
unicode = 005D;
},
{
glyphname = brokenbar;
layers = (
{
layerId = "04F5D486-D400-49CE-AE86-164151670EAE";
name = Bold;
paths = (
{
closed = 1;
nodes = (
"71 264 LINE",
"71 -130 LINE",
"185 -130 LINE",
"185 264 LINE"
);
},
{
closed = 1;
nodes = (
"71 775 LINE",
"71 381 LINE",
"185 381 LINE",
"185 775 LINE"
);
}
);
width = 257;
}
);
unicode = 00A6;
},
{
glyphname = bullet;
layers = (
{
layerId = "04F5D486-D400-49CE-AE86-164151670EAE";
name = Bold;
paths = (
{
closed = 1;
nodes = (
"286 407 OFFCURVE",
"240 454 OFFCURVE",
"182 454 CURVE SMOOTH",
"125 454 OFFCURVE",
"77 407 OFFCURVE",
"77 350 CURVE SMOOTH",
"77 292 OFFCURVE",
"125 245 OFFCURVE",
"182 245 CURVE SMOOTH",
"240 245 OFFCURVE",
"286 292 OFFCURVE",
"286 350 CURVE SMOOTH"
);
}
);
width = 363;
}
);
unicode = 2022;
},
{
glyphname = c;
layers = (
{
layerId = "04F5D486-D400-49CE-AE86-164151670EAE";
name = Bold;
paths = (
{
closed = 1;
nodes = (
"28 117 OFFCURVE",
"135 -10 OFFCURVE",
"305 -10 CURVE SMOOTH",
"420 -10 OFFCURVE",
"507 47 OFFCURVE",
"543 126 CURVE",
"412 166 LINE",
"396 131 OFFCURVE",
"351 104 OFFCURVE",
"303 104 CURVE SMOOTH",
"228 104 OFFCURVE",
"166 170 OFFCURVE",
"166 262 CURVE SMOOTH",
"166 355 OFFCURVE",
"226 419 OFFCURVE",
"303 419 CURVE SMOOTH",
"348 419 OFFCURVE",
"388 397 OFFCURVE",
"410 359 CURVE",
"541 399 LINE",
"501 479 OFFCURVE",
"418 533 OFFCURVE",
"304 533 CURVE SMOOTH",
"133 533 OFFCURVE",
"28 408 OFFCURVE",
"28 262 CURVE SMOOTH"
);
}
);
width = 564;
}
);
unicode = 0063;
},
{
glyphname = cacute;
layers = (
{
layerId = "04F5D486-D400-49CE-AE86-164151670EAE";
name = Bold;
paths = (
{
closed = 1;
nodes = (
"431 730 LINE",
"306 730 LINE",
"252 611 LINE",
"338 585 LINE"
);
},
{
closed = 1;
nodes = (
"28 117 OFFCURVE",
"135 -10 OFFCURVE",
"305 -10 CURVE SMOOTH",
"420 -10 OFFCURVE",
"507 47 OFFCURVE",
"543 126 CURVE",
"412 166 LINE",
"396 131 OFFCURVE",
"351 104 OFFCURVE",
"303 104 CURVE SMOOTH",
"228 104 OFFCURVE",
"166 170 OFFCURVE",
"166 262 CURVE SMOOTH",
"166 355 OFFCURVE",
"226 419 OFFCURVE",
"303 419 CURVE SMOOTH",
"348 419 OFFCURVE",
"388 397 OFFCURVE",
"410 359 CURVE",
"541 399 LINE",
"501 479 OFFCURVE",
"418 533 OFFCURVE",
"304 533 CURVE SMOOTH",
"133 533 OFFCURVE",
"28 408 OFFCURVE",
"28 262 CURVE SMOOTH"
);
}
);
width = 564;
}
);
unicode = 0107;
},
{
glyphname = ccaron;
layers = (
{
layerId = "04F5D486-D400-49CE-AE86-164151670EAE";
name = Bold;
paths = (
{
closed = 1;
nodes = (
"149 698 LINE",
"255 597 LINE",
"352 597 LINE",
"458 698 LINE",
"389 730 LINE",
"304 667 LINE",
"219 730 LINE"
);
},
{
closed = 1;
nodes = (
"28 117 OFFCURVE",
"135 -10 OFFCURVE",
"305 -10 CURVE SMOOTH",
"420 -10 OFFCURVE",
"507 47 OFFCURVE",
"543 126 CURVE",
"412 166 LINE",
"396 131 OFFCURVE",
"351 104 OFFCURVE",
"303 104 CURVE SMOOTH",
"228 104 OFFCURVE",
"166 170 OFFCURVE",
"166 262 CURVE SMOOTH",
"166 355 OFFCURVE",
"226 419 OFFCURVE",
"303 419 CURVE SMOOTH",
"348 419 OFFCURVE",
"388 397 OFFCURVE",
"410 359 CURVE",
"541 399 LINE",
"501 479 OFFCURVE",
"418 533 OFFCURVE",
"304 533 CURVE SMOOTH",
"133 533 OFFCURVE",
"28 408 OFFCURVE",
"28 262 CURVE SMOOTH"
);
}
);
width = 564;
}
);
unicode = 010D;
},
{
glyphname = ccedilla;
layers = (
{
layerId = "04F5D486-D400-49CE-AE86-164151670EAE";
name = Bold;
paths = (
{
closed = 1;
nodes = (
"199 -176 LINE",
"226 -187 OFFCURVE",
"262 -196 OFFCURVE",
"306 -196 CURVE SMOOTH",
"392 -196 OFFCURVE",
"434 -159 OFFCURVE",
"434 -108 CURVE SMOOTH",
"434 -59 OFFCURVE",
"396 -38 OFFCURVE",
"349 -38 CURVE SMOOTH",
"339 -38 OFFCURVE",
"326 -39 OFFCURVE",
"317 -42 CURVE",
"338 -8 LINE",
"437 1 OFFCURVE",
"511 54 OFFCURVE",
"544 126 CURVE",
"413 166 LINE",
"397 131 OFFCURVE",
"352 104 OFFCURVE",
"304 104 CURVE SMOOTH",
"229 104 OFFCURVE",
"167 170 OFFCURVE",
"167 262 CURVE SMOOTH",
"167 355 OFFCURVE",
"227 419 OFFCURVE",
"304 419 CURVE SMOOTH",
"349 419 OFFCURVE",
"389 397 OFFCURVE",
"411 359 CURVE",
"542 399 LINE",
"502 479 OFFCURVE",
"419 533 OFFCURVE",
"305 533 CURVE SMOOTH",
"134 533 OFFCURVE",
"29 408 OFFCURVE",
"29 262 CURVE SMOOTH",
"29 124 OFFCURVE",
"125 3 OFFCURVE",
"281 -9 CURVE",
"239 -92 LINE",
"255 -88 OFFCURVE",
"291 -80 OFFCURVE",
"319 -80 CURVE SMOOTH",
"350 -80 OFFCURVE",
"371 -89 OFFCURVE",
"371 -113 CURVE SMOOTH",
"371 -137 OFFCURVE",
"349 -146 OFFCURVE",
"315 -146 CURVE SMOOTH",
"279 -146 OFFCURVE",
"242 -136 OFFCURVE",
"226 -127 CURVE"
);
}
);
width = 566;
}
);
unicode = 00E7;
},
{
glyphname = ccircumflex;
layers = (
{
layerId = "04F5D486-D400-49CE-AE86-164151670EAE";
name = Bold;
paths = (
{
closed = 1;
nodes = (
"219 597 LINE",
"304 660 LINE",
"389 597 LINE",
"458 629 LINE",
"352 730 LINE",
"255 730 LINE",
"149 629 LINE"
);
},
{
closed = 1;
nodes = (
"28 117 OFFCURVE",
"135 -10 OFFCURVE",
"305 -10 CURVE SMOOTH",
"420 -10 OFFCURVE",
"507 47 OFFCURVE",
"543 126 CURVE",
"412 166 LINE",
"396 131 OFFCURVE",
"351 104 OFFCURVE",
"303 104 CURVE SMOOTH",
"228 104 OFFCURVE",
"166 170 OFFCURVE",
"166 262 CURVE SMOOTH",
"166 355 OFFCURVE",
"226 419 OFFCURVE",
"303 419 CURVE SMOOTH",
"348 419 OFFCURVE",
"388 397 OFFCURVE",
"410 359 CURVE",
"541 399 LINE",
"501 479 OFFCURVE",
"418 533 OFFCURVE",
"304 533 CURVE SMOOTH",
"133 533 OFFCURVE",
"28 408 OFFCURVE",
"28 262 CURVE SMOOTH"
);
}
);
width = 564;
}
);
unicode = 0109;
},
{
glyphname = cdotaccent;
layers = (
{
layerId = "04F5D486-D400-49CE-AE86-164151670EAE";
name = Bold;
paths = (
{
closed = 1;
nodes = (
"28 117 OFFCURVE",
"135 -10 OFFCURVE",
"305 -10 CURVE SMOOTH",
"420 -10 OFFCURVE",
"507 47 OFFCURVE",
"543 126 CURVE",
"412 166 LINE",
"396 131 OFFCURVE",
"351 104 OFFCURVE",
"303 104 CURVE SMOOTH",
"228 104 OFFCURVE",
"166 170 OFFCURVE",
"166 262 CURVE SMOOTH",
"166 355 OFFCURVE",
"226 419 OFFCURVE",
"303 419 CURVE SMOOTH",
"348 419 OFFCURVE",
"388 397 OFFCURVE",
"410 359 CURVE",
"541 399 LINE",
"501 479 OFFCURVE",
"418 533 OFFCURVE",
"304 533 CURVE SMOOTH",
"133 533 OFFCURVE",
"28 408 OFFCURVE",
"28 262 CURVE SMOOTH"
);
},
{
closed = 1;
nodes = (
"364 604 LINE",
"364 730 LINE",
"243 730 LINE",
"243 604 LINE"
);
}
);
width = 564;
}
);
unicode = 010B;
},
{
glyphname = cent;
layers = (
{
layerId = "04F5D486-D400-49CE-AE86-164151670EAE";
name = Bold;
paths = (
{
closed = 1;
nodes = (
"338 -120 LINE",
"338 -10 LINE",
"407 -10 OFFCURVE",
"518 35 OFFCURVE",
"557 126 CURVE",
"426 166 LINE",
"415 135 OFFCURVE",
"374 113 OFFCURVE",
"338 107 CURVE",
"338 415 LINE",
"372 412 OFFCURVE",
"405 393 OFFCURVE",
"424 359 CURVE",
"554 399 LINE",
"511 483 OFFCURVE",
"431 529 OFFCURVE",
"338 532 CURVE",
"338 645 LINE",
"278 645 LINE",
"278 532 LINE",
"126 510 OFFCURVE",
"41 393 OFFCURVE",
"41 258 CURVE SMOOTH",
"41 131 OFFCURVE",
"140 2 OFFCURVE",
"278 -9 CURVE",
"278 -120 LINE"
);
},
{
closed = 1;
nodes = (
"179 329 OFFCURVE",
"216 397 OFFCURVE",
"278 409 CURVE",
"278 113 LINE",
"218 132 OFFCURVE",
"179 192 OFFCURVE",
"179 258 CURVE SMOOTH"
);
}
);
width = 595;
}
);
unicode = 00A2;
},
{
glyphname = colon;
layers = (
{
layerId = "04F5D486-D400-49CE-AE86-164151670EAE";
name = Bold;
paths = (
{
closed = 1;
nodes = (
"176 374 LINE",
"176 518 LINE",
"67 518 LINE",
"67 374 LINE"
);
},
{
closed = 1;
nodes = (
"176 0 LINE",
"176 144 LINE",
"67 144 LINE",
"67 0 LINE"
);
}
);
width = 243;
}
);
unicode = 003A;
},
{
glyphname = comma;
layers = (
{
layerId = "04F5D486-D400-49CE-AE86-164151670EAE";
name = Bold;
paths = (
{
closed = 1;
nodes = (
"32 -113 LINE",
"93 -113 OFFCURVE",
"175 -91 OFFCURVE",
"175 -11 CURVE SMOOTH",
"175 144 LINE",
"65 144 LINE",
"65 13 LINE SMOOTH",
"65 -14 OFFCURVE",
"41 -18 OFFCURVE",
"32 -18 CURVE"
);
}
);
width = 236;
}
);
unicode = 002C;
},
{
glyphname = copyright;
layers = (
{
layerId = "04F5D486-D400-49CE-AE86-164151670EAE";
name = Bold;
paths = (
{
closed = 1;
nodes = (
"637 -7 OFFCURVE",
"800 148 OFFCURVE",
"800 355 CURVE SMOOTH",
"800 561 OFFCURVE",
"637 715 OFFCURVE",
"418 715 CURVE SMOOTH",
"203 715 OFFCURVE",
"44 561 OFFCURVE",
"44 355 CURVE SMOOTH",
"44 148 OFFCURVE",
"203 -7 OFFCURVE",
"418 -7 CURVE SMOOTH"
);
},
{
closed = 1;
nodes = (
"234 43 OFFCURVE",
"98 179 OFFCURVE",
"98 354 CURVE SMOOTH",
"98 529 OFFCURVE",
"235 665 OFFCURVE",
"418 665 CURVE SMOOTH",
"606 665 OFFCURVE",
"745 529 OFFCURVE",
"745 354 CURVE SMOOTH",
"745 170 OFFCURVE",
"602 43 OFFCURVE",
"418 43 CURVE SMOOTH"
);
},
{
closed = 1;
nodes = (
"540 116 OFFCURVE",
"619 179 OFFCURVE",
"650 247 CURVE",
"520 286 LINE",
"501 251 OFFCURVE",
"463 230 OFFCURVE",
"425 230 CURVE SMOOTH",
"370 230 OFFCURVE",
"312 275 OFFCURVE",
"312 355 CURVE SMOOTH",
"312 422 OFFCURVE",
"354 479 OFFCURVE",
"424 479 CURVE SMOOTH",
"457 479 OFFCURVE",
"496 466 OFFCURVE",
"516 425 CURVE",
"646 465 LINE",
"610 543 OFFCURVE",
"531 593 OFFCURVE",
"425 593 CURVE SMOOTH",
"259 593 OFFCURVE",
"175 476 OFFCURVE",
"175 355 CURVE SMOOTH",
"175 220 OFFCURVE",
"278 116 OFFCURVE",
"427 116 CURVE SMOOTH"
);
}
);
width = 843;
}
);
unicode = 00A9;
},
{
glyphname = d;
layers = (
{
layerId = "04F5D486-D400-49CE-AE86-164151670EAE";
name = Bold;
paths = (
{
closed = 1;
nodes = (
"350 -10 OFFCURVE",
"421 25 OFFCURVE",
"459 91 CURVE",
"462 55 LINE",
"468 17 OFFCURVE",
"496 -6 OFFCURVE",
"545 -7 CURVE SMOOTH",
"561 -7 OFFCURVE",
"582 -5 OFFCURVE",
"609 0 CURVE",
"609 114 LINE",
"583 115 OFFCURVE",
"573 126 OFFCURVE",
"573 154 CURVE SMOOTH",
"573 730 LINE",
"439 730 LINE",
"439 432 LINE",
"405 491 OFFCURVE",
"339 533 OFFCURVE",
"263 533 CURVE SMOOTH",
"126 533 OFFCURVE",
"29 413 OFFCURVE",
"29 262 CURVE SMOOTH",
"29 110 OFFCURVE",
"132 -10 OFFCURVE",
"277 -10 CURVE SMOOTH"
);
},
{
closed = 1;
nodes = (
"229 104 OFFCURVE",
"167 172 OFFCURVE",
"167 259 CURVE SMOOTH",
"167 343 OFFCURVE",
"223 419 OFFCURVE",
"304 419 CURVE SMOOTH",
"359 419 OFFCURVE",
"418 375 OFFCURVE",
"440 317 CURVE",
"440 192 LINE",
"421 141 OFFCURVE",
"363 104 OFFCURVE",
"312 104 CURVE SMOOTH"
);
}
);
width = 649;
}
);
unicode = 0064;
},
{
glyphname = d.alt;
layers = (
{
layerId = "04F5D486-D400-49CE-AE86-164151670EAE";
name = Bold;
paths = (
{
closed = 1;
nodes = (
"573 0 LINE",
"573 730 LINE",
"439 730 LINE",
"439 432 LINE",
"403 491 OFFCURVE",
"340 533 OFFCURVE",
"262 533 CURVE SMOOTH",
"127 533 OFFCURVE",
"29 413 OFFCURVE",
"29 262 CURVE SMOOTH",
"29 110 OFFCURVE",
"132 -10 OFFCURVE",
"277 -10 CURVE SMOOTH",
"350 -10 OFFCURVE",
"405 24 OFFCURVE",
"440 82 CURVE",
"440 0 LINE"
);
},
{
closed = 1;
nodes = (
"440 192 LINE",
"422 141 OFFCURVE",
"364 104 OFFCURVE",
"312 104 CURVE SMOOTH",
"229 104 OFFCURVE",
"167 172 OFFCURVE",
"167 259 CURVE SMOOTH",
"167 342 OFFCURVE",
"223 419 OFFCURVE",
"303 419 CURVE SMOOTH",
"358 419 OFFCURVE",
"418 377 OFFCURVE",
"440 317 CURVE"
);
}
);
width = 633;
}
);
},
{
glyphname = dagger;
layers = (
{
layerId = "04F5D486-D400-49CE-AE86-164151670EAE";
name = Bold;
paths = (
{
closed = 1;
nodes = (
"297 -130 LINE",
"297 211 LINE",
"428 211 LINE",
"428 331 LINE",
"297 331 LINE",
"297 775 LINE",
"169 775 LINE",
"169 331 LINE",
"37 331 LINE",
"37 211 LINE",
"169 211 LINE",
"169 -130 LINE"
);
}
);
width = 466;
}
);
unicode = 2020;
},
{
glyphname = daggerdbl;
layers = (
{
layerId = "04F5D486-D400-49CE-AE86-164151670EAE";
name = Bold;
paths = (
{
closed = 1;
nodes = (
"302 -130 LINE",
"302 102 LINE",
"433 102 LINE",
"433 222 LINE",
"302 222 LINE",
"302 334 LINE",
"433 334 LINE",
"433 455 LINE",
"302 455 LINE",
"302 775 LINE",
"175 775 LINE",
"175 455 LINE",
"43 455 LINE",
"43 334 LINE",
"175 334 LINE",
"175 222 LINE",
"43 222 LINE",
"43 102 LINE",
"175 102 LINE",
"175 -130 LINE"
);
}
);
width = 476;
}
);
unicode = 2021;
},
{
glyphname = dcaron;
layers = (
{
layerId = "04F5D486-D400-49CE-AE86-164151670EAE";
name = Bold;
paths = (
{
closed = 1;
nodes = (
"780 730 LINE",
"655 730 LINE",
"601 611 LINE",
"687 585 LINE"
);
},
{
closed = 1;
nodes = (
"350 -10 OFFCURVE",
"421 25 OFFCURVE",
"459 91 CURVE",
"462 55 LINE",
"468 17 OFFCURVE",
"496 -6 OFFCURVE",
"545 -7 CURVE SMOOTH",
"561 -7 OFFCURVE",
"582 -5 OFFCURVE",
"609 0 CURVE",
"609 114 LINE",
"583 115 OFFCURVE",
"573 126 OFFCURVE",
"573 154 CURVE SMOOTH",
"573 730 LINE",
"439 730 LINE",
"439 432 LINE",
"405 491 OFFCURVE",
"339 533 OFFCURVE",
"263 533 CURVE SMOOTH",
"126 533 OFFCURVE",
"29 413 OFFCURVE",
"29 262 CURVE SMOOTH",
"29 110 OFFCURVE",
"132 -10 OFFCURVE",
"277 -10 CURVE SMOOTH"
);
},
{
closed = 1;
nodes = (
"229 104 OFFCURVE",
"167 172 OFFCURVE",
"167 259 CURVE SMOOTH",
"167 343 OFFCURVE",
"223 419 OFFCURVE",
"304 419 CURVE SMOOTH",
"359 419 OFFCURVE",
"418 375 OFFCURVE",
"440 317 CURVE",
"440 192 LINE",
"421 141 OFFCURVE",
"363 104 OFFCURVE",
"312 104 CURVE SMOOTH"
);
}
);
width = 649;
}
);
unicode = 010F;
},
{
glyphname = dcroat;
layers = (
{
layerId = "04F5D486-D400-49CE-AE86-164151670EAE";
name = Bold;
paths = (
{
closed = 1;
nodes = (
"350 -10 OFFCURVE",
"421 25 OFFCURVE",
"459 91 CURVE",
"462 55 LINE",
"468 17 OFFCURVE",
"496 -6 OFFCURVE",
"545 -7 CURVE SMOOTH",
"561 -7 OFFCURVE",
"582 -5 OFFCURVE",
"609 0 CURVE",
"609 114 LINE",
"583 115 OFFCURVE",
"573 126 OFFCURVE",
"573 154 CURVE SMOOTH",
"573 597 LINE",
"637 597 LINE",
"637 676 LINE",
"573 676 LINE",
"573 730 LINE",
"439 730 LINE",
"439 676 LINE",
"340 676 LINE",
"340 597 LINE",
"439 597 LINE",
"439 432 LINE",
"405 491 OFFCURVE",
"339 533 OFFCURVE",
"263 533 CURVE SMOOTH",
"126 533 OFFCURVE",
"29 413 OFFCURVE",
"29 262 CURVE SMOOTH",
"29 110 OFFCURVE",
"132 -10 OFFCURVE",
"277 -10 CURVE SMOOTH"
);
},
{
closed = 1;
nodes = (
"229 104 OFFCURVE",
"167 172 OFFCURVE",
"167 259 CURVE SMOOTH",
"167 343 OFFCURVE",
"223 419 OFFCURVE",
"304 419 CURVE SMOOTH",
"359 419 OFFCURVE",
"418 375 OFFCURVE",
"440 317 CURVE",
"440 192 LINE",
"421 141 OFFCURVE",
"363 104 OFFCURVE",
"312 104 CURVE SMOOTH"
);
}
);
width = 649;
}
);
unicode = 0111;
},
{
glyphname = degree;
layers = (
{
layerId = "04F5D486-D400-49CE-AE86-164151670EAE";
name = Bold;
paths = (
{
closed = 1;
nodes = (
"41 563 OFFCURVE",
"84 519 OFFCURVE",
"143 519 CURVE SMOOTH",
"203 519 OFFCURVE",
"246 561 OFFCURVE",
"246 625 CURVE SMOOTH",
"246 681 OFFCURVE",
"203 724 OFFCURVE",
"143 724 CURVE SMOOTH",
"84 724 OFFCURVE",
"41 681 OFFCURVE",
"41 625 CURVE SMOOTH"
);
},
{
closed = 1;
nodes = (
"165 659 OFFCURVE",
"180 643 OFFCURVE",
"180 621 CURVE SMOOTH",
"180 601 OFFCURVE",
"163 584 OFFCURVE",
"143 584 CURVE SMOOTH",
"123 584 OFFCURVE",
"106 601 OFFCURVE",
"106 621 CURVE SMOOTH",
"106 643 OFFCURVE",
"123 659 OFFCURVE",
"143 659 CURVE SMOOTH"
);
}
);
width = 287;
}
);
unicode = 00B0;
},
{
glyphname = divide;
layers = (
{
layerId = "04F5D486-D400-49CE-AE86-164151670EAE";
name = Bold;
paths = (
{
closed = 1;
nodes = (
"311 419 LINE",
"311 547 LINE",
"198 547 LINE",
"198 419 LINE"
);
},
{
closed = 1;
nodes = (
"311 48 LINE",
"311 177 LINE",
"198 177 LINE",
"198 48 LINE"
);
},
{
closed = 1;
nodes = (
"456 244 LINE",
"456 351 LINE",
"53 351 LINE",
"53 244 LINE"
);
}
);
width = 509;
}
);
unicode = 00F7;
},
{
glyphname = dollar;
layers = (
{
layerId = "04F5D486-D400-49CE-AE86-164151670EAE";
name = Bold;
paths = (
{
closed = 1;
nodes = (
"570 636 LINE",
"514 673 OFFCURVE",
"438 707 OFFCURVE",
"352 714 CURVE",
"352 815 LINE",
"292 815 LINE",
"292 713 LINE",
"162 703 OFFCURVE",
"63 627 OFFCURVE",
"63 492 CURVE SMOOTH",
"63 383 OFFCURVE",
"129 337 OFFCURVE",
"264 300 CURVE SMOOTH",
"301 290 LINE",
"301 118 LINE",
"205 128 OFFCURVE",
"116 181 OFFCURVE",
"95 203 CURVE",
"34 84 LINE",
"105 33 OFFCURVE",
"199 1 OFFCURVE",
"292 -6 CURVE",
"292 -117 LINE",
"352 -117 LINE",
"352 -7 LINE",
"483 -2 OFFCURVE",
"595 57 OFFCURVE",
"595 203 CURVE SMOOTH",
"595 333 OFFCURVE",
"507 377 OFFCURVE",
"367 413 CURVE SMOOTH",
"342 419 LINE",
"342 592 LINE",
"419 584 OFFCURVE",
"492 542 OFFCURVE",
"509 524 CURVE"
);
},
{
closed = 1;
nodes = (
"448 143 OFFCURVE",
"411 118 OFFCURVE",
"342 116 CURVE",
"342 278 LINE",
"408 257 OFFCURVE",
"448 235 OFFCURVE",
"448 189 CURVE SMOOTH"
);
},
{
closed = 1;
nodes = (
"205 561 OFFCURVE",
"237 589 OFFCURVE",
"301 593 CURVE",
"301 431 LINE",
"237 450 OFFCURVE",
"205 469 OFFCURVE",
"205 514 CURVE SMOOTH"
);
}
);
width = 634;
}
);
unicode = 0024;
},
{
glyphname = dotlessi;
layers = (
{
layerId = "04F5D486-D400-49CE-AE86-164151670EAE";
name = Bold;
paths = (
{
closed = 1;
nodes = (
"194 0 LINE",
"194 524 LINE",
"60 524 LINE",
"60 0 LINE"
);
}
);
width = 253;
}
);
unicode = 0131;
},
{
glyphname = dotlessj;
layers = (
{
layerId = "04F5D486-D400-49CE-AE86-164151670EAE";
name = Bold;
paths = (
{
closed = 1;
nodes = (
"113 -196 OFFCURVE",
"194 -117 OFFCURVE",
"194 -4 CURVE SMOOTH",
"194 524 LINE",
"60 524 LINE",
"60 -14 LINE SMOOTH",
"60 -53 OFFCURVE",
"30 -80 OFFCURVE",
"-5 -80 CURVE SMOOTH",
"-26 -80 OFFCURVE",
"-48 -73 OFFCURVE",
"-64 -58 CURVE",
"-121 -149 LINE",
"-85 -181 OFFCURVE",
"-38 -196 OFFCURVE",
"12 -196 CURVE SMOOTH"
);
}
);
width = 253;
}
);
unicode = 0237;
},
{
glyphname = e;
layers = (
{
layerId = "04F5D486-D400-49CE-AE86-164151670EAE";
name = Bold;
paths = (
{
closed = 1;
nodes = (
"420 -10 OFFCURVE",
"510 47 OFFCURVE",
"548 127 CURVE",
"433 159 LINE",
"416 116 OFFCURVE",
"362 88 OFFCURVE",
"309 88 CURVE SMOOTH",
"239 88 OFFCURVE",
"177 137 OFFCURVE",
"170 219 CURVE",
"575 219 LINE",
"577 230 OFFCURVE",
"578 247 OFFCURVE",
"578 264 CURVE SMOOTH",
"578 406 OFFCURVE",
"476 533 OFFCURVE",
"305 533 CURVE SMOOTH",
"134 533 OFFCURVE",
"28 408 OFFCURVE",
"28 259 CURVE SMOOTH",
"28 114 OFFCURVE",
"135 -10 OFFCURVE",
"304 -10 CURVE SMOOTH"
);
},
{
closed = 1;
nodes = (
"168 306 LINE",
"174 384 OFFCURVE",
"231 436 OFFCURVE",
"303 436 CURVE SMOOTH",
"376 436 OFFCURVE",
"433 384 OFFCURVE",
"440 306 CURVE"
);
}
);
width = 600;
}
);
unicode = 0065;
},
{
glyphname = eacute;
layers = (
{
layerId = "04F5D486-D400-49CE-AE86-164151670EAE";
name = Bold;
paths = (
{
closed = 1;
nodes = (
"430 730 LINE",
"305 730 LINE",
"251 611 LINE",
"337 585 LINE"
);
},
{
closed = 1;
nodes = (
"420 -10 OFFCURVE",
"510 47 OFFCURVE",
"548 127 CURVE",
"433 159 LINE",
"416 116 OFFCURVE",
"362 88 OFFCURVE",
"309 88 CURVE SMOOTH",
"239 88 OFFCURVE",
"177 137 OFFCURVE",
"170 219 CURVE",
"575 219 LINE",
"577 230 OFFCURVE",
"578 247 OFFCURVE",
"578 264 CURVE SMOOTH",
"578 406 OFFCURVE",
"476 533 OFFCURVE",
"305 533 CURVE SMOOTH",
"134 533 OFFCURVE",
"28 408 OFFCURVE",
"28 259 CURVE SMOOTH",
"28 114 OFFCURVE",
"135 -10 OFFCURVE",
"304 -10 CURVE SMOOTH"
);
},
{
closed = 1;
nodes = (
"168 306 LINE",
"174 384 OFFCURVE",
"231 436 OFFCURVE",
"303 436 CURVE SMOOTH",
"376 436 OFFCURVE",
"433 384 OFFCURVE",
"440 306 CURVE"
);
}
);
width = 600;
}
);
unicode = 00E9;
},
{
glyphname = ebreve;
layers = (
{
layerId = "04F5D486-D400-49CE-AE86-164151670EAE";
name = Bold;
paths = (
{
closed = 1;
nodes = (
"420 -10 OFFCURVE",
"510 47 OFFCURVE",
"548 127 CURVE",
"433 159 LINE",
"416 116 OFFCURVE",
"362 88 OFFCURVE",
"309 88 CURVE SMOOTH",
"239 88 OFFCURVE",
"177 137 OFFCURVE",
"170 219 CURVE",
"575 219 LINE",
"577 230 OFFCURVE",
"578 247 OFFCURVE",
"578 264 CURVE SMOOTH",
"578 406 OFFCURVE",
"476 533 OFFCURVE",
"305 533 CURVE SMOOTH",
"134 533 OFFCURVE",
"28 408 OFFCURVE",
"28 259 CURVE SMOOTH",
"28 114 OFFCURVE",
"135 -10 OFFCURVE",
"304 -10 CURVE SMOOTH"
);
},
{
closed = 1;
nodes = (
"168 306 LINE",
"174 384 OFFCURVE",
"231 436 OFFCURVE",
"303 436 CURVE SMOOTH",
"376 436 OFFCURVE",
"433 384 OFFCURVE",
"440 306 CURVE"
);
},
{
closed = 1;
nodes = (
"271 656 OFFCURVE",
"243 690 OFFCURVE",
"243 730 CURVE",
"171 730 LINE",
"171 653 OFFCURVE",
"226 596 OFFCURVE",
"302 596 CURVE SMOOTH",
"378 596 OFFCURVE",
"433 653 OFFCURVE",
"433 730 CURVE",
"362 730 LINE",
"358 687 OFFCURVE",
"332 656 OFFCURVE",
"302 656 CURVE SMOOTH"
);
}
);
width = 600;
}
);
unicode = 0115;
},
{
glyphname = ecaron;
layers = (
{
layerId = "04F5D486-D400-49CE-AE86-164151670EAE";
name = Bold;
paths = (
{
closed = 1;
nodes = (
"148 698 LINE",
"254 597 LINE",
"351 597 LINE",
"457 698 LINE",
"388 730 LINE",
"303 667 LINE",
"218 730 LINE"
);
},
{
closed = 1;
nodes = (
"420 -10 OFFCURVE",
"510 47 OFFCURVE",
"548 127 CURVE",
"433 159 LINE",
"416 116 OFFCURVE",
"362 88 OFFCURVE",
"309 88 CURVE SMOOTH",
"239 88 OFFCURVE",
"177 137 OFFCURVE",
"170 219 CURVE",
"575 219 LINE",
"577 230 OFFCURVE",
"578 247 OFFCURVE",
"578 264 CURVE SMOOTH",
"578 406 OFFCURVE",
"476 533 OFFCURVE",
"305 533 CURVE SMOOTH",
"134 533 OFFCURVE",
"28 408 OFFCURVE",
"28 259 CURVE SMOOTH",
"28 114 OFFCURVE",
"135 -10 OFFCURVE",
"304 -10 CURVE SMOOTH"
);
},
{
closed = 1;
nodes = (
"168 306 LINE",
"174 384 OFFCURVE",
"231 436 OFFCURVE",
"303 436 CURVE SMOOTH",
"376 436 OFFCURVE",
"433 384 OFFCURVE",
"440 306 CURVE"
);
}
);
width = 600;
}
);
unicode = 011B;
},
{
glyphname = ecircumflex;
layers = (
{
layerId = "04F5D486-D400-49CE-AE86-164151670EAE";
name = Bold;
paths = (
{
closed = 1;
nodes = (
"218 597 LINE",
"303 660 LINE",
"388 597 LINE",
"457 629 LINE",
"351 730 LINE",
"254 730 LINE",
"148 629 LINE"
);
},
{
closed = 1;
nodes = (
"420 -10 OFFCURVE",
"510 47 OFFCURVE",
"548 127 CURVE",
"433 159 LINE",
"416 116 OFFCURVE",
"362 88 OFFCURVE",
"309 88 CURVE SMOOTH",
"239 88 OFFCURVE",
"177 137 OFFCURVE",
"170 219 CURVE",
"575 219 LINE",
"577 230 OFFCURVE",
"578 247 OFFCURVE",
"578 264 CURVE SMOOTH",
"578 406 OFFCURVE",
"476 533 OFFCURVE",
"305 533 CURVE SMOOTH",
"134 533 OFFCURVE",
"28 408 OFFCURVE",
"28 259 CURVE SMOOTH",
"28 114 OFFCURVE",
"135 -10 OFFCURVE",
"304 -10 CURVE SMOOTH"
);
},
{
closed = 1;
nodes = (
"168 306 LINE",
"174 384 OFFCURVE",
"231 436 OFFCURVE",
"303 436 CURVE SMOOTH",
"376 436 OFFCURVE",
"433 384 OFFCURVE",
"440 306 CURVE"
);
}
);
width = 600;
}
);
unicode = 00EA;
},
{
glyphname = edieresis;
layers = (
{
layerId = "04F5D486-D400-49CE-AE86-164151670EAE";
name = Bold;
paths = (
{
closed = 1;
nodes = (
"262 604 LINE",
"262 723 LINE",
"151 723 LINE",
"151 604 LINE"
);
},
{
closed = 1;
nodes = (
"454 604 LINE",
"454 723 LINE",
"343 723 LINE",
"343 604 LINE"
);
},
{
closed = 1;
nodes = (
"420 -10 OFFCURVE",
"510 47 OFFCURVE",
"548 127 CURVE",
"433 159 LINE",
"416 116 OFFCURVE",
"362 88 OFFCURVE",
"309 88 CURVE SMOOTH",
"239 88 OFFCURVE",
"177 137 OFFCURVE",
"170 219 CURVE",
"575 219 LINE",
"577 230 OFFCURVE",
"578 247 OFFCURVE",
"578 264 CURVE SMOOTH",
"578 406 OFFCURVE",
"476 533 OFFCURVE",
"305 533 CURVE SMOOTH",
"134 533 OFFCURVE",
"28 408 OFFCURVE",
"28 259 CURVE SMOOTH",
"28 114 OFFCURVE",
"135 -10 OFFCURVE",
"304 -10 CURVE SMOOTH"
);
},
{
closed = 1;
nodes = (
"168 306 LINE",
"174 384 OFFCURVE",
"231 436 OFFCURVE",
"303 436 CURVE SMOOTH",
"376 436 OFFCURVE",
"433 384 OFFCURVE",
"440 306 CURVE"
);
}
);
width = 600;
}
);
unicode = 00EB;
},
{
glyphname = edotaccent;
layers = (
{
layerId = "04F5D486-D400-49CE-AE86-164151670EAE";
name = Bold;
paths = (
{
closed = 1;
nodes = (
"420 -10 OFFCURVE",
"510 47 OFFCURVE",
"548 127 CURVE",
"433 159 LINE",
"416 116 OFFCURVE",
"362 88 OFFCURVE",
"309 88 CURVE SMOOTH",
"239 88 OFFCURVE",
"177 137 OFFCURVE",
"170 219 CURVE",
"575 219 LINE",
"577 230 OFFCURVE",
"578 247 OFFCURVE",
"578 264 CURVE SMOOTH",
"578 406 OFFCURVE",
"476 533 OFFCURVE",
"305 533 CURVE SMOOTH",
"134 533 OFFCURVE",
"28 408 OFFCURVE",
"28 259 CURVE SMOOTH",
"28 114 OFFCURVE",
"135 -10 OFFCURVE",
"304 -10 CURVE SMOOTH"
);
},
{
closed = 1;
nodes = (
"168 306 LINE",
"174 384 OFFCURVE",
"231 436 OFFCURVE",
"303 436 CURVE SMOOTH",
"376 436 OFFCURVE",
"433 384 OFFCURVE",
"440 306 CURVE"
);
},
{
closed = 1;
nodes = (
"363 604 LINE",
"363 730 LINE",
"242 730 LINE",
"242 604 LINE"
);
}
);
width = 600;
}
);
unicode = 0117;
},
{
glyphname = egrave;
layers = (
{
layerId = "04F5D486-D400-49CE-AE86-164151670EAE";
name = Bold;
paths = (
{
closed = 1;
nodes = (
"420 -10 OFFCURVE",
"510 47 OFFCURVE",
"548 127 CURVE",
"433 159 LINE",
"416 116 OFFCURVE",
"362 88 OFFCURVE",
"309 88 CURVE SMOOTH",
"239 88 OFFCURVE",
"177 137 OFFCURVE",
"170 219 CURVE",
"575 219 LINE",
"577 230 OFFCURVE",
"578 247 OFFCURVE",
"578 264 CURVE SMOOTH",
"578 406 OFFCURVE",
"476 533 OFFCURVE",
"305 533 CURVE SMOOTH",
"134 533 OFFCURVE",
"28 408 OFFCURVE",
"28 259 CURVE SMOOTH",
"28 114 OFFCURVE",
"135 -10 OFFCURVE",
"304 -10 CURVE SMOOTH"
);
},
{
closed = 1;
nodes = (
"168 306 LINE",
"174 384 OFFCURVE",
"231 436 OFFCURVE",
"303 436 CURVE SMOOTH",
"376 436 OFFCURVE",
"433 384 OFFCURVE",
"440 306 CURVE"
);
},
{
closed = 1;
nodes = (
"268 585 LINE",
"354 611 LINE",
"299 730 LINE",
"175 730 LINE"
);
}
);
width = 600;
}
);
unicode = 00E8;
},
{
glyphname = eight;
lastChange = "2014-10-27 22:31:27 +0100";
layers = (
{
layerId = "04F5D486-D400-49CE-AE86-164151670EAE";
name = Bold;
paths = (
{
closed = 1;
nodes = (
"560 292 OFFCURVE",
"505 351 OFFCURVE",
"448 380 CURVE",
"498 403 OFFCURVE",
"539 457 OFFCURVE",
"539 514 CURVE SMOOTH",
"539 642 OFFCURVE",
"411 710 OFFCURVE",
"302 710 CURVE SMOOTH",
"194 710 OFFCURVE",
"66 640 OFFCURVE",
"66 513 CURVE SMOOTH",
"66 456 OFFCURVE",
"106 404 OFFCURVE",
"156 380 CURVE",
"103 353 OFFCURVE",
"44 295 OFFCURVE",
"44 215 CURVE SMOOTH",
"44 84 OFFCURVE",
"160 -9 OFFCURVE",
"301 -9 CURVE SMOOTH",
"442 -9 OFFCURVE",
"560 78 OFFCURVE",
"560 210 CURVE SMOOTH"
);
},
{
closed = 1;
nodes = (
"424 157 OFFCURVE",
"366 112 OFFCURVE",
"303 112 CURVE SMOOTH",
"241 112 OFFCURVE",
"180 154 OFFCURVE",
"180 218 CURVE SMOOTH",
"180 282 OFFCURVE",
"238 324 OFFCURVE",
"302 324 CURVE SMOOTH",
"363 324 OFFCURVE",
"424 285 OFFCURVE",
"424 218 CURVE SMOOTH"
);
},
{
closed = 1;
nodes = (
"202 558 OFFCURVE",
"248 591 OFFCURVE",
"302 591 CURVE SMOOTH",
"356 591 OFFCURVE",
"403 559 OFFCURVE",
"403 510 CURVE SMOOTH",
"403 455 OFFCURVE",
"349 425 OFFCURVE",
"302 425 CURVE SMOOTH",
"255 425 OFFCURVE",
"202 454 OFFCURVE",
"202 509 CURVE SMOOTH"
);
}
);
width = 605;
}
);
unicode = 0038;
},
{
glyphname = eightinferior;
layers = (
{
layerId = "04F5D486-D400-49CE-AE86-164151670EAE";
name = Bold;
paths = (
{
closed = 1;
nodes = (
"388 173 OFFCURVE",
"352 205 OFFCURVE",
"302 226 CURVE",
"342 241 OFFCURVE",
"372 269 OFFCURVE",
"372 308 CURVE SMOOTH",
"372 376 OFFCURVE",
"287 421 OFFCURVE",
"210 421 CURVE SMOOTH",
"133 421 OFFCURVE",
"48 375 OFFCURVE",
"48 307 CURVE SMOOTH",
"48 266 OFFCURVE",
"81 240 OFFCURVE",
"117 226 CURVE",
"72 206 OFFCURVE",
"32 177 OFFCURVE",
"32 125 CURVE SMOOTH",
"32 52 OFFCURVE",
"110 -5 OFFCURVE",
"210 -5 CURVE SMOOTH",
"306 -5 OFFCURVE",
"388 48 OFFCURVE",
"388 123 CURVE SMOOTH"
);
},
{
closed = 1;
nodes = (
"307 97 OFFCURVE",
"260 74 OFFCURVE",
"211 74 CURVE SMOOTH",
"164 74 OFFCURVE",
"112 96 OFFCURVE",
"112 131 CURVE SMOOTH",
"112 166 OFFCURVE",
"159 190 OFFCURVE",
"210 190 CURVE SMOOTH",
"258 190 OFFCURVE",
"307 168 OFFCURVE",
"307 132 CURVE SMOOTH"
);
},
{
closed = 1;
nodes = (
"128 327 OFFCURVE",
"166 345 OFFCURVE",
"210 345 CURVE SMOOTH",
"252 345 OFFCURVE",
"292 327 OFFCURVE",
"292 300 CURVE SMOOTH",
"292 272 OFFCURVE",
"248 255 OFFCURVE",
"210 255 CURVE SMOOTH",
"171 255 OFFCURVE",
"128 271 OFFCURVE",
"128 300 CURVE SMOOTH"
);
}
);
width = 421;
}
);
unicode = 2088;
},
{
glyphname = eightsuperior;
layers = (
{
layerId = "04F5D486-D400-49CE-AE86-164151670EAE";
name = Bold;
paths = (
{
closed = 1;
nodes = (
"388 481 OFFCURVE",
"352 514 OFFCURVE",
"302 534 CURVE",
"342 549 OFFCURVE",
"372 577 OFFCURVE",
"372 617 CURVE SMOOTH",
"372 685 OFFCURVE",
"287 730 OFFCURVE",
"210 730 CURVE SMOOTH",
"133 730 OFFCURVE",
"48 684 OFFCURVE",
"48 615 CURVE SMOOTH",
"48 574 OFFCURVE",
"81 548 OFFCURVE",
"117 534 CURVE",
"72 515 OFFCURVE",
"32 486 OFFCURVE",
"32 434 CURVE SMOOTH",
"32 360 OFFCURVE",
"110 303 OFFCURVE",
"210 303 CURVE SMOOTH",
"306 303 OFFCURVE",
"388 357 OFFCURVE",
"388 432 CURVE SMOOTH"
);
},
{
closed = 1;
nodes = (
"307 406 OFFCURVE",
"260 383 OFFCURVE",
"211 383 CURVE SMOOTH",
"164 383 OFFCURVE",
"112 405 OFFCURVE",
"112 440 CURVE SMOOTH",
"112 475 OFFCURVE",
"159 499 OFFCURVE",
"210 499 CURVE SMOOTH",
"258 499 OFFCURVE",
"307 476 OFFCURVE",
"307 440 CURVE SMOOTH"
);
},
{
closed = 1;
nodes = (
"128 636 OFFCURVE",
"166 654 OFFCURVE",
"210 654 CURVE SMOOTH",
"252 654 OFFCURVE",
"292 637 OFFCURVE",
"292 609 CURVE SMOOTH",
"292 580 OFFCURVE",
"248 564 OFFCURVE",
"210 564 CURVE SMOOTH",
"171 564 OFFCURVE",
"128 580 OFFCURVE",
"128 609 CURVE SMOOTH"
);
}
);
width = 421;
}
);
unicode = 2078;
},
{
glyphname = ellipsis;
layers = (
{
layerId = "04F5D486-D400-49CE-AE86-164151670EAE";
name = Bold;
paths = (
{
closed = 1;
nodes = (
"167 0 LINE",
"167 144 LINE",
"57 144 LINE",
"57 0 LINE"
);
},
{
closed = 1;
nodes = (
"355 0 LINE",
"355 144 LINE",
"246 144 LINE",
"246 0 LINE"
);
},
{
closed = 1;
nodes = (
"544 0 LINE",
"544 144 LINE",
"433 144 LINE",
"433 0 LINE"
);
}
);
width = 601;
}
);
unicode = 2026;
},
{
glyphname = emacron;
layers = (
{
layerId = "04F5D486-D400-49CE-AE86-164151670EAE";
name = Bold;
paths = (
{
closed = 1;
nodes = (
"420 -10 OFFCURVE",
"510 47 OFFCURVE",
"548 127 CURVE",
"433 159 LINE",
"416 116 OFFCURVE",
"362 88 OFFCURVE",
"309 88 CURVE SMOOTH",
"239 88 OFFCURVE",
"177 137 OFFCURVE",
"170 219 CURVE",
"575 219 LINE",
"577 230 OFFCURVE",
"578 247 OFFCURVE",
"578 264 CURVE SMOOTH",
"578 406 OFFCURVE",
"476 533 OFFCURVE",
"305 533 CURVE SMOOTH",
"134 533 OFFCURVE",
"28 408 OFFCURVE",
"28 259 CURVE SMOOTH",
"28 114 OFFCURVE",
"135 -10 OFFCURVE",
"304 -10 CURVE SMOOTH"
);
},
{
closed = 1;
nodes = (
"168 306 LINE",
"174 384 OFFCURVE",
"231 436 OFFCURVE",
"303 436 CURVE SMOOTH",
"376 436 OFFCURVE",
"433 384 OFFCURVE",
"440 306 CURVE"
);
},
{
closed = 1;
nodes = (
"453 633 LINE",
"453 716 LINE",
"153 716 LINE",
"153 633 LINE"
);
}
);
width = 600;
}
);
unicode = 0113;
},
{
glyphname = emdash;
layers = (
{
layerId = "04F5D486-D400-49CE-AE86-164151670EAE";
name = Bold;
paths = (
{
closed = 1;
nodes = (
"869 214 LINE",
"869 335 LINE",
"57 335 LINE",
"57 214 LINE"
);
}
);
width = 927;
}
);
unicode = 2014;
},
{
glyphname = endash;
layers = (
{
layerId = "04F5D486-D400-49CE-AE86-164151670EAE";
name = Bold;
paths = (
{
closed = 1;
nodes = (
"545 214 LINE",
"545 335 LINE",
"57 335 LINE",
"57 214 LINE"
);
}
);
width = 602;
}
);
unicode = 2013;
},
{
glyphname = eng;
layers = (
{
layerId = "04F5D486-D400-49CE-AE86-164151670EAE";
name = Bold;
paths = (
{
closed = 1;
nodes = (
"465 -196 OFFCURVE",
"546 -117 OFFCURVE",
"546 -4 CURVE SMOOTH",
"546 327 LINE SMOOTH",
"546 429 OFFCURVE",
"520 533 OFFCURVE",
"389 533 CURVE SMOOTH",
"297 533 OFFCURVE",
"220 493 OFFCURVE",
"181 427 CURVE",
"181 524 LINE",
"60 524 LINE",
"60 0 LINE",
"194 0 LINE",
"194 306 LINE",
"214 369 OFFCURVE",
"276 415 OFFCURVE",
"330 415 CURVE SMOOTH",
"382 415 OFFCURVE",
"413 378 OFFCURVE",
"413 294 CURVE SMOOTH",
"413 -14 LINE SMOOTH",
"413 -53 OFFCURVE",
"383 -80 OFFCURVE",
"348 -80 CURVE SMOOTH",
"327 -80 OFFCURVE",
"305 -73 OFFCURVE",
"289 -58 CURVE",
"231 -149 LINE",
"267 -181 OFFCURVE",
"314 -196 OFFCURVE",
"365 -196 CURVE SMOOTH"
);
}
);
width = 601;
}
);
unicode = 014B;
},
{
glyphname = eogonek;
layers = (
{
layerId = "04F5D486-D400-49CE-AE86-164151670EAE";
name = Bold;
paths = (
{
closed = 1;
nodes = (
"353 -132 LINE",
"311 -130 OFFCURVE",
"291 -115 OFFCURVE",
"291 -92 CURVE SMOOTH",
"291 -64 OFFCURVE",
"316 -36 OFFCURVE",
"370 -4 CURVE",
"454 13 OFFCURVE",
"518 62 OFFCURVE",
"549 127 CURVE",
"434 159 LINE",
"417 116 OFFCURVE",
"363 88 OFFCURVE",
"310 88 CURVE SMOOTH",
"240 88 OFFCURVE",
"178 137 OFFCURVE",
"171 219 CURVE",
"576 219 LINE",
"578 230 OFFCURVE",
"579 247 OFFCURVE",
"579 264 CURVE SMOOTH",
"579 406 OFFCURVE",
"477 533 OFFCURVE",
"306 533 CURVE SMOOTH",
"135 533 OFFCURVE",
"29 408 OFFCURVE",
"29 259 CURVE SMOOTH",
"29 118 OFFCURVE",
"129 -2 OFFCURVE",
"289 -9 CURVE",
"242 -42 OFFCURVE",
"219 -77 OFFCURVE",
"219 -111 CURVE SMOOTH",
"219 -152 OFFCURVE",
"255 -187 OFFCURVE",
"325 -198 CURVE"
);
},
{
closed = 1;
nodes = (
"169 306 LINE",
"175 384 OFFCURVE",
"232 436 OFFCURVE",
"304 436 CURVE SMOOTH",
"377 436 OFFCURVE",
"434 384 OFFCURVE",
"441 306 CURVE"
);
}
);
width = 602;
}
);
unicode = 0119;
},
{
glyphname = equal;
layers = (
{
layerId = "04F5D486-D400-49CE-AE86-164151670EAE";
name = Bold;
paths = (
{
closed = 1;
nodes = (
"375 144 LINE",
"375 231 LINE",
"62 231 LINE",
"62 144 LINE"
);
},
{
closed = 1;
nodes = (
"375 321 LINE",
"375 408 LINE",
"62 408 LINE",
"62 321 LINE"
);
}
);
width = 437;
}
);
unicode = 003D;
},
{
glyphname = eth;
layers = (
{
layerId = "04F5D486-D400-49CE-AE86-164151670EAE";
name = Bold;
paths = (
{
closed = 1;
nodes = (
"487 713 LINE",
"408 667 LINE",
"381 691 OFFCURVE",
"351 712 OFFCURVE",
"317 730 CURVE",
"145 730 LINE",
"211 695 OFFCURVE",
"263 658 OFFCURVE",
"305 621 CURVE",
"221 574 LINE",
"259 522 LINE",
"353 574 LINE",
"402 518 OFFCURVE",
"429 458 OFFCURVE",
"443 394 CURVE",
"406 441 OFFCURVE",
"342 472 OFFCURVE",
"272 472 CURVE SMOOTH",
"138 472 OFFCURVE",
"31 365 OFFCURVE",
"31 233 CURVE SMOOTH",
"31 94 OFFCURVE",
"149 -10 OFFCURVE",
"302 -10 CURVE SMOOTH",
"463 -10 OFFCURVE",
"580 104 OFFCURVE",
"580 290 CURVE SMOOTH",
"580 400 OFFCURVE",
"539 524 OFFCURVE",
"454 621 CURVE",
"525 660 LINE"
);
},
{
closed = 1;
nodes = (
"168 308 OFFCURVE",
"227 364 OFFCURVE",
"306 364 CURVE SMOOTH",
"384 364 OFFCURVE",
"443 311 OFFCURVE",
"443 237 CURVE SMOOTH",
"443 163 OFFCURVE",
"384 104 OFFCURVE",
"304 104 CURVE SMOOTH",
"227 104 OFFCURVE",
"168 160 OFFCURVE",
"168 234 CURVE SMOOTH"
);
}
);
width = 613;
}
);
unicode = 00F0;
},
{
glyphname = etilde;
layers = (
{
layerId = "04F5D486-D400-49CE-AE86-164151670EAE";
name = Bold;
paths = (
{
closed = 1;
nodes = (
"420 -10 OFFCURVE",
"510 47 OFFCURVE",
"548 127 CURVE",
"433 159 LINE",
"416 116 OFFCURVE",
"362 88 OFFCURVE",
"309 88 CURVE SMOOTH",
"239 88 OFFCURVE",
"177 137 OFFCURVE",
"170 219 CURVE",
"575 219 LINE",
"577 230 OFFCURVE",
"578 247 OFFCURVE",
"578 264 CURVE SMOOTH",
"578 406 OFFCURVE",
"476 533 OFFCURVE",
"305 533 CURVE SMOOTH",
"134 533 OFFCURVE",
"28 408 OFFCURVE",
"28 259 CURVE SMOOTH",
"28 114 OFFCURVE",
"135 -10 OFFCURVE",
"304 -10 CURVE SMOOTH"
);
},
{
closed = 1;
nodes = (
"168 306 LINE",
"174 384 OFFCURVE",
"231 436 OFFCURVE",
"303 436 CURVE SMOOTH",
"376 436 OFFCURVE",
"433 384 OFFCURVE",
"440 306 CURVE"
);
},
{
closed = 1;
nodes = (
"459 602 OFFCURVE",
"489 711 OFFCURVE",
"489 730 CURVE",
"415 730 LINE",
"415 726 OFFCURVE",
"410 680 OFFCURVE",
"362 680 CURVE SMOOTH",
"314 680 OFFCURVE",
"291 727 OFFCURVE",
"230 727 CURVE SMOOTH",
"142 727 OFFCURVE",
"113 624 OFFCURVE",
"113 599 CURVE",
"187 599 LINE",
"187 602 OFFCURVE",
"190 647 OFFCURVE",
"235 647 CURVE SMOOTH",
"279 647 OFFCURVE",
"306 602 OFFCURVE",
"366 602 CURVE SMOOTH"
);
}
);
width = 600;
}
);
unicode = 1EBD;
},
{
glyphname = exclam;
layers = (
{
layerId = "04F5D486-D400-49CE-AE86-164151670EAE";
name = Bold;
paths = (
{
closed = 1;
nodes = (
"212 267 LINE",
"212 717 LINE",
"78 717 LINE",
"78 267 LINE"
);
},
{
closed = 1;
nodes = (
"212 0 LINE",
"212 151 LINE",
"78 151 LINE",
"78 0 LINE"
);
}
);
width = 289;
}
);
unicode = 0021;
},
{
glyphname = exclamdown;
layers = (
{
layerId = "04F5D486-D400-49CE-AE86-164151670EAE";
name = Bold;
paths = (
{
closed = 1;
nodes = (
"78 445 LINE",
"78 -5 LINE",
"212 -5 LINE",
"212 445 LINE"
);
},
{
closed = 1;
nodes = (
"78 712 LINE",
"78 561 LINE",
"212 561 LINE",
"212 712 LINE"
);
}
);
width = 290;
}
);
unicode = 00A1;
},
{
glyphname = f;
layers = (
{
layerId = "04F5D486-D400-49CE-AE86-164151670EAE";
name = Bold;
paths = (
{
closed = 1;
nodes = (
"228 0 LINE",
"228 360 LINE",
"356 360 LINE",
"356 463 LINE",
"228 463 LINE",
"228 533 LINE SMOOTH",
"228 594 OFFCURVE",
"252 627 OFFCURVE",
"298 627 CURVE SMOOTH",
"321 627 OFFCURVE",
"351 619 OFFCURVE",
"371 608 CURVE",
"398 709 LINE",
"356 729 OFFCURVE",
"312 740 OFFCURVE",
"269 740 CURVE SMOOTH",
"163 740 OFFCURVE",
"94 658 OFFCURVE",
"94 528 CURVE SMOOTH",
"94 463 LINE",
"26 463 LINE",
"26 360 LINE",
"94 360 LINE",
"94 0 LINE"
);
}
);
width = 381;
}
);
unicode = 0066;
},
{
glyphname = five;
lastChange = "2014-10-27 22:31:31 +0100";
layers = (
{
layerId = "04F5D486-D400-49CE-AE86-164151670EAE";
name = Bold;
paths = (
{
closed = 1;
nodes = (
"252 459 OFFCURVE",
"221 447 OFFCURVE",
"205 429 CURVE",
"233 588 LINE",
"486 588 LINE",
"486 710 LINE",
"136 710 LINE SMOOTH",
"136 710 OFFCURVE",
"57 304 OFFCURVE",
"54 288 CURVE",
"171 288 LINE",
"194 323 OFFCURVE",
"235 344 OFFCURVE",
"278 344 CURVE SMOOTH",
"344 344 OFFCURVE",
"393 296 OFFCURVE",
"393 228 CURVE SMOOTH",
"393 157 OFFCURVE",
"342 109 OFFCURVE",
"270 109 CURVE SMOOTH",
"210 109 OFFCURVE",
"151 142 OFFCURVE",
"113 194 CURVE",
"36 114 LINE",
"79 37 OFFCURVE",
"166 -10 OFFCURVE",
"269 -10 CURVE SMOOTH",
"420 -10 OFFCURVE",
"531 88 OFFCURVE",
"531 231 CURVE SMOOTH",
"531 365 OFFCURVE",
"431 459 OFFCURVE",
"297 459 CURVE SMOOTH"
);
}
);
width = 571;
}
);
unicode = 0035;
},
{
glyphname = fiveeighths;
layers = (
{
layerId = "04F5D486-D400-49CE-AE86-164151670EAE";
name = Bold;
paths = (
{
closed = 1;
nodes = (
"944 173 OFFCURVE",
"908 205 OFFCURVE",
"858 226 CURVE",
"898 241 OFFCURVE",
"928 269 OFFCURVE",
"928 308 CURVE SMOOTH",
"928 376 OFFCURVE",
"843 421 OFFCURVE",
"766 421 CURVE SMOOTH",
"689 421 OFFCURVE",
"604 375 OFFCURVE",
"604 307 CURVE SMOOTH",
"604 266 OFFCURVE",
"637 240 OFFCURVE",
"673 226 CURVE",
"628 206 OFFCURVE",
"588 177 OFFCURVE",
"588 125 CURVE SMOOTH",
"588 52 OFFCURVE",
"666 -5 OFFCURVE",
"766 -5 CURVE SMOOTH",
"862 -5 OFFCURVE",
"944 48 OFFCURVE",
"944 123 CURVE SMOOTH"
);
},
{
closed = 1;
nodes = (
"863 97 OFFCURVE",
"816 74 OFFCURVE",
"767 74 CURVE SMOOTH",
"720 74 OFFCURVE",
"668 96 OFFCURVE",
"668 131 CURVE SMOOTH",
"668 166 OFFCURVE",
"715 190 OFFCURVE",
"766 190 CURVE SMOOTH",
"814 190 OFFCURVE",
"863 168 OFFCURVE",
"863 132 CURVE SMOOTH"
);
},
{
closed = 1;
nodes = (
"684 327 OFFCURVE",
"722 345 OFFCURVE",
"766 345 CURVE SMOOTH",
"808 345 OFFCURVE",
"848 327 OFFCURVE",
"848 300 CURVE SMOOTH",
"848 272 OFFCURVE",
"804 255 OFFCURVE",
"766 255 CURVE SMOOTH",
"727 255 OFFCURVE",
"684 271 OFFCURVE",
"684 300 CURVE SMOOTH"
);
},
{
closed = 1;
nodes = (
"180 582 OFFCURVE",
"154 574 OFFCURVE",
"139 564 CURVE",
"163 651 LINE",
"347 651 LINE",
"347 730 LINE",
"105 730 LINE",
"94 665 OFFCURVE",
"62 549 OFFCURVE",
"48 477 CURVE",
"118 477 LINE",
"135 504 OFFCURVE",
"174 522 OFFCURVE",
"209 522 CURVE SMOOTH",
"249 522 OFFCURVE",
"297 499 OFFCURVE",
"297 450 CURVE SMOOTH",
"297 403 OFFCURVE",
"255 380 OFFCURVE",
"201 380 CURVE SMOOTH",
"151 380 OFFCURVE",
"110 398 OFFCURVE",
"83 428 CURVE",
"36 375 LINE",
"66 331 OFFCURVE",
"127 303 OFFCURVE",
"197 303 CURVE SMOOTH",
"301 303 OFFCURVE",
"378 362 OFFCURVE",
"378 446 CURVE SMOOTH",
"378 526 OFFCURVE",
"307 582 OFFCURVE",
"214 582 CURVE SMOOTH"
);
},
{
closed = 1;
nodes = (
"243 -7 LINE",
"509 342 LINE",
"785 664 LINE",
"724 718 LINE",
"464 376 LINE",
"182 47 LINE"
);
}
);
width = 982;
}
);
unicode = 215D;
},
{
glyphname = fivesuperior;
layers = (
{
layerId = "04F5D486-D400-49CE-AE86-164151670EAE";
name = Bold;
paths = (
{
closed = 1;
nodes = (
"170 582 OFFCURVE",
"144 574 OFFCURVE",
"129 564 CURVE",
"153 651 LINE",
"337 651 LINE",
"337 730 LINE",
"95 730 LINE",
"84 665 OFFCURVE",
"52 549 OFFCURVE",
"38 477 CURVE",
"108 477 LINE",
"125 504 OFFCURVE",
"164 522 OFFCURVE",
"199 522 CURVE SMOOTH",
"239 522 OFFCURVE",
"287 499 OFFCURVE",
"287 450 CURVE SMOOTH",
"287 403 OFFCURVE",
"245 380 OFFCURVE",
"191 380 CURVE SMOOTH",
"141 380 OFFCURVE",
"100 398 OFFCURVE",
"73 428 CURVE",
"26 375 LINE",
"56 331 OFFCURVE",
"117 303 OFFCURVE",
"187 303 CURVE SMOOTH",
"291 303 OFFCURVE",
"368 362 OFFCURVE",
"368 446 CURVE SMOOTH",
"368 526 OFFCURVE",
"297 582 OFFCURVE",
"204 582 CURVE SMOOTH"
);
}
);
width = 396;
}
);
unicode = 2075;
},
{
glyphname = fraction;
layers = (
{
layerId = "04F5D486-D400-49CE-AE86-164151670EAE";
name = Bold;
paths = (
{
closed = 1;
nodes = (
"-140 -7 LINE",
"126 342 LINE",
"402 664 LINE",
"341 718 LINE",
"81 376 LINE",
"-201 47 LINE"
);
}
);
width = 200;
}
);
unicode = 2044;
},
{
glyphname = fiveinferior;
layers = (
{
layerId = "04F5D486-D400-49CE-AE86-164151670EAE";
name = Bold;
paths = (
{
closed = 1;
nodes = (
"169 273 OFFCURVE",
"143 265 OFFCURVE",
"128 255 CURVE",
"152 342 LINE",
"336 342 LINE",
"336 422 LINE",
"94 422 LINE",
"83 357 OFFCURVE",
"51 240 OFFCURVE",
"37 168 CURVE",
"107 168 LINE",
"124 195 OFFCURVE",
"163 213 OFFCURVE",
"198 213 CURVE SMOOTH",
"238 213 OFFCURVE",
"286 190 OFFCURVE",
"286 141 CURVE SMOOTH",
"286 94 OFFCURVE",
"244 70 OFFCURVE",
"190 70 CURVE SMOOTH",
"140 70 OFFCURVE",
"99 89 OFFCURVE",
"72 119 CURVE",
"25 66 LINE",
"55 22 OFFCURVE",
"116 -5 OFFCURVE",
"186 -5 CURVE SMOOTH",
"290 -5 OFFCURVE",
"367 53 OFFCURVE",
"367 137 CURVE SMOOTH",
"367 217 OFFCURVE",
"296 273 OFFCURVE",
"203 273 CURVE SMOOTH"
);
}
);
width = 396;
}
);
unicode = 2085;
},
{
glyphname = florin;
layers = (
{
layerId = "04F5D486-D400-49CE-AE86-164151670EAE";
name = Bold;
paths = (
{
closed = 1;
nodes = (
"262 -196 OFFCURVE",
"344 -120 OFFCURVE",
"344 -11 CURVE SMOOTH",
"344 360 LINE",
"472 360 LINE",
"472 463 LINE",
"344 463 LINE",
"344 533 LINE SMOOTH",
"344 594 OFFCURVE",
"368 627 OFFCURVE",
"414 627 CURVE SMOOTH",
"437 627 OFFCURVE",
"467 619 OFFCURVE",
"487 608 CURVE",
"514 709 LINE",
"472 729 OFFCURVE",
"427 740 OFFCURVE",
"385 740 CURVE SMOOTH",
"279 740 OFFCURVE",
"210 658 OFFCURVE",
"210 528 CURVE SMOOTH",
"210 463 LINE",
"142 463 LINE",
"142 360 LINE",
"210 360 LINE",
"210 -14 LINE SMOOTH",
"210 -53 OFFCURVE",
"181 -80 OFFCURVE",
"146 -80 CURVE SMOOTH",
"125 -80 OFFCURVE",
"102 -73 OFFCURVE",
"87 -58 CURVE",
"29 -149 LINE",
"65 -181 OFFCURVE",
"113 -196 OFFCURVE",
"162 -196 CURVE SMOOTH"
);
}
);
width = 548;
}
);
unicode = 0192;
},
{
glyphname = four;
lastChange = "2014-10-27 22:31:35 +0100";
layers = (
{
layerId = "04F5D486-D400-49CE-AE86-164151670EAE";
name = Bold;
paths = (
{
closed = 1;
nodes = (
"458 0 LINE",
"458 161 LINE",
"546 161 LINE",
"546 282 LINE",
"458 282 LINE",
"458 710 LINE",
"366 710 LINE",
"25 281 LINE",
"25 161 LINE",
"324 161 LINE",
"324 0 LINE"
);
},
{
closed = 1;
nodes = (
"339 508 LINE",
"339 282 LINE",
"160 282 LINE"
);
}
);
width = 583;
}
);
unicode = 0034;
},
{
glyphname = fourinferior;
layers = (
{
layerId = "04F5D486-D400-49CE-AE86-164151670EAE";
name = Bold;
paths = (
{
closed = 1;
nodes = (
"321 0 LINE",
"321 93 LINE",
"382 93 LINE",
"382 171 LINE",
"321 171 LINE",
"321 422 LINE",
"267 422 LINE",
"21 170 LINE",
"21 93 LINE",
"242 93 LINE",
"242 0 LINE"
);
},
{
closed = 1;
nodes = (
"245 324 LINE",
"245 171 LINE",
"98 171 LINE"
);
}
);
width = 410;
}
);
unicode = 2084;
},
{
glyphname = foursuperior;
layers = (
{
layerId = "04F5D486-D400-49CE-AE86-164151670EAE";
name = Bold;
paths = (
{
closed = 1;
nodes = (
"321 310 LINE",
"321 401 LINE",
"382 401 LINE",
"382 479 LINE",
"321 479 LINE",
"321 730 LINE",
"267 730 LINE",
"21 479 LINE",
"21 401 LINE",
"242 401 LINE",
"242 310 LINE"
);
},
{
closed = 1;
nodes = (
"245 633 LINE",
"245 479 LINE",
"98 479 LINE"
);
}
);
width = 410;
}
);
unicode = 2074;
},
{
glyphname = g;
layers = (
{
layerId = "04F5D486-D400-49CE-AE86-164151670EAE";
name = Bold;
paths = (
{
closed = 1;
nodes = (
"336 -3 OFFCURVE",
"404 31 OFFCURVE",
"439 91 CURVE",
"439 25 LINE SMOOTH",
"439 -77 OFFCURVE",
"367 -122 OFFCURVE",
"283 -122 CURVE SMOOTH",
"214 -122 OFFCURVE",
"150 -92 OFFCURVE",
"110 -43 CURVE",
"37 -114 LINE",
"93 -183 OFFCURVE",
"168 -223 OFFCURVE",
"283 -223 CURVE SMOOTH",
"451 -223 OFFCURVE",
"573 -130 OFFCURVE",
"573 25 CURVE SMOOTH",
"573 524 LINE",
"456 524 LINE",
"456 432 LINE",
"417 493 OFFCURVE",
"355 533 OFFCURVE",
"273 533 CURVE SMOOTH",
"130 533 OFFCURVE",
"30 413 OFFCURVE",
"30 262 CURVE SMOOTH",
"30 118 OFFCURVE",
"126 -3 OFFCURVE",
"265 -3 CURVE SMOOTH"
);
},
{
closed = 1;
nodes = (
"229 104 OFFCURVE",
"166 172 OFFCURVE",
"166 258 CURVE SMOOTH",
"166 341 OFFCURVE",
"220 419 OFFCURVE",
"303 419 CURVE SMOOTH",
"359 419 OFFCURVE",
"415 378 OFFCURVE",
"439 317 CURVE",
"439 192 LINE",
"420 144 OFFCURVE",
"369 104 OFFCURVE",
"311 104 CURVE SMOOTH"
);
}
);
width = 633;
}
);
unicode = 0067;
},
{
glyphname = gbreve;
layers = (
{
layerId = "04F5D486-D400-49CE-AE86-164151670EAE";
name = Bold;
paths = (
{
closed = 1;
nodes = (
"336 -3 OFFCURVE",
"404 31 OFFCURVE",
"439 91 CURVE",
"439 25 LINE SMOOTH",
"439 -77 OFFCURVE",
"367 -122 OFFCURVE",
"283 -122 CURVE SMOOTH",
"214 -122 OFFCURVE",
"150 -92 OFFCURVE",
"110 -43 CURVE",
"37 -114 LINE",
"93 -183 OFFCURVE",
"168 -223 OFFCURVE",
"283 -223 CURVE SMOOTH",
"451 -223 OFFCURVE",
"573 -130 OFFCURVE",
"573 25 CURVE SMOOTH",
"573 524 LINE",
"456 524 LINE",
"456 432 LINE",
"417 493 OFFCURVE",
"355 533 OFFCURVE",
"273 533 CURVE SMOOTH",
"130 533 OFFCURVE",
"30 413 OFFCURVE",
"30 262 CURVE SMOOTH",
"30 118 OFFCURVE",
"126 -3 OFFCURVE",
"265 -3 CURVE SMOOTH"
);
},
{
closed = 1;
nodes = (
"229 104 OFFCURVE",
"166 172 OFFCURVE",
"166 258 CURVE SMOOTH",
"166 341 OFFCURVE",
"220 419 OFFCURVE",
"303 419 CURVE SMOOTH",
"359 419 OFFCURVE",
"415 378 OFFCURVE",
"439 317 CURVE",
"439 192 LINE",
"420 144 OFFCURVE",
"369 104 OFFCURVE",
"311 104 CURVE SMOOTH"
);
},
{
closed = 1;
nodes = (
"309 656 OFFCURVE",
"281 690 OFFCURVE",
"281 730 CURVE",
"209 730 LINE",
"209 653 OFFCURVE",
"264 596 OFFCURVE",
"340 596 CURVE SMOOTH",
"416 596 OFFCURVE",
"471 653 OFFCURVE",
"471 730 CURVE",
"400 730 LINE",
"396 687 OFFCURVE",
"370 656 OFFCURVE",
"340 656 CURVE SMOOTH"
);
}
);
width = 633;
}
);
unicode = 011F;
},
{
glyphname = gcircumflex;
layers = (
{
layerId = "04F5D486-D400-49CE-AE86-164151670EAE";
name = Bold;
paths = (
{
closed = 1;
nodes = (
"256 597 LINE",
"341 660 LINE",
"426 597 LINE",
"495 629 LINE",
"389 730 LINE",
"292 730 LINE",
"186 629 LINE"
);
},
{
closed = 1;
nodes = (
"336 -3 OFFCURVE",
"404 31 OFFCURVE",
"439 91 CURVE",
"439 25 LINE SMOOTH",
"439 -77 OFFCURVE",
"367 -122 OFFCURVE",
"283 -122 CURVE SMOOTH",
"214 -122 OFFCURVE",
"150 -92 OFFCURVE",
"110 -43 CURVE",
"37 -114 LINE",
"93 -183 OFFCURVE",
"168 -223 OFFCURVE",
"283 -223 CURVE SMOOTH",
"451 -223 OFFCURVE",
"573 -130 OFFCURVE",
"573 25 CURVE SMOOTH",
"573 524 LINE",
"456 524 LINE",
"456 432 LINE",
"417 493 OFFCURVE",
"355 533 OFFCURVE",
"273 533 CURVE SMOOTH",
"130 533 OFFCURVE",
"30 413 OFFCURVE",
"30 262 CURVE SMOOTH",
"30 118 OFFCURVE",
"126 -3 OFFCURVE",
"265 -3 CURVE SMOOTH"
);
},
{
closed = 1;
nodes = (
"229 104 OFFCURVE",
"166 172 OFFCURVE",
"166 258 CURVE SMOOTH",
"166 341 OFFCURVE",
"220 419 OFFCURVE",
"303 419 CURVE SMOOTH",
"359 419 OFFCURVE",
"415 378 OFFCURVE",
"439 317 CURVE",
"439 192 LINE",
"420 144 OFFCURVE",
"369 104 OFFCURVE",
"311 104 CURVE SMOOTH"
);
}
);
width = 633;
}
);
unicode = 011D;
},
{
glyphname = gcommaaccent;
layers = (
{
layerId = "04F5D486-D400-49CE-AE86-164151670EAE";
name = Bold;
paths = (
{
closed = 1;
nodes = (
"468 730 LINE",
"343 730 LINE",
"289 611 LINE",
"375 585 LINE"
);
},
{
closed = 1;
nodes = (
"336 -3 OFFCURVE",
"404 31 OFFCURVE",
"439 91 CURVE",
"439 25 LINE SMOOTH",
"439 -77 OFFCURVE",
"367 -122 OFFCURVE",
"283 -122 CURVE SMOOTH",
"214 -122 OFFCURVE",
"150 -92 OFFCURVE",
"110 -43 CURVE",
"37 -114 LINE",
"93 -183 OFFCURVE",
"168 -223 OFFCURVE",
"283 -223 CURVE SMOOTH",
"451 -223 OFFCURVE",
"573 -130 OFFCURVE",
"573 25 CURVE SMOOTH",
"573 524 LINE",
"456 524 LINE",
"456 432 LINE",
"417 493 OFFCURVE",
"355 533 OFFCURVE",
"273 533 CURVE SMOOTH",
"130 533 OFFCURVE",
"30 413 OFFCURVE",
"30 262 CURVE SMOOTH",
"30 118 OFFCURVE",
"126 -3 OFFCURVE",
"265 -3 CURVE SMOOTH"
);
},
{
closed = 1;
nodes = (
"229 104 OFFCURVE",
"166 172 OFFCURVE",
"166 258 CURVE SMOOTH",
"166 341 OFFCURVE",
"220 419 OFFCURVE",
"303 419 CURVE SMOOTH",
"359 419 OFFCURVE",
"415 378 OFFCURVE",
"439 317 CURVE",
"439 192 LINE",
"420 144 OFFCURVE",
"369 104 OFFCURVE",
"311 104 CURVE SMOOTH"
);
}
);
width = 633;
}
);
unicode = 0123;
},
{
glyphname = gdotaccent;
layers = (
{
layerId = "04F5D486-D400-49CE-AE86-164151670EAE";
name = Bold;
paths = (
{
closed = 1;
nodes = (
"336 -3 OFFCURVE",
"404 31 OFFCURVE",
"439 91 CURVE",
"439 25 LINE SMOOTH",
"439 -77 OFFCURVE",
"367 -122 OFFCURVE",
"283 -122 CURVE SMOOTH",
"214 -122 OFFCURVE",
"150 -92 OFFCURVE",
"110 -43 CURVE",
"37 -114 LINE",
"93 -183 OFFCURVE",
"168 -223 OFFCURVE",
"283 -223 CURVE SMOOTH",
"451 -223 OFFCURVE",
"573 -130 OFFCURVE",
"573 25 CURVE SMOOTH",
"573 524 LINE",
"456 524 LINE",
"456 432 LINE",
"417 493 OFFCURVE",
"355 533 OFFCURVE",
"273 533 CURVE SMOOTH",
"130 533 OFFCURVE",
"30 413 OFFCURVE",
"30 262 CURVE SMOOTH",
"30 118 OFFCURVE",
"126 -3 OFFCURVE",
"265 -3 CURVE SMOOTH"
);
},
{
closed = 1;
nodes = (
"229 104 OFFCURVE",
"166 172 OFFCURVE",
"166 258 CURVE SMOOTH",
"166 341 OFFCURVE",
"220 419 OFFCURVE",
"303 419 CURVE SMOOTH",
"359 419 OFFCURVE",
"415 378 OFFCURVE",
"439 317 CURVE",
"439 192 LINE",
"420 144 OFFCURVE",
"369 104 OFFCURVE",
"311 104 CURVE SMOOTH"
);
},
{
closed = 1;
nodes = (
"401 604 LINE",
"401 730 LINE",
"280 730 LINE",
"280 604 LINE"
);
}
);
width = 633;
}
);
unicode = 0121;
},
{
glyphname = germandbls;
layers = (
{
layerId = "04F5D486-D400-49CE-AE86-164151670EAE";
name = Bold;
paths = (
{
closed = 1;
nodes = (
"246 -6 LINE",
"395 -3 OFFCURVE",
"529 57 OFFCURVE",
"529 210 CURVE SMOOTH",
"529 306 OFFCURVE",
"476 378 OFFCURVE",
"390 402 CURVE",
"437 419 OFFCURVE",
"477 481 OFFCURVE",
"477 550 CURVE SMOOTH",
"477 651 OFFCURVE",
"393 714 OFFCURVE",
"281 714 CURVE SMOOTH",
"155 714 OFFCURVE",
"60 634 OFFCURVE",
"60 522 CURVE SMOOTH",
"60 0 LINE",
"187 0 LINE",
"187 499 LINE SMOOTH",
"187 544 OFFCURVE",
"207 600 OFFCURVE",
"271 600 CURVE SMOOTH",
"303 600 OFFCURVE",
"350 583 OFFCURVE",
"350 527 CURVE SMOOTH",
"350 483 OFFCURVE",
"321 453 OFFCURVE",
"273 453 CURVE SMOOTH",
"254 453 LINE",
"254 333 LINE",
"274 333 LINE SMOOTH",
"334 333 OFFCURVE",
"388 294 OFFCURVE",
"388 225 CURVE SMOOTH",
"388 151 OFFCURVE",
"328 118 OFFCURVE",
"246 117 CURVE"
);
}
);
width = 558;
}
);
unicode = 00DF;
},
{
glyphname = greater;
layers = (
{
layerId = "04F5D486-D400-49CE-AE86-164151670EAE";
name = Bold;
paths = (
{
closed = 1;
nodes = (
"477 288 LINE",
"55 543 LINE",
"55 401 LINE",
"282 259 LINE",
"55 123 LINE",
"55 -27 LINE",
"477 223 LINE"
);
}
);
width = 509;
}
);
unicode = 003E;
},
{
glyphname = guillemotleft;
layers = (
{
layerId = "04F5D486-D400-49CE-AE86-164151670EAE";
name = Bold;
paths = (
{
closed = 1;
nodes = (
"37 223 LINE",
"300 46 LINE",
"300 156 LINE",
"143 259 LINE",
"300 368 LINE",
"300 477 LINE",
"37 288 LINE"
);
},
{
closed = 1;
nodes = (
"328 223 LINE",
"592 46 LINE",
"592 156 LINE",
"434 259 LINE",
"592 368 LINE",
"592 477 LINE",
"328 288 LINE"
);
}
);
width = 649;
}
);
unicode = 00AB;
},
{
glyphname = guillemotright;
layers = (
{
layerId = "04F5D486-D400-49CE-AE86-164151670EAE";
name = Bold;
paths = (
{
closed = 1;
nodes = (
"612 288 LINE",
"348 477 LINE",
"348 368 LINE",
"506 259 LINE",
"348 156 LINE",
"348 46 LINE",
"612 223 LINE"
);
},
{
closed = 1;
nodes = (
"321 288 LINE",
"57 477 LINE",
"57 368 LINE",
"215 259 LINE",
"57 156 LINE",
"57 46 LINE",
"321 223 LINE"
);
}
);
width = 649;
}
);
unicode = 00BB;
},
{
glyphname = guilsinglleft;
layers = (
{
layerId = "04F5D486-D400-49CE-AE86-164151670EAE";
name = Bold;
paths = (
{
closed = 1;
nodes = (
"37 223 LINE",
"300 46 LINE",
"300 156 LINE",
"143 259 LINE",
"300 368 LINE",
"300 477 LINE",
"37 288 LINE"
);
}
);
width = 357;
}
);
unicode = 2039;
},
{
glyphname = guilsinglright;
layers = (
{
layerId = "04F5D486-D400-49CE-AE86-164151670EAE";
name = Bold;
paths = (
{
closed = 1;
nodes = (
"321 288 LINE",
"57 477 LINE",
"57 368 LINE",
"215 259 LINE",
"57 156 LINE",
"57 46 LINE",
"321 223 LINE"
);
}
);
width = 357;
}
);
unicode = 203A;
},
{
glyphname = h;
layers = (
{
layerId = "04F5D486-D400-49CE-AE86-164151670EAE";
name = Bold;
paths = (
{
closed = 1;
nodes = (
"547 327 LINE SMOOTH",
"547 430 OFFCURVE",
"517 533 OFFCURVE",
"382 533 CURVE SMOOTH",
"303 533 OFFCURVE",
"233 494 OFFCURVE",
"194 427 CURVE",
"194 730 LINE",
"60 730 LINE",
"60 0 LINE",
"194 0 LINE",
"194 306 LINE",
"214 370 OFFCURVE",
"276 415 OFFCURVE",
"325 415 CURVE SMOOTH",
"380 415 OFFCURVE",
"413 376 OFFCURVE",
"413 294 CURVE SMOOTH",
"413 0 LINE",
"547 0 LINE"
);
}
);
width = 602;
}
);
unicode = 0068;
},
{
glyphname = hbar;
layers = (
{
layerId = "04F5D486-D400-49CE-AE86-164151670EAE";
name = Bold;
paths = (
{
closed = 1;
nodes = (
"547 327 LINE SMOOTH",
"547 430 OFFCURVE",
"517 533 OFFCURVE",
"382 533 CURVE SMOOTH",
"303 533 OFFCURVE",
"233 494 OFFCURVE",
"194 427 CURVE",
"194 597 LINE",
"312 597 LINE",
"312 676 LINE",
"194 676 LINE",
"194 730 LINE",
"60 730 LINE",
"60 676 LINE",
"15 676 LINE",
"15 597 LINE",
"60 597 LINE",
"60 0 LINE",
"194 0 LINE",
"194 306 LINE",
"214 370 OFFCURVE",
"276 415 OFFCURVE",
"325 415 CURVE SMOOTH",
"380 415 OFFCURVE",
"413 376 OFFCURVE",
"413 294 CURVE SMOOTH",
"413 0 LINE",
"547 0 LINE"
);
}
);
width = 602;
}
);
unicode = 0127;
},
{
glyphname = hcircumflex;
layers = (
{
layerId = "04F5D486-D400-49CE-AE86-164151670EAE";
name = Bold;
paths = (
{
closed = 1;
nodes = (
"305 598 LINE",
"379 660 LINE",
"454 598 LINE",
"515 630 LINE",
"422 728 LINE",
"336 728 LINE",
"243 630 LINE"
);
},
{
closed = 1;
nodes = (
"547 327 LINE SMOOTH",
"547 430 OFFCURVE",
"517 533 OFFCURVE",
"382 533 CURVE SMOOTH",
"303 533 OFFCURVE",
"233 494 OFFCURVE",
"194 427 CURVE",
"194 730 LINE",
"60 730 LINE",
"60 0 LINE",
"194 0 LINE",
"194 306 LINE",
"214 370 OFFCURVE",
"276 415 OFFCURVE",
"325 415 CURVE SMOOTH",
"380 415 OFFCURVE",
"413 376 OFFCURVE",
"413 294 CURVE SMOOTH",
"413 0 LINE",
"547 0 LINE"
);
}
);
width = 602;
}
);
unicode = 0125;
},
{
glyphname = hyphen;
layers = (
{
layerId = "04F5D486-D400-49CE-AE86-164151670EAE";
name = Bold;
paths = (
{
closed = 1;
nodes = (
"360 214 LINE",
"360 335 LINE",
"57 335 LINE",
"57 214 LINE"
);
}
);
width = 417;
}
);
unicode = 002D;
},
{
glyphname = i;
layers = (
{
layerId = "04F5D486-D400-49CE-AE86-164151670EAE";
name = Bold;
paths = (
{
closed = 1;
nodes = (
"194 0 LINE",
"194 524 LINE",
"60 524 LINE",
"60 0 LINE"
);
},
{
closed = 1;
nodes = (
"194 597 LINE",
"194 730 LINE",
"60 730 LINE",
"60 597 LINE"
);
}
);
width = 253;
}
);
unicode = 0069;
},
{
glyphname = iacute;
layers = (
{
layerId = "04F5D486-D400-49CE-AE86-164151670EAE";
name = Bold;
paths = (
{
closed = 1;
nodes = (
"254 730 LINE",
"129 730 LINE",
"75 611 LINE",
"161 585 LINE"
);
},
{
closed = 1;
nodes = (
"194 0 LINE",
"194 524 LINE",
"60 524 LINE",
"60 0 LINE"
);
}
);
width = 253;
}
);
unicode = 00ED;
},
{
glyphname = ibreve;
layers = (
{
layerId = "04F5D486-D400-49CE-AE86-164151670EAE";
name = Bold;
paths = (
{
closed = 1;
nodes = (
"194 0 LINE",
"194 524 LINE",
"60 524 LINE",
"60 0 LINE"
);
},
{
closed = 1;
nodes = (
"95 656 OFFCURVE",
"67 690 OFFCURVE",
"67 730 CURVE",
"-5 730 LINE",
"-5 653 OFFCURVE",
"50 596 OFFCURVE",
"126 596 CURVE SMOOTH",
"202 596 OFFCURVE",
"257 653 OFFCURVE",
"257 730 CURVE",
"186 730 LINE",
"182 687 OFFCURVE",
"156 656 OFFCURVE",
"126 656 CURVE SMOOTH"
);
}
);
width = 253;
}
);
unicode = 012D;
},
{
glyphname = icircumflex;
layers = (
{
layerId = "04F5D486-D400-49CE-AE86-164151670EAE";
name = Bold;
paths = (
{
closed = 1;
nodes = (
"42 597 LINE",
"127 660 LINE",
"212 597 LINE",
"281 629 LINE",
"175 730 LINE",
"78 730 LINE",
"-28 629 LINE"
);
},
{
closed = 1;
nodes = (
"194 0 LINE",
"194 524 LINE",
"60 524 LINE",
"60 0 LINE"
);
}
);
width = 253;
}
);
unicode = 00EE;
},
{
glyphname = idieresis;
layers = (
{
layerId = "04F5D486-D400-49CE-AE86-164151670EAE";
name = Bold;
paths = (
{
closed = 1;
nodes = (
"86 604 LINE",
"86 723 LINE",
"-25 723 LINE",
"-25 604 LINE"
);
},
{
closed = 1;
nodes = (
"278 604 LINE",
"278 723 LINE",
"167 723 LINE",
"167 604 LINE"
);
},
{
closed = 1;
nodes = (
"194 0 LINE",
"194 524 LINE",
"60 524 LINE",
"60 0 LINE"
);
}
);
width = 253;
}
);
unicode = 00EF;
},
{
glyphname = igrave;
layers = (
{
layerId = "04F5D486-D400-49CE-AE86-164151670EAE";
name = Bold;
paths = (
{
closed = 1;
nodes = (
"194 0 LINE",
"194 524 LINE",
"60 524 LINE",
"60 0 LINE"
);
},
{
closed = 1;
nodes = (
"92 585 LINE",
"178 611 LINE",
"123 730 LINE",
"-1 730 LINE"
);
}
);
width = 253;
}
);
unicode = 00EC;
},
{
glyphname = ij;
layers = (
{
layerId = "04F5D486-D400-49CE-AE86-164151670EAE";
name = Bold;
paths = (
{
closed = 1;
nodes = (
"194 0 LINE",
"194 524 LINE",
"60 524 LINE",
"60 0 LINE"
);
},
{
closed = 1;
nodes = (
"194 597 LINE",
"194 730 LINE",
"60 730 LINE",
"60 597 LINE"
);
},
{
closed = 1;
nodes = (
"366 -196 OFFCURVE",
"447 -117 OFFCURVE",
"447 -4 CURVE SMOOTH",
"447 524 LINE",
"313 524 LINE",
"313 -14 LINE SMOOTH",
"313 -53 OFFCURVE",
"283 -80 OFFCURVE",
"248 -80 CURVE SMOOTH",
"227 -80 OFFCURVE",
"205 -73 OFFCURVE",
"189 -58 CURVE",
"132 -149 LINE",
"168 -181 OFFCURVE",
"215 -196 OFFCURVE",
"265 -196 CURVE SMOOTH"
);
},
{
closed = 1;
nodes = (
"447 597 LINE",
"447 730 LINE",
"313 730 LINE",
"313 597 LINE"
);
}
);
width = 506;
}
);
unicode = 0133;
},
{
glyphname = j;
layers = (
{
layerId = "04F5D486-D400-49CE-AE86-164151670EAE";
name = Bold;
paths = (
{
closed = 1;
nodes = (
"113 -196 OFFCURVE",
"194 -117 OFFCURVE",
"194 -4 CURVE SMOOTH",
"194 524 LINE",
"60 524 LINE",
"60 -14 LINE SMOOTH",
"60 -53 OFFCURVE",
"30 -80 OFFCURVE",
"-5 -80 CURVE SMOOTH",
"-26 -80 OFFCURVE",
"-48 -73 OFFCURVE",
"-64 -58 CURVE",
"-121 -149 LINE",
"-85 -181 OFFCURVE",
"-38 -196 OFFCURVE",
"12 -196 CURVE SMOOTH"
);
},
{
closed = 1;
nodes = (
"194 597 LINE",
"194 730 LINE",
"60 730 LINE",
"60 597 LINE"
);
}
);
width = 253;
}
);
unicode = 006A;
},
{
glyphname = imacron;
layers = (
{
layerId = "04F5D486-D400-49CE-AE86-164151670EAE";
name = Bold;
paths = (
{
closed = 1;
nodes = (
"194 0 LINE",
"194 524 LINE",
"60 524 LINE",
"60 0 LINE"
);
},
{
closed = 1;
nodes = (
"278 633 LINE",
"278 716 LINE",
"-22 716 LINE",
"-22 633 LINE"
);
}
);
width = 253;
}
);
unicode = 012B;
},
{
glyphname = iogonek;
layers = (
{
layerId = "04F5D486-D400-49CE-AE86-164151670EAE";
name = Bold;
paths = (
{
closed = 1;
nodes = (
"175 -130 LINE",
"133 -128 OFFCURVE",
"113 -113 OFFCURVE",
"113 -90 CURVE SMOOTH",
"113 -62 OFFCURVE",
"139 -33 OFFCURVE",
"195 0 CURVE",
"195 524 LINE",
"61 524 LINE",
"61 0 LINE",
"122 0 LINE",
"68 -34 OFFCURVE",
"41 -72 OFFCURVE",
"41 -109 CURVE SMOOTH",
"41 -150 OFFCURVE",
"77 -185 OFFCURVE",
"147 -196 CURVE"
);
},
{
closed = 1;
nodes = (
"195 597 LINE",
"195 730 LINE",
"61 730 LINE",
"61 597 LINE"
);
}
);
width = 254;
}
);
unicode = 012F;
},
{
glyphname = itilde;
layers = (
{
layerId = "04F5D486-D400-49CE-AE86-164151670EAE";
name = Bold;
paths = (
{
closed = 1;
nodes = (
"194 0 LINE",
"194 524 LINE",
"60 524 LINE",
"60 0 LINE"
);
},
{
closed = 1;
nodes = (
"282 602 OFFCURVE",
"312 711 OFFCURVE",
"312 730 CURVE",
"238 730 LINE",
"238 726 OFFCURVE",
"233 680 OFFCURVE",
"185 680 CURVE SMOOTH",
"137 680 OFFCURVE",
"114 727 OFFCURVE",
"53 727 CURVE SMOOTH",
"-35 727 OFFCURVE",
"-64 624 OFFCURVE",
"-64 599 CURVE",
"10 599 LINE",
"10 602 OFFCURVE",
"13 647 OFFCURVE",
"58 647 CURVE SMOOTH",
"102 647 OFFCURVE",
"129 602 OFFCURVE",
"189 602 CURVE SMOOTH"
);
}
);
width = 253;
}
);
unicode = 0129;
},
{
glyphname = j.alt;
layers = (
{
layerId = "04F5D486-D400-49CE-AE86-164151670EAE";
name = Bold;
paths = (
{
closed = 1;
nodes = (
"60 -213 LINE",
"194 -213 LINE",
"194 517 LINE",
"60 517 LINE"
);
},
{
closed = 1;
nodes = (
"60 597 LINE",
"193 597 LINE",
"193 726 LINE",
"60 726 LINE"
);
}
);
width = 253;
}
);
},
{
glyphname = jcircumflex;
layers = (
{
layerId = "04F5D486-D400-49CE-AE86-164151670EAE";
name = Bold;
paths = (
{
closed = 1;
nodes = (
"113 -196 OFFCURVE",
"194 -117 OFFCURVE",
"194 -4 CURVE SMOOTH",
"194 524 LINE",
"60 524 LINE",
"60 -14 LINE SMOOTH",
"60 -53 OFFCURVE",
"30 -80 OFFCURVE",
"-5 -80 CURVE SMOOTH",
"-26 -80 OFFCURVE",
"-48 -73 OFFCURVE",
"-64 -58 CURVE",
"-121 -149 LINE",
"-85 -181 OFFCURVE",
"-38 -196 OFFCURVE",
"12 -196 CURVE SMOOTH"
);
},
{
closed = 1;
nodes = (
"42 597 LINE",
"127 660 LINE",
"212 597 LINE",
"281 629 LINE",
"175 730 LINE",
"78 730 LINE",
"-28 629 LINE"
);
}
);
width = 253;
}
);
unicode = 0135;
},
{
glyphname = k;
layers = (
{
layerId = "04F5D486-D400-49CE-AE86-164151670EAE";
name = Bold;
paths = (
{
closed = 1;
nodes = (
"561 0 LINE",
"351 301 LINE",
"547 523 LINE",
"404 523 LINE",
"194 287 LINE",
"194 730 LINE",
"60 730 LINE",
"60 0 LINE",
"194 0 LINE",
"194 156 LINE",
"266 227 LINE",
"418 0 LINE"
);
}
);
width = 557;
}
);
unicode = 006B;
},
{
glyphname = kcommaaccent;
layers = (
{
layerId = "04F5D486-D400-49CE-AE86-164151670EAE";
name = Bold;
paths = (
{
closed = 1;
nodes = (
"199 -191 LINE",
"280 -191 OFFCURVE",
"341 -182 OFFCURVE",
"341 -116 CURVE SMOOTH",
"341 -47 LINE",
"232 -47 LINE",
"232 -111 LINE SMOOTH",
"232 -129 OFFCURVE",
"221 -136 OFFCURVE",
"199 -136 CURVE"
);
},
{
closed = 1;
nodes = (
"561 0 LINE",
"351 301 LINE",
"547 523 LINE",
"404 523 LINE",
"194 287 LINE",
"194 730 LINE",
"60 730 LINE",
"60 0 LINE",
"194 0 LINE",
"194 156 LINE",
"266 227 LINE",
"418 0 LINE"
);
}
);
width = 557;
}
);
unicode = 0137;
},
{
glyphname = kgreenlandic;
layers = (
{
layerId = "04F5D486-D400-49CE-AE86-164151670EAE";
name = Bold;
paths = (
{
closed = 1;
nodes = (
"561 0 LINE",
"351 301 LINE",
"547 523 LINE",
"404 523 LINE",
"194 287 LINE",
"194 524 LINE",
"60 524 LINE",
"60 0 LINE",
"194 0 LINE",
"194 156 LINE",
"266 227 LINE",
"418 0 LINE"
);
}
);
width = 557;
}
);
unicode = 0138;
},
{
glyphname = l;
layers = (
{
layerId = "04F5D486-D400-49CE-AE86-164151670EAE";
name = Bold;
paths = (
{
closed = 1;
nodes = (
"59 121 LINE SMOOTH",
"59 39 OFFCURVE",
"108 -8 OFFCURVE",
"191 -8 CURVE SMOOTH",
"230 -8 OFFCURVE",
"283 2 OFFCURVE",
"319 19 CURVE",
"301 126 LINE",
"284 119 OFFCURVE",
"263 113 OFFCURVE",
"248 113 CURVE SMOOTH",
"213 113 OFFCURVE",
"193 135 OFFCURVE",
"193 174 CURVE SMOOTH",
"193 730 LINE",
"59 730 LINE"
);
}
);
width = 317;
}
);
unicode = 006C;
},
{
glyphname = l.alt;
layers = (
{
layerId = "04F5D486-D400-49CE-AE86-164151670EAE";
name = Bold;
paths = (
{
closed = 1;
nodes = (
"62 0 LINE",
"196 0 LINE",
"196 730 LINE",
"62 730 LINE"
);
}
);
width = 259;
}
);
},
{
glyphname = lacute;
layers = (
{
layerId = "04F5D486-D400-49CE-AE86-164151670EAE";
name = Bold;
paths = (
{
closed = 1;
nodes = (
"251 909 LINE",
"126 909 LINE",
"72 790 LINE",
"158 764 LINE"
);
},
{
closed = 1;
nodes = (
"59 121 LINE SMOOTH",
"59 39 OFFCURVE",
"108 -8 OFFCURVE",
"191 -8 CURVE SMOOTH",
"230 -8 OFFCURVE",
"283 2 OFFCURVE",
"319 19 CURVE",
"301 126 LINE",
"284 119 OFFCURVE",
"263 113 OFFCURVE",
"248 113 CURVE SMOOTH",
"213 113 OFFCURVE",
"193 135 OFFCURVE",
"193 174 CURVE SMOOTH",
"193 730 LINE",
"59 730 LINE"
);
}
);
width = 317;
}
);
unicode = 013A;
},
{
glyphname = lcaron;
layers = (
{
layerId = "04F5D486-D400-49CE-AE86-164151670EAE";
name = Bold;
paths = (
{
closed = 1;
nodes = (
"413 730 LINE",
"288 730 LINE",
"234 611 LINE",
"320 585 LINE"
);
},
{
closed = 1;
nodes = (
"59 121 LINE SMOOTH",
"59 39 OFFCURVE",
"108 -8 OFFCURVE",
"191 -8 CURVE SMOOTH",
"230 -8 OFFCURVE",
"283 2 OFFCURVE",
"319 19 CURVE",
"301 126 LINE",
"284 119 OFFCURVE",
"263 113 OFFCURVE",
"248 113 CURVE SMOOTH",
"213 113 OFFCURVE",
"193 135 OFFCURVE",
"193 174 CURVE SMOOTH",
"193 730 LINE",
"59 730 LINE"
);
}
);
width = 317;
}
);
unicode = 013E;
},
{
glyphname = lcommaaccent;
layers = (
{
layerId = "04F5D486-D400-49CE-AE86-164151670EAE";
name = Bold;
paths = (
{
closed = 1;
nodes = (
"100 -191 LINE",
"181 -191 OFFCURVE",
"242 -182 OFFCURVE",
"242 -116 CURVE SMOOTH",
"242 -47 LINE",
"133 -47 LINE",
"133 -111 LINE SMOOTH",
"133 -129 OFFCURVE",
"122 -136 OFFCURVE",
"100 -136 CURVE"
);
},
{
closed = 1;
nodes = (
"59 121 LINE SMOOTH",
"59 39 OFFCURVE",
"108 -8 OFFCURVE",
"191 -8 CURVE SMOOTH",
"230 -8 OFFCURVE",
"283 2 OFFCURVE",
"319 19 CURVE",
"301 126 LINE",
"284 119 OFFCURVE",
"263 113 OFFCURVE",
"248 113 CURVE SMOOTH",
"213 113 OFFCURVE",
"193 135 OFFCURVE",
"193 174 CURVE SMOOTH",
"193 730 LINE",
"59 730 LINE"
);
}
);
width = 317;
}
);
unicode = 013C;
},
{
glyphname = ldot;
layers = (
{
layerId = "04F5D486-D400-49CE-AE86-164151670EAE";
name = Bold;
paths = (
{
closed = 1;
nodes = (
"59 121 LINE SMOOTH",
"59 39 OFFCURVE",
"108 -8 OFFCURVE",
"191 -8 CURVE SMOOTH",
"230 -8 OFFCURVE",
"283 2 OFFCURVE",
"319 19 CURVE",
"301 126 LINE",
"284 119 OFFCURVE",
"263 113 OFFCURVE",
"248 113 CURVE SMOOTH",
"213 113 OFFCURVE",
"193 135 OFFCURVE",
"193 174 CURVE SMOOTH",
"193 730 LINE",
"59 730 LINE"
);
},
{
closed = 1;
nodes = (
"379 283 LINE",
"379 434 LINE",
"269 434 LINE",
"269 283 LINE"
);
}
);
width = 396;
}
);
unicode = 0140;
},
{
glyphname = less;
layers = (
{
layerId = "04F5D486-D400-49CE-AE86-164151670EAE";
name = Bold;
paths = (
{
closed = 1;
nodes = (
"32 223 LINE",
"454 -27 LINE",
"454 123 LINE",
"227 259 LINE",
"454 401 LINE",
"454 543 LINE",
"32 288 LINE"
);
}
);
width = 509;
}
);
unicode = 003C;
},
{
glyphname = logicalnot;
layers = (
{
layerId = "04F5D486-D400-49CE-AE86-164151670EAE";
name = Bold;
paths = (
{
closed = 1;
nodes = (
"63 400 LINE",
"63 280 LINE",
"437 280 LINE",
"437 106 LINE",
"551 106 LINE",
"551 400 LINE"
);
}
);
width = 615;
}
);
unicode = 00AC;
},
{
glyphname = lslash;
layers = (
{
layerId = "04F5D486-D400-49CE-AE86-164151670EAE";
name = Bold;
paths = (
{
closed = 1;
nodes = (
"81 121 LINE SMOOTH",
"81 39 OFFCURVE",
"130 -8 OFFCURVE",
"213 -8 CURVE SMOOTH",
"252 -8 OFFCURVE",
"305 2 OFFCURVE",
"341 19 CURVE",
"323 126 LINE",
"306 119 OFFCURVE",
"285 113 OFFCURVE",
"270 113 CURVE SMOOTH",
"235 113 OFFCURVE",
"215 135 OFFCURVE",
"215 174 CURVE SMOOTH",
"215 380 LINE",
"335 452 LINE",
"301 524 LINE",
"215 472 LINE",
"215 730 LINE",
"81 730 LINE",
"81 392 LINE",
"-4 341 LINE",
"30 269 LINE",
"81 299 LINE"
);
}
);
width = 343;
}
);
unicode = 0142;
},
{
glyphname = m;
layers = (
{
layerId = "04F5D486-D400-49CE-AE86-164151670EAE";
name = Bold;
paths = (
{
closed = 1;
nodes = (
"874 327 LINE SMOOTH",
"874 428 OFFCURVE",
"846 533 OFFCURVE",
"717 533 CURVE SMOOTH",
"634 533 OFFCURVE",
"566 494 OFFCURVE",
"524 422 CURVE",
"510 484 OFFCURVE",
"463 533 OFFCURVE",
"376 533 CURVE SMOOTH",
"290 533 OFFCURVE",
"220 495 OFFCURVE",
"181 427 CURVE",
"181 524 LINE",
"60 524 LINE",
"60 0 LINE",
"194 0 LINE",
"194 306 LINE",
"214 371 OFFCURVE",
"267 415 OFFCURVE",
"319 415 CURVE SMOOTH",
"369 415 OFFCURVE",
"400 378 OFFCURVE",
"400 294 CURVE SMOOTH",
"400 0 LINE",
"534 0 LINE",
"534 305 LINE",
"554 370 OFFCURVE",
"606 415 OFFCURVE",
"658 415 CURVE SMOOTH",
"709 415 OFFCURVE",
"740 377 OFFCURVE",
"740 294 CURVE SMOOTH",
"740 0 LINE",
"874 0 LINE"
);
}
);
width = 929;
}
);
unicode = 006D;
},
{
glyphname = minus;
layers = (
{
layerId = "04F5D486-D400-49CE-AE86-164151670EAE";
name = Bold;
paths = (
{
closed = 1;
nodes = (
"466 274 LINE",
"466 381 LINE",
"62 381 LINE",
"62 274 LINE"
);
}
);
width = 528;
}
);
unicode = 2212;
},
{
glyphname = mu;
layers = (
{
layerId = "04F5D486-D400-49CE-AE86-164151670EAE";
name = Bold;
paths = (
{
closed = 1;
nodes = (
"70 -212 LINE",
"205 -212 LINE",
"196 49 LINE",
"204 25 OFFCURVE",
"233 -10 OFFCURVE",
"286 -10 CURVE SMOOTH",
"355 -10 OFFCURVE",
"424 50 OFFCURVE",
"447 98 CURVE",
"449 55 LINE",
"456 17 OFFCURVE",
"485 -6 OFFCURVE",
"532 -6 CURVE SMOOTH",
"548 -6 OFFCURVE",
"569 -5 OFFCURVE",
"597 0 CURVE",
"597 114 LINE",
"570 115 OFFCURVE",
"561 126 OFFCURVE",
"561 154 CURVE SMOOTH",
"561 524 LINE",
"427 524 LINE",
"427 199 LINE",
"396 135 OFFCURVE",
"343 104 OFFCURVE",
"294 104 CURVE SMOOTH",
"233 104 OFFCURVE",
"204 145 OFFCURVE",
"204 225 CURVE SMOOTH",
"204 524 LINE",
"70 524 LINE"
);
}
);
width = 637;
}
);
unicode = 00B5;
},
{
glyphname = multiply;
layers = (
{
layerId = "04F5D486-D400-49CE-AE86-164151670EAE";
name = Bold;
paths = (
{
closed = 1;
nodes = (
"322 275 LINE",
"420 374 LINE",
"338 458 LINE",
"239 359 LINE",
"141 457 LINE",
"56 374 LINE",
"154 275 LINE",
"53 173 LINE",
"135 89 LINE",
"238 192 LINE",
"341 89 LINE",
"426 172 LINE"
);
}
);
width = 478;
}
);
unicode = 00D7;
},
{
glyphname = n;
layers = (
{
layerId = "04F5D486-D400-49CE-AE86-164151670EAE";
name = Bold;
paths = (
{
closed = 1;
nodes = (
"547 327 LINE SMOOTH",
"547 429 OFFCURVE",
"520 533 OFFCURVE",
"389 533 CURVE SMOOTH",
"297 533 OFFCURVE",
"220 493 OFFCURVE",
"181 427 CURVE",
"181 524 LINE",
"60 524 LINE",
"60 0 LINE",
"194 0 LINE",
"194 306 LINE",
"214 369 OFFCURVE",
"276 415 OFFCURVE",
"330 415 CURVE SMOOTH",
"382 415 OFFCURVE",
"413 378 OFFCURVE",
"413 294 CURVE SMOOTH",
"413 0 LINE",
"547 0 LINE"
);
}
);
width = 602;
}
);
unicode = 006E;
},
{
glyphname = nacute;
layers = (
{
layerId = "04F5D486-D400-49CE-AE86-164151670EAE";
name = Bold;
paths = (
{
closed = 1;
nodes = (
"443 730 LINE",
"318 730 LINE",
"264 611 LINE",
"350 585 LINE"
);
},
{
closed = 1;
nodes = (
"547 327 LINE SMOOTH",
"547 429 OFFCURVE",
"520 533 OFFCURVE",
"389 533 CURVE SMOOTH",
"297 533 OFFCURVE",
"220 493 OFFCURVE",
"181 427 CURVE",
"181 524 LINE",
"60 524 LINE",
"60 0 LINE",
"194 0 LINE",
"194 306 LINE",
"214 369 OFFCURVE",
"276 415 OFFCURVE",
"330 415 CURVE SMOOTH",
"382 415 OFFCURVE",
"413 378 OFFCURVE",
"413 294 CURVE SMOOTH",
"413 0 LINE",
"547 0 LINE"
);
}
);
width = 602;
}
);
unicode = 0144;
},
